<?xml version="1.0" encoding="UTF-8" standalone="no"?>
<!-- Created with Inkscape (http://www.inkscape.org/) -->

<svg
   width="229.98199mm"
   height="294.375mm"
   viewBox="0 0 229.982 294.375"
   version="1.1"
   id="svg8"
   sodipodi:docname="Logo_of_Indonesian_Solidarity_Party (2020).svg"
   inkscape:version="1.2.1 (9c6d41e410, 2022-07-14)"
   xml:space="preserve"
   xmlns:inkscape="http://www.inkscape.org/namespaces/inkscape"
   xmlns:sodipodi="http://sodipodi.sourceforge.net/DTD/sodipodi-0.dtd"
   xmlns="http://www.w3.org/2000/svg"
   xmlns:svg="http://www.w3.org/2000/svg"
   xmlns:rdf="http://www.w3.org/1999/02/22-rdf-syntax-ns#"
   xmlns:cc="http://creativecommons.org/ns#"
   xmlns:dc="http://purl.org/dc/elements/1.1/"><defs
     id="defs2" /><sodipodi:namedview
     id="base"
     pagecolor="#ffffff"
     bordercolor="#666666"
     borderopacity="1.0"
     inkscape:pageopacity="0.0"
     inkscape:pageshadow="2"
     inkscape:zoom="0.98994949"
     inkscape:cx="262.63966"
     inkscape:cy="352.03816"
     inkscape:document-units="mm"
     inkscape:current-layer="layer1"
     showgrid="false"
     fit-margin-top="0"
     fit-margin-left="0"
     fit-margin-right="0"
     fit-margin-bottom="0"
     inkscape:window-width="1920"
     inkscape:window-height="981"
     inkscape:window-x="-10"
     inkscape:window-y="-10"
     inkscape:window-maximized="1"
     inkscape:showpageshadow="0"
     inkscape:pagecheckerboard="0"
     inkscape:deskcolor="#d1d1d1" /><metadata
     id="metadata5"><rdf:RDF><cc:Work
         rdf:about=""><dc:format>image/svg+xml</dc:format><dc:type
           rdf:resource="http://purl.org/dc/dcmitype/StillImage" /></cc:Work></rdf:RDF></metadata><g
     inkscape:label="Layer 1"
     inkscape:groupmode="layer"
     id="layer1"
     transform="translate(45.690961,-20.722181)"><g
       id="g10"
       transform="matrix(0.11969657,0,0,-0.11969657,-117.49155,962.64921)"
       style="display:inline"><path
         d="M 0,8418.9 H 5952.76 V 0 H 0 v 8418.9"
         style="display:none;fill:#ededed;fill-opacity:1;fill-rule:evenodd;stroke:none"
         id="path12" /><path
         d="M 599.855,7869.29 H 2521.23 V 5409.95 H 599.855 v 2459.34"
         style="fill:#ffffff;fill-opacity:1;fill-rule:evenodd;stroke:none"
         id="path14" /><path
         d="M 674.402,7792.44 H 2444.38 V 6024.78 l -876.47,0.24 c 14.94,44.53 90.1,97.54 112.06,114.01 51.59,-2.54 82.64,-6.33 124.7,-1.26 98.53,31.29 132.36,46.09 196.63,72.31 -55.33,7.81 -158.99,-21.57 -162.37,68.49 -10.15,98.11 16.47,317.98 -30.45,294.31 -22.06,-12.44 -63.34,-70.32 -104.02,-137 10.14,109.09 131.93,241.02 30.44,327.28 41.45,0.43 62.59,-1.68 93.88,-2.53 18.6,21.14 37.21,42.28 55.81,63.42 -11.84,-43.98 -23.67,-87.95 -35.51,-131.92 -3.17,-58.56 52.01,-90.49 98.95,-86.26 46.92,2.1 100.18,34.95 117.94,68.79 -23.68,101.48 -43.52,197.61 -67.21,299.09 -128.55,0.84 -141.1,1.69 -269.65,2.54 -184.41,0 -252.99,-425.78 -321.49,-461.76 l -732.636,-301.73 -0.25,887.94 H 812.277 V 7251 h 57.071 c 5.687,0 13.941,0.41 24.777,1.24 30.039,2.99 54.91,10.32 74.41,22.09 19.512,11.66 34.375,28.49 44.485,50.26 10.01,21.88 15.18,48.61 15.38,79.99 0,52.63 -14.35,92.06 -43.138,118.17 -28.696,26.12 -73.192,39.12 -133.563,39.12 H 674.734 Z m 137.875,-428.73 h 25.391 c 24.156,0 39.43,8.87 45.93,26.62 2.375,7.33 3.617,13.73 3.617,19.1 0,12.18 -4.242,21.78 -12.805,29 -8.562,7.12 -20.449,10.73 -35.504,10.73 h -26.629 z m 228.053,-209.59 37.19,122.38 c 12.69,-13.94 26.63,-26.11 42.01,-36.64 22.6,-14.45 41.48,-22.92 56.86,-25.39 6.82,-1.25 13.32,-1.76 19.31,-1.76 15.59,0 27.55,4.54 36.01,13.52 4.85,5.48 7.23,11.66 7.23,18.48 0,9.08 -4.12,15.68 -12.39,19.92 -1.96,0.82 -3.7,1.55 -4.95,2.26 -1.34,0.73 -2.88,1.45 -4.75,2.17 -1.74,0.72 -4.33,1.65 -7.53,2.89 l -32.93,9.29 c -19.6,5.68 -36.22,11.97 -50.05,18.89 -13.84,7.02 -25.19,15.08 -34.17,24.36 -8.97,9.28 -16.61,20.02 -22.81,32.41 -9.08,17.23 -13.62,36.74 -13.62,58.31 0,31.58 9.8,61.2 29.62,88.86 9.7,14.15 21.68,26.11 35.93,35.92 14.33,9.91 30.95,17.55 49.74,23.02 18.89,5.47 39.74,8.15 62.44,8.15 5.26,0 13.32,-0.42 24.25,-1.24 14.45,-1.55 28.91,-4.03 43.24,-7.42 24.99,-6.51 47.28,-15.59 66.78,-27.26 l -42,-109.71 c -3.41,2.68 -7.53,5.36 -12.38,8.16 -29.42,18.16 -55.22,27.24 -77.41,27.24 -6.51,0 -11.77,-0.62 -16,-1.86 -6.29,-1.95 -11.14,-5.16 -14.75,-9.49 -3.51,-4.34 -5.27,-8.98 -5.27,-14.04 0,-3.61 1.33,-7.33 3.92,-11.14 3.61,-5.68 8.56,-10.02 14.87,-13.01 6.19,-3.09 19.39,-7.23 39.62,-12.49 3,-0.72 5.79,-1.54 8.46,-2.38 2.59,-0.82 5.89,-1.85 9.91,-2.98 33.34,-11.36 58.31,-27.46 75.15,-48.51 16.82,-21.16 25.28,-47.07 25.28,-77.93 0,-12.28 -1.66,-26.31 -4.85,-42 -7.64,-36.85 -26.84,-66.78 -57.59,-89.69 -30.76,-22.81 -68.74,-34.27 -114.15,-34.27 -9.71,0 -19.51,0.62 -29.63,1.86 -32.82,3.61 -63.57,13.31 -92.27,29.31 -10.84,6.19 -31.09,15.82 -38.32,21.81 z m 520.22,-53.37 h -138.1 v 461.12 h 138.1 z m 387.01,-837.39 c -54.54,-2.54 -71.04,116.69 -3.79,125.59 h 260.05 l -22.84,-125.59 c -77.81,0 -155.61,0 -233.42,0 z m -16.48,158.58 c -45.67,2.11 -52.01,145.03 7.62,147.15 l 309.22,-1.27 -18.2,-145.88 c -95.14,0 -203.49,0 -298.64,0 z m 176.76,243.29 c -7.61,36.78 -11.86,57.36 -19.47,94.15 h 159.55 v -154.77 h -191.26 c 20.8,13.64 55.2,38.21 51.18,60.62 z m 116.15,283.16 -182.5,-1.8 34.19,-146.62 h 172.24 l -23.93,148.42"
         style="fill:#ed1c24;fill-opacity:1;fill-rule:evenodd;stroke:none"
         id="path16" /><path
         d="m 1829.4,7351.7 c 38.54,-155.43 94.43,-241.48 192.25,-318.84 -56.24,-27.47 -373.52,-10.03 -192.25,318.84"
         style="fill:#ffffff;fill-opacity:1;fill-rule:nonzero;stroke:none"
         id="path18" /><path
         d="m 1975.44,7163.74 c 160.11,-3.56 257.78,27.83 358.08,101.95 11.77,-61.47 -88.22,-363.09 -358.08,-101.95"
         style="fill:#ffffff;fill-opacity:1;fill-rule:nonzero;stroke:none"
         id="path20" /><path
         d="m 2199.55,7247.6 c 54.33,150.65 55.68,253.23 17.34,371.9 62.01,-8.4 316.11,-199.2 -17.34,-371.9"
         style="fill:#ffffff;fill-opacity:1;fill-rule:nonzero;stroke:none"
         id="path22" /><path
         d="m 2093.01,7365.22 c -50.8,68.8 -95.96,99.81 -160.03,117.97 22.13,25.05 182.2,81.32 160.03,-117.97"
         style="fill:#ffffff;fill-opacity:1;fill-rule:nonzero;stroke:none"
         id="path24" /><path
         d="m 1968.66,7415.83 c -20.8,-82.94 -16.03,-137.52 10.69,-198.52 -33.4,1.15 -178.61,88.92 -10.69,198.52"
         style="fill:#ffffff;fill-opacity:1;fill-rule:nonzero;stroke:none"
         id="path26" /><path
         d="m 2006.25,7287.14 c 82.52,22.43 127.79,53.29 167.92,106.43 15.34,-29.69 9.81,-199.27 -167.92,-106.43"
         style="fill:#ffffff;fill-opacity:1;fill-rule:nonzero;stroke:none"
         id="path28" /><path
         d="m 2189.43,7484.72 c -124,101.34 -220.3,136.72 -344.97,140.02 28.55,55.69 292.99,231.89 344.97,-140.02"
         style="fill:#ffffff;fill-opacity:1;fill-rule:nonzero;stroke:none"
         id="path30" /><path
         d="m 1963.88,7545.45 c -138.93,-79.66 -206.35,-156.99 -253.94,-272.27 -41.83,46.55 -112.02,356.46 253.94,272.27"
         style="fill:#ffffff;fill-opacity:1;fill-rule:nonzero;stroke:none"
         id="path32" /><path
         d="m 2444.87,5486.64 -85.3,232.56 h -78.77 l -83.75,-232.56 h 70.36 l 14.64,45.76 h 76.9 l 15.25,-45.76 z m -124.84,163.75 20.86,-63.51 h -41.41 z"
         style="fill:#ed1c24;fill-opacity:1;fill-rule:nonzero;stroke:none"
         id="path34" /><path
         d="m 2118.36,5486.64 h 67.88 v 232.56 h -67.88 v -232.56"
         style="fill:#ed1c24;fill-opacity:1;fill-rule:nonzero;stroke:none"
         id="path36" /><path
         d="m 2017.89,5724.18 c -57.29,0 -89.35,-33.31 -89.35,-74.1 0,-45.14 39.54,-61.33 64.44,-70.36 18.99,-6.84 34.87,-11.83 34.87,-23.04 0,-8.72 -9.65,-16.5 -30.51,-16.5 -24.59,0 -50.12,10.91 -66.93,24.6 v -62.89 c 17.12,-11.52 44.82,-20.23 75.02,-20.23 58.53,0 91.85,32.69 91.85,76.89 0,49.5 -42.34,64.13 -73.48,75.03 -18.37,6.54 -28.64,10.28 -28.64,18.37 0,7.78 9.34,13.7 27.71,13.7 20.24,0 45.14,-7.16 59.77,-17.44 v 59.78 c -16.81,9.65 -39.53,16.19 -64.75,16.19"
         style="fill:#ed1c24;fill-opacity:1;fill-rule:nonzero;stroke:none"
         id="path38" /><path
         d="m 1748.05,5486.64 h 160.64 v 60.4 h -92.77 v 28.95 h 83.43 v 54.79 h -83.43 v 28.02 h 92.77 v 60.4 h -160.64 v -232.56"
         style="fill:#ed1c24;fill-opacity:1;fill-rule:nonzero;stroke:none"
         id="path40" /><path
         d="m 1716.37,5719.2 h -64.44 v -122.66 h -0.32 l -83.74,122.66 h -64.76 v -232.56 h 64.44 v 124.84 h 0.32 l 83.74,-124.84 h 64.76 v 232.56"
         style="fill:#ed1c24;fill-opacity:1;fill-rule:nonzero;stroke:none"
         id="path42" /><path
         d="m 1359.36,5480.72 c 69.73,0 123.6,50.44 123.6,122.35 0,71.92 -53.87,122.04 -123.6,122.04 -69.12,0 -123.6,-50.12 -123.6,-122.04 0,-71.91 54.17,-122.35 123.6,-122.35 z m 0,61.64 c -28.33,0 -55.11,21.8 -55.11,60.71 0,38.61 26.78,60.4 55.11,60.4 28.02,0 55.1,-21.79 55.1,-60.4 0,-38.91 -27.08,-60.71 -55.1,-60.71"
         style="fill:#ed1c24;fill-opacity:1;fill-rule:nonzero;stroke:none"
         id="path44" /><path
         d="m 1097.92,5719.2 h -78.45 v -232.56 h 78.45 c 75.97,0 128.89,46.07 128.89,116.12 0,70.05 -52.92,116.44 -128.89,116.44 z m -10.58,-61.33 h 13.07 c 35.18,0 57.91,-19.93 57.91,-55.11 0,-34.87 -22.73,-54.8 -57.91,-54.8 h -13.07 v 109.91"
         style="fill:#ed1c24;fill-opacity:1;fill-rule:nonzero;stroke:none"
         id="path46" /><path
         d="m 987.793,5719.2 h -64.445 v -122.66 h -0.313 l -83.746,122.66 h -64.758 v -232.56 h 64.449 v 124.84 h 0.309 l 83.746,-124.84 h 64.758 v 232.56"
         style="fill:#ed1c24;fill-opacity:1;fill-rule:nonzero;stroke:none"
         id="path48" /><path
         d="m 674.988,5486.64 h 67.871 v 232.56 h -67.871 v -232.56"
         style="fill:#ed1c24;fill-opacity:1;fill-rule:nonzero;stroke:none"
         id="path50" /><path
         d="m 2375.81,5974.42 c -49.45,0 -77.13,-28.75 -77.13,-63.96 0,-38.97 34.13,-52.94 55.63,-60.74 16.4,-5.92 30.1,-10.21 30.1,-19.89 0,-7.52 -8.33,-14.24 -26.33,-14.24 -21.24,0 -43.28,9.4 -57.79,21.23 v -54.29 c 14.78,-9.94 38.7,-17.47 64.77,-17.47 50.53,0 79.29,28.22 79.29,66.39 0,42.73 -36.55,55.36 -63.43,64.76 -15.86,5.65 -24.73,8.87 -24.73,15.86 0,6.72 8.06,11.83 23.92,11.83 17.47,0 38.98,-6.19 51.6,-15.06 v 51.61 c -14.51,8.33 -34.13,13.97 -55.9,13.97"
         style="fill:#231f20;fill-opacity:1;fill-rule:nonzero;stroke:none"
         id="path52" /><path
         d="m 2300.09,5769.36 -73.64,200.76 h -67.99 l -72.3,-200.76 h 60.74 l 12.63,39.51 h 66.38 l 13.17,-39.51 z m -107.77,141.37 18.01,-54.83 h -35.75 z"
         style="fill:#231f20;fill-opacity:1;fill-rule:nonzero;stroke:none"
         id="path54" /><path
         d="m 1998.61,5769.36 h 58.59 v 147.82 h 55.1 v 52.94 h -169.05 v -52.94 h 55.36 v -147.82"
         style="fill:#231f20;fill-opacity:1;fill-rule:nonzero;stroke:none"
         id="path56" /><path
         d="m 1869.95,5769.36 h 58.59 v 200.76 h -58.59 v -200.76"
         style="fill:#231f20;fill-opacity:1;fill-rule:nonzero;stroke:none"
         id="path58" /><path
         d="m 1805.78,5840.04 c 33.33,13.98 41.65,41.4 41.65,60.21 0,47.57 -34.93,69.87 -85.19,69.87 h -71.49 v -200.76 h 58.59 v 62.09 h 1.34 l 38.17,-62.09 h 69.07 z m -56.44,35.21 v 41.93 h 12.36 c 15.06,0 26.61,-6.72 26.61,-20.97 0,-13.97 -11.55,-20.96 -26.34,-20.96 h -12.63"
         style="fill:#231f20;fill-opacity:1;fill-rule:nonzero;stroke:none"
         id="path60" /><path
         d="m 1682.22,5769.36 -73.64,200.76 h -67.99 l -72.3,-200.76 h 60.73 l 12.64,39.51 h 66.38 l 13.17,-39.51 z m -107.77,141.37 18,-54.83 h -35.74 z"
         style="fill:#231f20;fill-opacity:1;fill-rule:nonzero;stroke:none"
         id="path62" /><path
         d="m 1365.69,5970.12 h -67.73 v -200.76 h 67.73 c 65.58,0 111.26,39.78 111.26,100.25 0,60.47 -45.68,100.51 -111.26,100.51 z m -9.14,-52.94 h 11.29 c 30.37,0 49.99,-17.2 49.99,-47.57 0,-30.1 -19.62,-47.3 -49.99,-47.3 h -11.29 v 94.87"
         style="fill:#231f20;fill-opacity:1;fill-rule:nonzero;stroke:none"
         id="path64" /><path
         d="m 1212.03,5769.36 h 58.59 v 200.76 h -58.59 v -200.76"
         style="fill:#231f20;fill-opacity:1;fill-rule:nonzero;stroke:none"
         id="path66" /><path
         d="m 1059.71,5769.36 h 137.34 v 52.95 h -78.75 v 147.81 h -58.59 v -200.76"
         style="fill:#231f20;fill-opacity:1;fill-rule:nonzero;stroke:none"
         id="path68" /><path
         d="m 935.613,5764.25 c 60.2,0 106.697,43.54 106.697,105.63 0,62.08 -46.497,105.35 -106.697,105.35 -59.664,0 -106.699,-43.27 -106.699,-105.35 0,-62.09 46.77,-105.63 106.699,-105.63 z m 0,53.22 c -24.457,0 -47.57,18.82 -47.57,52.41 0,33.32 23.113,52.14 47.57,52.14 24.188,0 47.571,-18.82 47.571,-52.14 0,-33.59 -23.383,-52.41 -47.571,-52.41"
         style="fill:#231f20;fill-opacity:1;fill-rule:nonzero;stroke:none"
         id="path70" /><path
         d="m 752.121,5974.42 c -49.449,0 -77.133,-28.75 -77.133,-63.96 0,-38.97 34.137,-52.94 55.633,-60.74 16.395,-5.92 30.102,-10.21 30.102,-19.89 0,-7.52 -8.332,-14.24 -26.336,-14.24 -21.231,0 -43.274,9.4 -57.785,21.23 v -54.29 c 14.781,-9.94 38.699,-17.47 64.769,-17.47 50.527,0 79.281,28.23 79.281,66.39 0,42.73 -36.547,55.36 -63.422,64.76 -15.859,5.65 -24.73,8.87 -24.73,15.86 0,6.72 8.063,11.83 23.922,11.83 17.469,0 38.973,-6.19 51.598,-15.06 v 51.61 c -14.512,8.33 -34.129,13.97 -55.899,13.97"
         style="fill:#231f20;fill-opacity:1;fill-rule:nonzero;stroke:none"
         id="path72" /><path
         d="m 1504.57,6024.78 h 55.98 v 191.81 h -55.98 v -191.81"
         style="fill:#ed1c24;fill-opacity:1;fill-rule:nonzero;stroke:none"
         id="path74" /><path
         d="m 1499.78,6024.78 -70.35,191.81 h -64.97 l -69.07,-191.81 h 58.03 l 12.07,37.75 h 63.42 l 12.58,-37.75 z m -102.97,135.06 17.21,-52.38 h -34.15 z"
         style="fill:#ed1c24;fill-opacity:1;fill-rule:nonzero;stroke:none"
         id="path76" /><path
         d="m 1222.12,6024.78 h 55.98 V 6166 h 52.63 v 50.59 h -161.5 V 6166 h 52.89 v -141.22"
         style="fill:#ed1c24;fill-opacity:1;fill-rule:nonzero;stroke:none"
         id="path78" /><path
         d="m 1121.49,6092.31 c 31.84,13.35 39.8,39.54 39.8,57.52 0,45.44 -33.38,66.76 -81.39,66.76 h -68.3 v -191.81 h 55.97 v 59.31 h 1.29 l 36.46,-59.31 h 65.99 z m -53.92,33.64 V 6166 h 11.81 c 14.38,0 25.42,-6.42 25.42,-20.03 0,-13.35 -11.04,-20.02 -25.16,-20.02 h -12.07"
         style="fill:#ed1c24;fill-opacity:1;fill-rule:nonzero;stroke:none"
         id="path80" /><path
         d="m 1005.07,6024.78 -70.359,191.81 H 869.75 l -69.074,-191.81 h 58.031 l 12.07,37.75 h 63.422 l 12.578,-37.75 z m -102.968,135.06 17.207,-52.38 h -34.157 z"
         style="fill:#ed1c24;fill-opacity:1;fill-rule:nonzero;stroke:none"
         id="path82" /><path
         d="m 674.734,6024.78 h 55.977 v 45.7 h 11.809 c 57.773,0 86.531,36.21 86.531,74.72 0,43.14 -31.582,71.39 -90.383,71.39 h -63.934 z m 70.356,95.26 H 730.711 V 6166 h 13.863 c 15.664,0 27.985,-7.7 27.985,-22.85 0,-15.15 -12.321,-23.11 -27.469,-23.11"
         style="fill:#ed1c24;fill-opacity:1;fill-rule:nonzero;stroke:none"
         id="path84" /></g></g></svg>
