<?xml version="1.0" encoding="UTF-8" standalone="no"?>
<svg
   xmlns:dc="http://purl.org/dc/elements/1.1/"
   xmlns:cc="http://creativecommons.org/ns#"
   xmlns:rdf="http://www.w3.org/1999/02/22-rdf-syntax-ns#"
   xmlns:svg="http://www.w3.org/2000/svg"
   xmlns="http://www.w3.org/2000/svg"
   xmlns:sodipodi="http://sodipodi.sourceforge.net/DTD/sodipodi-0.dtd"
   xmlns:inkscape="http://www.inkscape.org/namespaces/inkscape"
   width="173.3699"
   height="100"
   viewBox="0 0 138.69592 80"
   version="1.1"
   id="svg2"
   inkscape:version="0.48.2 r9819"
   sodipodi:docname="10 Logo Partai Hanura.svg">
  <metadata
     id="metadata100">
    <rdf:RDF>
      <cc:Work
         rdf:about="">
        <dc:format>image/svg+xml</dc:format>
        <dc:type
           rdf:resource="http://purl.org/dc/dcmitype/StillImage" />
      </cc:Work>
    </rdf:RDF>
  </metadata>
  <defs
     id="defs98" />
  <sodipodi:namedview
     pagecolor="#ffffff"
     bordercolor="#666666"
     borderopacity="1"
     objecttolerance="10"
     gridtolerance="10"
     guidetolerance="10"
     inkscape:pageopacity="0"
     inkscape:pageshadow="2"
     inkscape:window-width="1920"
     inkscape:window-height="1017"
     id="namedview96"
     showgrid="false"
     fit-margin-top="0"
     fit-margin-left="0"
     fit-margin-right="0"
     fit-margin-bottom="0"
     inkscape:zoom="1"
     inkscape:cx="-479.26019"
     inkscape:cy="-32.671233"
     inkscape:window-x="-8"
     inkscape:window-y="-8"
     inkscape:window-maximized="1"
     inkscape:current-layer="svg2" />
  <g
     id="#ffffffff"
     transform="matrix(0.18267491,0,0,0.18267491,-3.7229147,-11.697783)">
    <path
       d="m 29.84,73.53 c 185.86,0.02 371.72,-0.04 557.59,0.03 40.64,50.34 81.67,100.37 122.53,150.53 -11.99,0.03 -23.97,-0.03 -35.96,-0.01 -13.66,0.63 -27.34,-0.5 -41.01,0.17 -10.66,0.58 -21.32,-0.33 -31.99,-0.16 -15.33,0.08 -30.67,-0.28 -45.99,0.34 -9.67,-0.33 -19.34,-0.42 -29.01,-0.35 -13,0.6 -25.99,-0.29 -39,0 -16,0.8 -32.01,-0.56 -48.01,0.17 -8.66,0.33 -17.33,0.19 -25.99,-0.16 -15.67,0.01 -31.33,-0.04 -47,0.01 -16,0.88 -32.02,-0.61 -48.03,0.16 -7.32,0.32 -14.65,0.17 -21.97,-0.16 -25.67,-0.03 -51.33,0 -77,0 -8.66,0.43 -17.34,0.44 -26,0 -19.67,-0.01 -39.34,-0.08 -59.01,0.09 -16.33,-0.62 -32.66,0.75 -48.99,-0.03 -13,-0.2 -26,0.03 -39,-0.06 -5.19,0.07 -10.39,-0.26 -15.57,0.28 l -0.46,-0.79 C 29.65,173.58 29.92,123.55 29.84,73.53 z"
       id="path5"
       inkscape:connector-curvature="0"
       style="fill:#ffffff" />
    <path
       d="m 107.6,246.12 c 7.5,0.03 14.99,-0.05 22.49,0.03 0.07,8.65 -0.01,17.3 0.05,25.94 8.19,0.04 16.37,0.07 24.56,-0.02 0.02,-8.64 0.03,-17.28 0.01,-25.92 7.54,-0.07 15.08,-0.02 22.63,-0.01 0.04,24.7 0.02,49.41 0.01,74.11 -7.55,0.02 -15.09,0.03 -22.64,0 0,-9.99 0.02,-19.98 0,-29.97 -8.19,0 -16.39,0 -24.58,0 -0.04,9.99 0.03,19.98 -0.03,29.97 -7.51,0.03 -15.01,0.02 -22.52,0 -0.01,-24.71 -0.04,-49.42 0.02,-74.13 z"
       id="path7"
       inkscape:connector-curvature="0"
       style="fill:#ffffff" />
    <path
       d="m 212.31,246.17 c 8.22,-0.06 16.45,-0.1 24.67,0 9.02,24.72 18.34,49.32 27.28,74.07 -7.83,0.06 -15.65,0.01 -23.48,0.02 -1.17,-4.05 -2.38,-8.09 -3.53,-12.15 -8.6,-0.48 -17.2,0.15 -25.8,0.03 -1.13,4.04 -2.32,8.06 -3.44,12.1 -7.67,0.02 -15.34,0.09 -23,-0.04 9.07,-24.69 18.28,-49.32 27.3,-74.03 m 4.14,45.72 c 5.33,-0.08 10.67,0.24 16.01,0.23 -2.53,-8.88 -5.29,-17.69 -7.97,-26.52 -2.98,8.67 -5.39,17.52 -8.04,26.29 z"
       id="path9"
       inkscape:connector-curvature="0"
       style="fill:#ffffff" />
    <path
       d="m 271.75,246.14 c 7.01,-0.01 14.03,-0.05 21.04,0.02 9.14,13.43 17.83,27.18 27.3,40.38 0.29,-13.47 0.05,-26.94 0.12,-40.4 7.07,-0.01 14.14,-0.04 21.22,0 0.02,24.7 0.01,49.41 0,74.12 -7.09,-0.01 -14.18,0.05 -21.27,-0.03 -8.98,-13.53 -18.02,-27.02 -27.15,-40.46 -0.35,13.49 -0.05,27 -0.15,40.49 -7.04,0.01 -14.07,0.01 -21.1,0 -0.05,-24.71 -0.04,-49.41 -0.01,-74.12 z"
       id="path11"
       inkscape:connector-curvature="0"
       style="fill:#ffffff" />
    <path
       d="m 356.43,246.16 c 7.48,-0.05 14.97,-0.04 22.46,-0.03 0.02,14.29 0.02,28.58 0,42.86 0.03,3.88 0.16,8.18 2.83,11.29 3.65,4.43 10.37,4.89 15.45,2.96 4.42,-1.74 6.76,-6.59 6.68,-11.15 0.09,-15.32 -0.02,-30.63 0.04,-45.94 7.49,-0.04 14.99,-0.05 22.48,-0.01 -0.04,14.96 0.01,29.93 -0.02,44.89 -0.03,8.92 -3.36,18.15 -10.43,23.89 -6.79,5.91 -16.3,6.78 -24.93,6.59 -6.89,-0.39 -14.2,-0.54 -20.38,-4.01 -6.38,-3.7 -11.24,-10.06 -12.79,-17.3 -1.89,-6.91 -1.29,-14.11 -1.37,-21.18 -0.02,-10.96 0.04,-21.91 -0.02,-32.86 z"
       id="path13"
       inkscape:connector-curvature="0"
       style="fill:#ffffff" />
    <path
       d="m 441.6,246.13 c 13.81,0.03 27.63,-0.09 41.44,0.07 6.55,0.29 13.96,0.88 18.82,5.86 5.74,5.68 6.64,14.72 4.37,22.15 -2.31,6.92 -8.72,11.56 -15.61,13.24 5.9,2.43 10.01,7.6 12.76,13.19 3.2,6.53 6.69,12.93 9.75,19.52 -8.41,0.23 -16.82,0.05 -25.23,0.1 -4.79,-8.64 -9.04,-17.59 -14.1,-26.07 -1.86,-3.46 -6.01,-4.13 -9.58,-4.12 -0.06,10.06 0.01,20.12 -0.03,30.19 -7.53,0.01 -15.06,0.01 -22.58,-0.01 -0.03,-24.71 -0.01,-49.41 -0.01,-74.12 m 22.59,15 c 0.01,5 0.03,10 -0.02,14.99 5.6,0 11.43,0.54 16.81,-1.41 5.42,-2.25 4.96,-11.73 -0.95,-12.99 -5.2,-1.12 -10.57,-0.45 -15.84,-0.59 z"
       id="path15"
       inkscape:connector-curvature="0"
       style="fill:#ffffff" />
    <path
       d="m 540.5,246.17 c 8.22,-0.07 16.44,-0.06 24.67,-0.01 9.08,24.71 18.29,49.37 27.35,74.09 -7.86,0.02 -15.71,0.04 -23.56,-0.02 -1.13,-4.03 -2.36,-8.03 -3.45,-12.07 -8.59,-0.44 -17.19,0.06 -25.78,-0.21 -1.19,4.09 -2.4,8.19 -3.54,12.3 -7.62,0 -15.24,0.07 -22.85,-0.03 8.77,-24.77 18.26,-49.31 27.16,-74.05 m 4.25,45.89 c 5.3,-0.23 10.61,-0.15 15.92,-0.17 -2.69,-8.72 -5.22,-17.49 -7.98,-26.18 -2.97,8.68 -5.57,17.49 -7.94,26.35 z"
       id="path17"
       inkscape:connector-curvature="0"
       style="fill:#ffffff" />
    <path
       d="m 29.79,341.51 c 2.4,0.26 4.8,0.43 7.21,0.41 30.66,-0.05 61.33,0.07 92,-0.05 12.33,-0.8 24.66,0.24 37,0.04 24.67,0.02 49.33,-0.06 74,-0.01 12.33,-0.81 24.66,0.2 37,0.01 17.33,-0.07 34.66,0.08 52,-0.04 12.33,-0.79 24.66,0.25 37,0.03 10.02,-0.06 20.04,0.24 30.05,-0.27 8.99,-0.32 17.96,0.5 26.95,0.29 12.67,0.22 25.34,-0.85 38,-0.02 21.66,-0.1 43.33,0.31 64.98,-0.28 15.67,0.88 31.35,-0.33 47.02,0.31 15,0.32 30,-0.85 45,-0.03 9.67,0.01 19.33,-0.01 29,0.01 11.02,0.17 22.03,-0.65 33.06,-0.25 9.72,0.51 19.46,0.05 29.19,0.3 -3.61,5.4 -8,10.2 -12.02,15.29 -36.58,45.07 -73.4,89.96 -109.8,135.18 -185.86,0.07 -371.73,0.01 -557.6,0.03 -0.02,-50.32 0.05,-100.63 -0.04,-150.95 m 29.96,15.15 c -0.01,12.81 0,25.62 -0.01,38.43 2.07,0 4.15,0 6.22,0 0.01,-4.75 0.01,-9.51 0,-14.26 4.19,-0.23 9.14,0.71 12.55,-2.35 3.75,-3.69 4.09,-9.53 3.04,-14.4 -0.79,-3.18 -3,-6.52 -6.45,-7.06 -5.09,-0.65 -10.24,-0.24 -15.35,-0.36 m 31.79,-0.01 c -3.7,12.82 -7.53,25.61 -11.21,38.43 2.21,0 4.42,0 6.62,0.01 0.8,-2.9 1.56,-5.79 2.35,-8.68 3.67,0.02 7.34,0.01 11.01,0.04 0.82,2.88 1.65,5.77 2.51,8.65 2.24,-0.01 4.48,-0.02 6.73,-0.03 -3.77,-12.82 -7.67,-25.6 -11.54,-38.4 -2.16,0 -4.31,-0.01 -6.47,-0.02 m 20.53,0.03 c 0.04,12.8 -0.01,25.6 0.02,38.41 2.08,0 4.16,0 6.24,0 0.01,-5.36 -0.05,-10.72 0.04,-16.08 1.92,0.32 4.33,0.25 5.32,2.29 2.74,4.4 4.78,9.2 7.18,13.79 2.48,-0.01 4.96,-0.01 7.44,-0.02 -2.86,-5.7 -4.84,-12.02 -9.28,-16.75 3.25,-1.25 5.95,-3.87 6.52,-7.42 1.07,-4.9 -0.13,-11.82 -5.52,-13.63 -5.9,-1.16 -11.98,-0.39 -17.96,-0.59 m 26.65,-0.01 c 0.01,2.3 0.01,4.61 0.01,6.92 2.83,-0.01 5.65,0 8.48,0.03 -0.02,10.49 -0.01,20.99 -0.01,31.48 2.11,-0.02 4.21,-0.05 6.32,-0.11 -0.03,-10.47 0,-20.94 -0.02,-31.41 2.78,0.01 5.57,0.01 8.35,0.02 0,-2.31 0.01,-4.62 0.03,-6.93 -7.72,0 -15.44,0 -23.16,0 m 31.65,0.02 c -3.68,12.81 -7.55,25.57 -11.19,38.4 2.2,0 4.41,0 6.62,-0.01 0.75,-2.91 1.56,-5.8 2.39,-8.68 3.67,0.03 7.34,0.01 11.01,0.07 0.82,2.87 1.34,5.86 2.67,8.55 2.17,0.15 4.35,0.08 6.52,0.08 -3.75,-12.84 -7.69,-25.62 -11.53,-38.44 -2.17,0 -4.33,0.01 -6.49,0.03 m 20.31,-0.02 c 0.02,12.8 0,25.61 0.01,38.42 2.07,-0.01 4.14,0 6.2,0 0.05,-12.8 -0.01,-25.6 0.04,-38.4 -2.09,-0.02 -4.17,-0.02 -6.25,-0.02 m 22.24,0.02 c 0.12,12.8 0.11,25.6 0.13,38.4 2.06,0 4.13,0 6.19,0 -0.01,-5.5 0.02,-11.01 -0.01,-16.51 3.6,-0.02 7.21,-0.02 10.83,-0.01 -0.02,5.51 -0.02,11.01 0,16.52 2.06,0 4.13,0 6.21,0.01 -0.02,-12.82 -0.02,-25.63 -0.01,-38.44 -2.08,0 -4.16,0.01 -6.23,0.02 0.03,4.97 0.07,9.93 -0.1,14.9 -3.56,-0.05 -7.12,-0.04 -10.68,-0.03 -0.01,-4.97 -0.03,-9.93 0,-14.9 -2.11,0.01 -4.22,0.02 -6.33,0.04 m 37.1,-0.02 c -3.81,12.78 -7.52,25.6 -11.28,38.4 2.19,0.01 4.37,0.03 6.57,0.06 0.86,-2.87 1.65,-5.77 2.41,-8.67 3.65,-0.04 7.31,-0.03 10.97,-0.06 0.86,2.88 1.7,5.78 2.54,8.68 2.26,0.01 4.53,0 6.79,0 -3.85,-12.81 -7.69,-25.62 -11.57,-38.43 -2.15,0.01 -4.29,0.01 -6.43,0.02 m 15.45,6.92 c 2.81,0 5.62,0 8.43,0 -0.01,10.5 0,21 -0.01,31.5 2.09,0 4.19,0 6.29,0 -0.01,-10.49 0.01,-20.99 -0.02,-31.48 2.83,-0.02 5.66,-0.02 8.49,-0.03 -0.02,-2.31 -0.03,-4.62 -0.05,-6.93 -7.7,0.04 -15.39,0.02 -23.09,0.01 -0.02,2.31 -0.03,4.62 -0.04,6.93 m 26.22,-6.93 c 0.01,12.81 0.01,25.62 0,38.43 2.07,0 4.14,0 6.22,0 0.03,-12.8 -0.03,-25.61 0.03,-38.41 -2.09,-0.01 -4.17,-0.02 -6.25,-0.02 m 22.28,0.01 c 0.03,12.8 -0.04,25.61 0.04,38.42 1.95,-0.01 3.9,-0.01 5.86,0 0.07,-7.79 -0.13,-15.58 0.12,-23.37 3.76,7.73 7.26,15.59 10.93,23.37 2.06,-0.01 4.12,-0.01 6.19,0 -0.02,-12.81 -0.02,-25.62 0,-38.42 -1.96,0 -3.91,0 -5.87,0.01 0,7.94 0.12,15.88 -0.07,23.81 -3.97,-7.81 -7.39,-15.89 -11.16,-23.81 -2.02,-0.01 -4.03,-0.01 -6.04,-0.01 m 28.67,-0.01 c 0.15,9.46 -0.3,18.93 0.33,28.37 0.23,4.45 2.93,9.24 7.55,10.25 3.89,0.78 8.56,0.78 11.62,-2.15 3.07,-2.77 3.47,-7.18 3.67,-11.06 0.2,-8.47 0.01,-16.93 0.11,-25.39 -2.1,-0.01 -4.19,-0.01 -6.28,-0.01 -0.02,7.77 0.04,15.54 -0.02,23.32 -0.1,2.23 -0.06,4.59 -1.07,6.64 -1.76,2.82 -6.41,2.71 -8.28,0.07 -1.38,-1.95 -1.28,-4.45 -1.39,-6.71 -0.04,-7.77 -0.01,-15.54 0,-23.31 -2.08,-0.01 -4.16,-0.02 -6.24,-0.02 m 28.69,38.37 c 2.12,0.03 4.24,0.05 6.37,0.06 0,-5.38 -0.06,-10.76 0.04,-16.14 1.74,0.46 4.12,0.18 5.13,2.04 2.85,4.44 4.89,9.34 7.33,14.02 4.54,0.13 9.08,0.09 13.62,0.05 0.77,-2.9 1.58,-5.78 2.41,-8.65 3.65,0.02 7.31,0.01 10.97,0.06 0.79,2.88 1.63,5.76 2.47,8.64 2.24,-0.02 4.48,-0.03 6.73,-0.03 -3.71,-12.83 -7.69,-25.57 -11.48,-38.37 -2.14,-0.03 -4.28,-0.06 -6.41,-0.1 -3.82,12.53 -7.43,25.12 -11.08,37.7 -2.92,-5.35 -4.57,-11.58 -9.09,-15.88 7.23,-2.41 8.64,-11.9 5.17,-17.86 -1.29,-2.36 -3.95,-3.65 -6.58,-3.73 -5.17,-0.39 -10.36,-0.06 -15.53,-0.19 -0.15,12.79 -0.02,25.59 -0.07,38.38 m 57.6,-38.36 c 0.04,12.81 0.03,25.61 0.01,38.42 1.94,0 3.89,-0.01 5.85,-0.01 0.07,-7.77 -0.12,-15.54 0.1,-23.31 3.92,7.66 7.28,15.58 11.03,23.32 2.05,0 4.1,0 6.16,0 0,-12.81 -0.01,-25.62 0.01,-38.43 -1.98,0.01 -3.95,0.01 -5.92,0.02 -0.03,7.89 0.16,15.79 -0.11,23.68 -3.95,-7.77 -7.34,-15.81 -11.09,-23.68 -2.01,-0.01 -4.03,-0.01 -6.04,-0.01 m 28.48,38.34 c 2.11,0.05 4.21,0.07 6.32,0.1 0.03,-12.8 -0.03,-25.6 0.04,-38.4 -2.11,-0.03 -4.21,-0.05 -6.31,-0.07 -0.07,12.79 0.02,25.58 -0.05,38.37 m 22.38,-38.34 c 0.01,12.81 0,25.62 0,38.43 2.09,-0.01 4.18,-0.01 6.28,-0.01 0.01,-5.38 -0.09,-10.77 0.09,-16.15 1.67,0.46 3.91,0.21 4.95,1.93 2.99,4.48 4.93,9.57 7.58,14.27 4.49,-0.08 8.98,-0.05 13.47,-0.05 0.79,-2.88 1.55,-5.77 2.34,-8.66 3.66,0 7.33,0 11.01,-0.01 0.81,2.89 1.65,5.78 2.5,8.67 2.24,0 4.48,-0.01 6.73,-0.01 -3.73,-12.83 -7.69,-25.6 -11.5,-38.41 -2.17,0 -4.32,-0.01 -6.47,-0.01 -3.71,12.53 -7.35,25.09 -11.04,37.63 -2.81,-5.41 -4.66,-11.48 -8.99,-15.95 8.61,-2.73 9.38,-16.72 1.69,-20.83 -6.06,-1.61 -12.45,-0.53 -18.64,-0.84 m 57.44,0.04 c 0.06,12.79 0.01,25.59 0.03,38.39 2.11,-0.02 4.22,-0.04 6.34,-0.07 -0.01,-3.02 -0.07,-6.03 -0.04,-9.04 -0.45,-3.47 2.62,-5.76 4.37,-8.33 2.68,5.78 5.12,11.67 7.79,17.46 2.62,-0.03 5.25,-0.04 7.88,-0.06 -3.66,-7.81 -7.5,-15.55 -11.36,-23.26 3.18,-4.57 6.56,-9 9.82,-13.52 -0.06,-0.28 -0.18,-0.84 -0.24,-1.12 -2.21,-0.93 -4.68,-0.38 -6.99,-0.51 -3.77,5.4 -7.47,10.85 -11.27,16.24 0.04,-5.42 0.01,-10.83 0.02,-16.24 -2.12,0.01 -4.24,0.03 -6.35,0.06 m 26.64,0.43 c -0.32,2.17 1.25,3.98 2.01,5.9 2.45,5.37 5.33,10.57 7.44,16.08 0.33,5.29 0.02,10.6 0.11,15.91 2.1,0.03 4.2,0.05 6.31,0.06 0.13,-5.36 -0.24,-10.74 0.16,-16.09 3.08,-7.6 7.05,-14.83 10.42,-22.31 -2.42,-0.02 -4.83,-0.02 -7.23,0 -2.09,4.85 -4.2,9.68 -6.36,14.5 -2.25,-4.81 -4.34,-9.69 -6.55,-14.52 -2.02,0.28 -4.66,-0.72 -6.31,0.47 m 33.24,-0.47 c -3.68,12.83 -7.56,25.59 -11.19,38.43 2.22,-0.02 4.44,-0.04 6.67,-0.1 0.71,-2.9 1.49,-5.77 2.41,-8.6 3.61,0.03 7.23,0.03 10.85,0.02 0.84,2.87 1.67,5.75 2.5,8.64 2.24,0.02 4.49,0.02 6.75,0.02 -3.66,-12.84 -7.76,-25.54 -11.43,-38.38 -2.19,-0.02 -4.38,-0.03 -6.56,-0.03 m 15.46,0 c 0,2.3 0,4.61 0.01,6.92 2.83,0 5.68,0 8.52,0.03 -0.01,10.49 -0.01,20.98 0,31.47 2.07,0 4.14,0 6.22,0.01 0.02,-10.51 -0.05,-21.02 0.04,-31.53 2.81,0.02 5.62,0.02 8.44,0.03 0.01,-2.31 0.01,-4.61 0.04,-6.91 -7.76,-0.04 -15.51,-0.01 -23.27,-0.02 z"
       id="path19"
       inkscape:connector-curvature="0"
       style="fill:#ffffff" />
    <path
       d="m 65.97,363.55 c 2.34,0.06 4.71,-0.06 7.01,0.43 3.15,1.35 3.29,5.95 1.45,8.44 -2.29,2.06 -5.63,1.23 -8.43,1.48 -0.04,-3.45 -0.04,-6.91 -0.03,-10.35 z"
       id="path21"
       inkscape:connector-curvature="0"
       style="fill:#ffffff" />
    <path
       d="m 118.32,372.71 c 0,-3.06 0,-6.11 0.05,-9.16 3.11,0.17 6.36,-0.36 9.38,0.58 2.42,1.87 2.36,6.74 -0.5,8.17 -2.93,0.63 -5.96,0.33 -8.93,0.41 z"
       id="path23"
       inkscape:connector-curvature="0"
       style="fill:#ffffff" />
    <path
       d="m 377.7,363.59 c 3.09,0.06 6.24,-0.25 9.3,0.4 2.52,1.83 2.51,6.22 0.09,8.12 -3.03,0.97 -6.3,0.48 -9.43,0.54 0.03,-3.02 0.03,-6.04 0.04,-9.06 z"
       id="path25"
       inkscape:connector-curvature="0"
       style="fill:#ffffff" />
    <path
       d="m 486.06,363.58 c 2.96,0.04 5.96,-0.18 8.9,0.32 3,1.44 2.99,6.61 0.22,8.33 -2.97,0.74 -6.08,0.39 -9.1,0.5 -0.02,-3.05 -0.02,-6.1 -0.02,-9.15 z"
       id="path27"
       inkscape:connector-curvature="0"
       style="fill:#ffffff" />
    <path
       d="m 173.54,366.73 c 1.23,4.28 2.44,8.56 3.58,12.86 -2.37,-0.01 -4.73,-0.01 -7.1,-0.02 1.23,-4.27 2.38,-8.55 3.52,-12.84 z"
       id="path29"
       inkscape:connector-curvature="0"
       style="fill:#ffffff" />
    <path
       d="m 249.67,379.54 c 1.13,-4.2 2.23,-8.41 3.54,-12.56 1.21,4.19 2.34,8.42 3.56,12.62 -2.37,-0.02 -4.74,-0.03 -7.1,-0.06 z"
       id="path31"
       inkscape:connector-curvature="0"
       style="fill:#ffffff" />
    <path
       d="m 519.91,367 c 1.3,4.16 2.46,8.37 3.56,12.59 -2.36,-0.01 -4.72,-0.01 -7.07,-0.01 1.19,-4.19 2.25,-8.42 3.51,-12.58 z"
       id="path33"
       inkscape:connector-curvature="0"
       style="fill:#ffffff" />
    <path
       d="m 596.87,379.59 c 1.03,-4.31 2.19,-8.58 3.52,-12.8 1.1,4.29 2.31,8.55 3.5,12.81 -2.35,-0.02 -4.69,-0.02 -7.02,-0.01 z"
       id="path35"
       inkscape:connector-curvature="0"
       style="fill:#ffffff" />
    <path
       d="m 94.59,367.33 c 1.62,3.95 2.58,8.13 3.6,12.26 -2.33,-0.01 -4.67,-0.01 -7.01,-0.01 1.19,-4.07 2.21,-8.19 3.41,-12.25 z"
       id="path37"
       inkscape:connector-curvature="0"
       style="fill:#ffffff" />
    <path
       d="m 411.5,366.94 c 1.38,4.16 2.51,8.4 3.62,12.64 -2.36,0 -4.71,0 -7.06,0 1.17,-4.21 2.32,-8.42 3.44,-12.64 z"
       id="path39"
       inkscape:connector-curvature="0"
       style="fill:#ffffff" />
  </g>
  <g
     id="#353334ff"
     transform="matrix(0.18267491,0,0,0.18267491,-3.7229147,-11.697783)">
    <path
       d="m 20.38,64.06 c 253.08,-0.04 506.16,-0.02 759.23,-0.01 -0.01,145.96 -0.04,291.92 0.02,437.88 -253.08,0.06 -506.17,0.05 -759.25,0.01 0.04,-145.96 0.03,-291.92 0,-437.88 m 9.46,9.47 c 0.08,50.02 -0.19,100.05 0.13,150.06 l 0.46,0.79 -0.19,0.31 -0.43,0.72 c -0.08,36.51 0.02,73.05 -0.05,109.57 0.01,2.17 0.12,4.34 0.25,6.51 l -0.22,0.02 c 0.09,50.32 0.02,100.63 0.04,150.95 185.87,-0.02 371.74,0.04 557.6,-0.03 60.92,0.08 121.84,0.04 182.76,0.02 -0.01,-139.64 0.02,-279.28 -0.01,-418.92 -60.92,0 -121.84,-0.06 -182.75,0.03 C 401.56,73.49 215.7,73.55 29.84,73.53 z"
       id="path42"
       inkscape:connector-curvature="0"
       style="fill:#353334" />
    <path
       d="m 59.75,356.66 c 5.11,0.12 10.26,-0.29 15.35,0.36 3.45,0.54 5.66,3.88 6.45,7.06 1.05,4.87 0.71,10.71 -3.04,14.4 -3.41,3.06 -8.36,2.12 -12.55,2.35 0.01,4.75 0.01,9.51 0,14.26 -2.07,0 -4.15,0 -6.22,0 0.01,-12.81 0,-25.62 0.01,-38.43 m 6.22,6.89 c -0.01,3.44 -0.01,6.9 0.03,10.35 2.8,-0.25 6.14,0.58 8.43,-1.48 1.84,-2.49 1.7,-7.09 -1.45,-8.44 -2.3,-0.49 -4.67,-0.37 -7.01,-0.43 z"
       id="path44"
       inkscape:connector-curvature="0"
       style="fill:#353334" />
    <path
       d="m 91.54,356.65 c 2.16,0.01 4.31,0.02 6.47,0.02 3.87,12.8 7.77,25.58 11.54,38.4 -2.25,0.01 -4.49,0.02 -6.73,0.03 -0.86,-2.88 -1.69,-5.77 -2.51,-8.65 -3.67,-0.03 -7.34,-0.02 -11.01,-0.04 -0.79,2.89 -1.55,5.78 -2.35,8.68 -2.2,-0.01 -4.41,-0.01 -6.62,-0.01 3.68,-12.82 7.51,-25.61 11.21,-38.43 m 3.05,10.68 c -1.2,4.06 -2.22,8.18 -3.41,12.25 2.34,0 4.68,0 7.01,0.01 -1.02,-4.13 -1.98,-8.31 -3.6,-12.26 z"
       id="path46"
       inkscape:connector-curvature="0"
       style="fill:#353334" />
    <path
       d="m 112.07,356.68 c 5.98,0.2 12.06,-0.57 17.96,0.59 5.39,1.81 6.59,8.73 5.52,13.63 -0.57,3.55 -3.27,6.17 -6.52,7.42 4.44,4.73 6.42,11.05 9.28,16.75 -2.48,0.01 -4.96,0.01 -7.44,0.02 -2.4,-4.59 -4.44,-9.39 -7.18,-13.79 -0.99,-2.04 -3.4,-1.97 -5.32,-2.29 -0.09,5.36 -0.03,10.72 -0.04,16.08 -2.08,0 -4.16,0 -6.24,0 -0.03,-12.81 0.02,-25.61 -0.02,-38.41 m 6.25,16.03 c 2.97,-0.08 6,0.22 8.93,-0.41 2.86,-1.43 2.92,-6.3 0.5,-8.17 -3.02,-0.94 -6.27,-0.41 -9.38,-0.58 -0.05,3.05 -0.05,6.1 -0.05,9.16 z"
       id="path48"
       inkscape:connector-curvature="0"
       style="fill:#353334" />
    <path
       d="m 138.72,356.67 c 7.72,0 15.44,0 23.16,0 -0.02,2.31 -0.03,4.62 -0.03,6.93 -2.78,-0.01 -5.57,-0.01 -8.35,-0.02 0.02,10.47 -0.01,20.94 0.02,31.41 -2.11,0.06 -4.21,0.09 -6.32,0.11 0,-10.49 -0.01,-20.99 0.01,-31.48 -2.83,-0.03 -5.65,-0.04 -8.48,-0.03 0,-2.31 0,-4.62 -0.01,-6.92 z"
       id="path50"
       inkscape:connector-curvature="0"
       style="fill:#353334" />
    <path
       d="m 170.37,356.69 c 2.16,-0.02 4.32,-0.03 6.49,-0.03 3.84,12.82 7.78,25.6 11.53,38.44 -2.17,0 -4.35,0.07 -6.52,-0.08 -1.33,-2.69 -1.85,-5.68 -2.67,-8.55 -3.67,-0.06 -7.34,-0.04 -11.01,-0.07 -0.83,2.88 -1.64,5.77 -2.39,8.68 -2.21,0.01 -4.42,0.01 -6.62,0.01 3.64,-12.83 7.51,-25.59 11.19,-38.4 m 3.17,10.04 c -1.14,4.29 -2.29,8.57 -3.52,12.84 2.37,0.01 4.73,0.01 7.1,0.02 -1.14,-4.3 -2.35,-8.58 -3.58,-12.86 z"
       id="path52"
       inkscape:connector-curvature="0"
       style="fill:#353334" />
    <path
       d="m 190.68,356.67 c 2.08,0 4.16,0 6.25,0.02 -0.05,12.8 0.01,25.6 -0.04,38.4 -2.06,0 -4.13,-0.01 -6.2,0 -0.01,-12.81 0.01,-25.62 -0.01,-38.42 z"
       id="path54"
       inkscape:connector-curvature="0"
       style="fill:#353334" />
    <path
       d="m 212.92,356.69 c 2.11,-0.02 4.22,-0.03 6.33,-0.04 -0.03,4.97 -0.01,9.93 0,14.9 3.56,-0.01 7.12,-0.02 10.68,0.03 0.17,-4.97 0.13,-9.93 0.1,-14.9 2.07,-0.01 4.15,-0.02 6.23,-0.02 -0.01,12.81 -0.01,25.62 0.01,38.44 -2.08,-0.01 -4.15,-0.01 -6.21,-0.01 -0.02,-5.51 -0.02,-11.01 0,-16.52 -3.62,-0.01 -7.23,-0.01 -10.83,0.01 0.03,5.5 0,11.01 0.01,16.51 -2.06,0 -4.13,0 -6.19,0 -0.02,-12.8 -0.01,-25.6 -0.13,-38.4 z"
       id="path56"
       inkscape:connector-curvature="0"
       style="fill:#353334" />
    <path
       d="m 250.02,356.67 c 2.14,-0.01 4.28,-0.01 6.43,-0.02 3.88,12.81 7.72,25.62 11.57,38.43 -2.26,0 -4.53,0.01 -6.79,0 -0.84,-2.9 -1.68,-5.8 -2.54,-8.68 -3.66,0.03 -7.32,0.02 -10.97,0.06 -0.76,2.9 -1.55,5.8 -2.41,8.67 -2.2,-0.03 -4.38,-0.05 -6.57,-0.06 3.76,-12.8 7.47,-25.62 11.28,-38.4 m -0.35,22.87 c 2.36,0.03 4.73,0.04 7.1,0.06 -1.22,-4.2 -2.35,-8.43 -3.56,-12.62 -1.31,4.15 -2.41,8.36 -3.54,12.56 z"
       id="path58"
       inkscape:connector-curvature="0"
       style="fill:#353334" />
    <path
       d="m 265.47,363.59 c 0.01,-2.31 0.02,-4.62 0.04,-6.93 7.7,0.01 15.39,0.03 23.09,-0.01 0.02,2.31 0.03,4.62 0.05,6.93 -2.83,0.01 -5.66,0.01 -8.49,0.03 0.03,10.49 0.01,20.99 0.02,31.48 -2.1,0 -4.2,0 -6.29,0 0.01,-10.5 0,-21 0.01,-31.5 -2.81,0 -5.62,0 -8.43,0 z"
       id="path60"
       inkscape:connector-curvature="0"
       style="fill:#353334" />
    <path
       d="m 291.69,356.66 c 2.08,0 4.16,0.01 6.25,0.02 -0.06,12.8 0,25.61 -0.03,38.41 -2.08,0 -4.15,0 -6.22,0 0.01,-12.81 0.01,-25.62 0,-38.43 z"
       id="path62"
       inkscape:connector-curvature="0"
       style="fill:#353334" />
    <path
       d="m 313.97,356.67 c 2.01,0 4.02,0 6.04,0.01 3.77,7.92 7.19,16 11.16,23.81 0.19,-7.93 0.07,-15.87 0.07,-23.81 1.96,-0.01 3.91,-0.01 5.87,-0.01 -0.02,12.8 -0.02,25.61 0,38.42 -2.07,-0.01 -4.13,-0.01 -6.19,0 -3.67,-7.78 -7.17,-15.64 -10.93,-23.37 -0.25,7.79 -0.05,15.58 -0.12,23.37 -1.96,-0.01 -3.91,-0.01 -5.86,0 -0.08,-12.81 -0.01,-25.62 -0.04,-38.42 z"
       id="path64"
       inkscape:connector-curvature="0"
       style="fill:#353334" />
    <path
       d="m 342.64,356.66 c 2.08,0 4.16,0.01 6.24,0.02 -0.01,7.77 -0.04,15.54 0,23.31 0.11,2.26 0.01,4.76 1.39,6.71 1.87,2.64 6.52,2.75 8.28,-0.07 1.01,-2.05 0.97,-4.41 1.07,-6.64 0.06,-7.78 0,-15.55 0.02,-23.32 2.09,0 4.18,0 6.28,0.01 -0.1,8.46 0.09,16.92 -0.11,25.39 -0.2,3.88 -0.6,8.29 -3.67,11.06 -3.06,2.93 -7.73,2.93 -11.62,2.15 -4.62,-1.01 -7.32,-5.8 -7.55,-10.25 -0.63,-9.44 -0.18,-18.91 -0.33,-28.37 z"
       id="path66"
       inkscape:connector-curvature="0"
       style="fill:#353334" />
    <path
       d="m 371.33,395.03 c 0.05,-12.79 -0.08,-25.59 0.07,-38.38 5.17,0.13 10.36,-0.2 15.53,0.19 2.63,0.08 5.29,1.37 6.58,3.73 3.47,5.96 2.06,15.45 -5.17,17.86 4.52,4.3 6.17,10.53 9.09,15.88 3.65,-12.58 7.26,-25.17 11.08,-37.7 2.13,0.04 4.27,0.07 6.41,0.1 3.79,12.8 7.77,25.54 11.48,38.37 -2.25,0 -4.49,0.01 -6.73,0.03 -0.84,-2.88 -1.68,-5.76 -2.47,-8.64 -3.66,-0.05 -7.32,-0.04 -10.97,-0.06 -0.83,2.87 -1.64,5.75 -2.41,8.65 -4.54,0.04 -9.08,0.08 -13.62,-0.05 -2.44,-4.68 -4.48,-9.58 -7.33,-14.02 -1.01,-1.86 -3.39,-1.58 -5.13,-2.04 -0.1,5.38 -0.04,10.76 -0.04,16.14 -2.13,-0.01 -4.25,-0.03 -6.37,-0.06 m 6.37,-31.44 c -0.01,3.02 -0.01,6.04 -0.04,9.06 3.13,-0.06 6.4,0.43 9.43,-0.54 2.42,-1.9 2.43,-6.29 -0.09,-8.12 -3.06,-0.65 -6.21,-0.34 -9.3,-0.4 m 33.8,3.35 c -1.12,4.22 -2.27,8.43 -3.44,12.64 2.35,0 4.7,0 7.06,0 -1.11,-4.24 -2.24,-8.48 -3.62,-12.64 z"
       id="path68"
       inkscape:connector-curvature="0"
       style="fill:#353334" />
    <path
       d="m 428.93,356.67 c 2.01,0 4.03,0 6.04,0.01 3.75,7.87 7.14,15.91 11.09,23.68 0.27,-7.89 0.08,-15.79 0.11,-23.68 1.97,-0.01 3.94,-0.01 5.92,-0.02 -0.02,12.81 -0.01,25.62 -0.01,38.43 -2.06,0 -4.11,0 -6.16,0 -3.75,-7.74 -7.11,-15.66 -11.03,-23.32 -0.22,7.77 -0.03,15.54 -0.1,23.31 -1.96,0 -3.91,0.01 -5.85,0.01 0.02,-12.81 0.03,-25.61 -0.01,-38.42 z"
       id="path70"
       inkscape:connector-curvature="0"
       style="fill:#353334" />
    <path
       d="m 457.41,395.01 c 0.07,-12.79 -0.02,-25.58 0.05,-38.37 2.1,0.02 4.2,0.04 6.31,0.07 -0.07,12.8 -0.01,25.6 -0.04,38.4 -2.11,-0.03 -4.21,-0.05 -6.32,-0.1 z"
       id="path72"
       inkscape:connector-curvature="0"
       style="fill:#353334" />
    <path
       d="m 479.79,356.67 c 6.19,0.31 12.58,-0.77 18.64,0.84 7.69,4.11 6.92,18.1 -1.69,20.83 4.33,4.47 6.18,10.54 8.99,15.95 3.69,-12.54 7.33,-25.1 11.04,-37.63 2.15,0 4.3,0.01 6.47,0.01 3.81,12.81 7.77,25.58 11.5,38.41 -2.25,0 -4.49,0.01 -6.73,0.01 -0.85,-2.89 -1.69,-5.78 -2.5,-8.67 -3.68,0.01 -7.35,0.01 -11.01,0.01 -0.79,2.89 -1.55,5.78 -2.34,8.66 -4.49,0 -8.98,-0.03 -13.47,0.05 -2.65,-4.7 -4.59,-9.79 -7.58,-14.27 -1.04,-1.72 -3.28,-1.47 -4.95,-1.93 -0.18,5.38 -0.08,10.77 -0.09,16.15 -2.1,0 -4.19,0 -6.28,0.01 0,-12.81 0.01,-25.62 0,-38.43 m 6.27,6.91 c 0,3.05 0,6.1 0.02,9.15 3.02,-0.11 6.13,0.24 9.1,-0.5 2.77,-1.72 2.78,-6.89 -0.22,-8.33 -2.94,-0.5 -5.94,-0.28 -8.9,-0.32 m 33.85,3.42 c -1.26,4.16 -2.32,8.39 -3.51,12.58 2.35,0 4.71,0 7.07,0.01 -1.1,-4.22 -2.26,-8.43 -3.56,-12.59 z"
       id="path74"
       inkscape:connector-curvature="0"
       style="fill:#353334" />
    <path
       d="m 537.23,356.71 c 2.11,-0.03 4.23,-0.05 6.35,-0.06 -0.01,5.41 0.02,10.82 -0.02,16.24 3.8,-5.39 7.5,-10.84 11.27,-16.24 2.31,0.13 4.78,-0.42 6.99,0.51 0.06,0.28 0.18,0.84 0.24,1.12 -3.26,4.52 -6.64,8.95 -9.82,13.52 3.86,7.71 7.7,15.45 11.36,23.26 -2.63,0.02 -5.26,0.03 -7.88,0.06 -2.67,-5.79 -5.11,-11.68 -7.79,-17.46 -1.75,2.57 -4.82,4.86 -4.37,8.33 -0.03,3.01 0.03,6.02 0.04,9.04 -2.12,0.03 -4.23,0.05 -6.34,0.07 -0.02,-12.8 0.03,-25.6 -0.03,-38.39 z"
       id="path76"
       inkscape:connector-curvature="0"
       style="fill:#353334" />
    <path
       d="m 563.87,357.14 c 1.65,-1.19 4.29,-0.19 6.31,-0.47 2.21,4.83 4.3,9.71 6.55,14.52 2.16,-4.82 4.27,-9.65 6.36,-14.5 2.4,-0.02 4.81,-0.02 7.23,0 -3.37,7.48 -7.34,14.71 -10.42,22.31 -0.4,5.35 -0.03,10.73 -0.16,16.09 -2.11,-0.01 -4.21,-0.03 -6.31,-0.06 -0.09,-5.31 0.22,-10.62 -0.11,-15.91 -2.11,-5.51 -4.99,-10.71 -7.44,-16.08 -0.76,-1.92 -2.33,-3.73 -2.01,-5.9 z"
       id="path78"
       inkscape:connector-curvature="0"
       style="fill:#353334" />
    <path
       d="m 597.11,356.67 c 2.18,0 4.37,0.01 6.56,0.03 3.67,12.84 7.77,25.54 11.43,38.38 -2.26,0 -4.51,0 -6.75,-0.02 -0.83,-2.89 -1.66,-5.77 -2.5,-8.64 -3.62,0.01 -7.24,0.01 -10.85,-0.02 -0.92,2.83 -1.7,5.7 -2.41,8.6 -2.23,0.06 -4.45,0.08 -6.67,0.1 3.63,-12.84 7.51,-25.6 11.19,-38.43 m -0.24,22.92 c 2.33,-0.01 4.67,-0.01 7.02,0.01 -1.19,-4.26 -2.4,-8.52 -3.5,-12.81 -1.33,4.22 -2.49,8.49 -3.52,12.8 z"
       id="path80"
       inkscape:connector-curvature="0"
       style="fill:#353334" />
    <path
       d="m 612.57,356.67 c 7.76,0.01 15.51,-0.02 23.27,0.02 -0.03,2.3 -0.03,4.6 -0.04,6.91 -2.82,-0.01 -5.63,-0.01 -8.44,-0.03 -0.09,10.51 -0.02,21.02 -0.04,31.53 -2.08,-0.01 -4.15,-0.01 -6.22,-0.01 -0.01,-10.49 -0.01,-20.98 0,-31.47 -2.84,-0.03 -5.69,-0.03 -8.52,-0.03 -0.01,-2.31 -0.01,-4.62 -0.01,-6.92 z"
       id="path82"
       inkscape:connector-curvature="0"
       style="fill:#353334" />
  </g>
  <g
     id="#ffcc28ff"
     transform="matrix(0.18267491,0,0,0.18267491,-3.7229147,-11.697783)">
    <path
       d="m 587.43,73.56 c 60.91,-0.09 121.83,-0.03 182.75,-0.03 0.03,139.64 0,279.28 0.01,418.92 -60.92,0.02 -121.84,0.06 -182.76,-0.02 36.4,-45.22 73.22,-90.11 109.8,-135.18 4.02,-5.09 8.41,-9.89 12.02,-15.29 -9.73,-0.25 -19.47,0.21 -29.19,-0.3 -11.03,-0.4 -22.04,0.42 -33.06,0.25 -9.67,-0.02 -19.33,0 -29,-0.01 -15,-0.82 -30,0.35 -45,0.03 -15.67,-0.64 -31.35,0.57 -47.02,-0.31 -21.65,0.59 -43.32,0.18 -64.98,0.28 -12.66,-0.83 -25.33,0.24 -38,0.02 -8.99,0.21 -17.96,-0.61 -26.95,-0.29 -10.01,0.51 -20.03,0.21 -30.05,0.27 -12.34,0.22 -24.67,-0.82 -37,-0.03 -17.34,0.12 -34.67,-0.03 -52,0.04 -12.34,0.19 -24.67,-0.82 -37,-0.01 -24.67,-0.05 -49.33,0.03 -74,0.01 -12.34,0.2 -24.67,-0.84 -37,-0.04 -30.67,0.12 -61.34,0 -92,0.05 -2.41,0.02 -4.81,-0.15 -7.21,-0.41 l 0.22,-0.02 c 8.97,-0.89 18,-0.22 26.99,-0.43 7.68,-0.19 15.34,0.84 23,0.03 35,-0.07 70,-0.02 105,0 9.32,0.73 18.67,0.42 28,-0.04 21.66,0.32 43.34,-0.47 64.99,0.5 11.67,-0.23 23.33,-0.74 35.01,-0.49 10.99,0.8 21.99,-0.39 33,0 15.01,-0.44 30.01,1.19 45,0.02 22.67,-0.05 45.33,0.02 68,-0.02 8.66,-0.13 17.31,0.81 25.97,0.41 11,-0.74 22.02,-0.3 33.03,-0.41 19,0.04 38,-0.07 56.99,0.06 8.33,0.96 16.66,-0.3 25.01,-0.06 11.33,0.07 22.66,-0.14 33.99,0.11 8.66,0.67 17.35,0.34 26.01,-0.11 16.73,0.11 33.46,-0.16 50.18,0.15 16.02,-19.32 31.69,-38.91 47.58,-58.33 -15.56,-19.43 -31.48,-38.57 -47.08,-57.96 -11.22,-0.07 -22.46,0.26 -33.67,-0.3 -11.67,0.55 -23.37,0.42 -35.04,-0.06 -18.32,1.35 -36.66,-0.82 -54.97,0.38 -13.67,0.03 -27.33,-0.02 -41,0.01 -16.98,-1.13 -34,0.95 -50.99,-0.45 -12.65,0.31 -25.34,0.91 -38,0.04 -2.98,-0.14 -5.97,-0.09 -8.95,0.1 -18.35,1.23 -36.72,-1.06 -55.06,0.28 -16.33,0 -32.66,0.05 -48.99,-0.04 -11,-1.08 -22,0.3 -33.01,0.06 -11.34,0.01 -22.67,0.15 -33.99,-0.49 -12.32,0.5 -24.66,0.74 -36.99,0.33 -10.34,-0.94 -20.68,0.38 -31.02,0.16 -14,-0.06 -28,0.1 -41.99,-0.05 -8.66,-0.64 -17.35,-0.53 -26.01,0.03 -18.33,0.01 -36.66,0.08 -54.99,-0.05 -12.67,-1.11 -25.34,0.34 -38.01,0.07 -5.92,-0.04 -11.85,0.18 -17.76,-0.25 l 0.19,-0.31 c 5.18,-0.54 10.38,-0.21 15.57,-0.28 13,0.09 26,-0.14 39,0.06 16.33,0.78 32.66,-0.59 48.99,0.03 19.67,-0.17 39.34,-0.1 59.01,-0.09 8.66,0.44 17.34,0.43 26,0 25.67,0 51.33,-0.03 77,0 7.32,0.33 14.65,0.48 21.97,0.16 16.01,-0.77 32.03,0.72 48.03,-0.16 15.67,-0.05 31.33,0 47,-0.01 8.66,0.35 17.33,0.49 25.99,0.16 16,-0.73 32.01,0.63 48.01,-0.17 13.01,-0.29 26,0.6 39,0 9.67,-0.07 19.34,0.02 29.01,0.35 15.32,-0.62 30.66,-0.26 45.99,-0.34 10.67,-0.17 21.33,0.74 31.99,0.16 13.67,-0.67 27.35,0.46 41.01,-0.17 11.99,-0.02 23.97,0.04 35.96,0.01 C 669.1,173.93 628.07,123.9 587.43,73.56 z"
       id="path85"
       inkscape:connector-curvature="0"
       style="fill:#ffcc28" />
  </g>
  <g
     id="#ec3237ff"
     transform="matrix(0.18267491,0,0,0.18267491,-3.7229147,-11.697783)">
    <path
       d="m 30.24,224.69 c 5.91,0.43 11.84,0.21 17.76,0.25 12.67,0.27 25.34,-1.18 38.01,-0.07 18.33,0.13 36.66,0.06 54.99,0.05 8.66,-0.56 17.35,-0.67 26.01,-0.03 13.99,0.15 27.99,-0.01 41.99,0.05 10.34,0.22 20.68,-1.1 31.02,-0.16 12.33,0.41 24.67,0.17 36.99,-0.33 11.32,0.64 22.65,0.5 33.99,0.49 11.01,0.24 22.01,-1.14 33.01,-0.06 16.33,0.09 32.66,0.04 48.99,0.04 18.34,-1.34 36.71,0.95 55.06,-0.28 2.98,-0.19 5.97,-0.24 8.95,-0.1 12.66,0.87 25.35,0.27 38,-0.04 16.99,1.4 34.01,-0.68 50.99,0.45 13.67,-0.03 27.33,0.02 41,-0.01 18.31,-1.2 36.65,0.97 54.97,-0.38 11.67,0.48 23.37,0.61 35.04,0.06 11.21,0.56 22.45,0.23 33.67,0.3 15.6,19.39 31.52,38.53 47.08,57.96 -15.89,19.42 -31.56,39.01 -47.58,58.33 -16.72,-0.31 -33.45,-0.04 -50.18,-0.15 -8.66,0.45 -17.35,0.78 -26.01,0.11 -11.33,-0.25 -22.66,-0.04 -33.99,-0.11 -8.35,-0.24 -16.68,1.02 -25.01,0.06 C 556,340.99 537,341.1 518,341.06 c -11.01,0.11 -22.03,-0.33 -33.03,0.41 -8.66,0.4 -17.31,-0.54 -25.97,-0.41 -22.67,0.04 -45.33,-0.03 -68,0.02 -14.99,1.17 -29.99,-0.46 -45,-0.02 -11.01,-0.39 -22.01,0.8 -33,0 -11.68,-0.25 -23.34,0.26 -35.01,0.49 -21.65,-0.97 -43.33,-0.18 -64.99,-0.5 -9.33,0.46 -18.68,0.77 -28,0.04 -35,-0.02 -70,-0.07 -105,0 -7.66,0.81 -15.32,-0.22 -23,-0.03 -8.99,0.21 -18.02,-0.46 -26.99,0.43 -0.13,-2.17 -0.24,-4.34 -0.25,-6.51 0.07,-36.52 -0.03,-73.06 0.05,-109.57 l 0.43,-0.72 m 77.36,21.43 c -0.06,24.71 -0.03,49.42 -0.02,74.13 7.51,0.02 15.01,0.03 22.52,0 0.06,-9.99 -0.01,-19.98 0.03,-29.97 8.19,0 16.39,0 24.58,0 0.02,9.99 0,19.98 0,29.97 7.55,0.03 15.09,0.02 22.64,0 0.01,-24.7 0.03,-49.41 -0.01,-74.11 -7.55,-0.01 -15.09,-0.06 -22.63,0.01 0.02,8.64 0.01,17.28 -0.01,25.92 -8.19,0.09 -16.37,0.06 -24.56,0.02 -0.06,-8.64 0.02,-17.29 -0.05,-25.94 -7.5,-0.08 -14.99,0 -22.49,-0.03 m 104.71,0.05 c -9.02,24.71 -18.23,49.34 -27.3,74.03 7.66,0.13 15.33,0.06 23,0.04 1.12,-4.04 2.31,-8.06 3.44,-12.1 8.6,0.12 17.2,-0.51 25.8,-0.03 1.15,4.06 2.36,8.1 3.53,12.15 7.83,-0.01 15.65,0.04 23.48,-0.02 -8.94,-24.75 -18.26,-49.35 -27.28,-74.07 -8.22,-0.1 -16.45,-0.06 -24.67,0 m 59.44,-0.03 c -0.03,24.71 -0.04,49.41 0.01,74.12 7.03,0.01 14.06,0.01 21.1,0 0.1,-13.49 -0.2,-27 0.15,-40.49 9.13,13.44 18.17,26.93 27.15,40.46 7.09,0.08 14.18,0.02 21.27,0.03 0.01,-24.71 0.02,-49.42 0,-74.12 -7.08,-0.04 -14.15,-0.01 -21.22,0 -0.07,13.46 0.17,26.93 -0.12,40.4 -9.47,-13.2 -18.16,-26.95 -27.3,-40.38 -7.01,-0.07 -14.03,-0.03 -21.04,-0.02 m 84.68,0.02 c 0.06,10.95 0,21.9 0.02,32.86 0.08,7.07 -0.52,14.27 1.37,21.18 1.55,7.24 6.41,13.6 12.79,17.3 6.18,3.47 13.49,3.62 20.38,4.01 8.63,0.19 18.14,-0.68 24.93,-6.59 7.07,-5.74 10.4,-14.97 10.43,-23.89 0.03,-14.96 -0.02,-29.93 0.02,-44.89 -7.49,-0.04 -14.99,-0.03 -22.48,0.01 -0.06,15.31 0.05,30.62 -0.04,45.94 0.08,4.56 -2.26,9.41 -6.68,11.15 -5.08,1.93 -11.8,1.47 -15.45,-2.96 -2.67,-3.11 -2.8,-7.41 -2.83,-11.29 0.02,-14.28 0.02,-28.57 0,-42.86 -7.49,-0.01 -14.98,-0.02 -22.46,0.03 m 85.17,-0.03 c 0,24.71 -0.02,49.41 0.01,74.12 7.52,0.02 15.05,0.02 22.58,0.01 0.04,-10.07 -0.03,-20.13 0.03,-30.19 3.57,-0.01 7.72,0.66 9.58,4.12 5.06,8.48 9.31,17.43 14.1,26.07 8.41,-0.05 16.82,0.13 25.23,-0.1 -3.06,-6.59 -6.55,-12.99 -9.75,-19.52 -2.75,-5.59 -6.86,-10.76 -12.76,-13.19 6.89,-1.68 13.3,-6.32 15.61,-13.24 2.27,-7.43 1.37,-16.47 -4.37,-22.15 -4.86,-4.98 -12.27,-5.57 -18.82,-5.86 -13.81,-0.16 -27.63,-0.04 -41.44,-0.07 m 98.9,0.04 c -8.9,24.74 -18.39,49.28 -27.16,74.05 7.61,0.1 15.23,0.03 22.85,0.03 1.14,-4.11 2.35,-8.21 3.54,-12.3 8.59,0.27 17.19,-0.23 25.78,0.21 1.09,4.04 2.32,8.04 3.45,12.07 7.85,0.06 15.7,0.04 23.56,0.02 -9.06,-24.72 -18.27,-49.38 -27.35,-74.09 -8.23,-0.05 -16.45,-0.06 -24.67,0.01 z"
       id="path88"
       inkscape:connector-curvature="0"
       style="fill:#ec3237" />
    <path
       d="m 464.19,261.13 c 5.27,0.14 10.64,-0.53 15.84,0.59 5.91,1.26 6.37,10.74 0.95,12.99 -5.38,1.95 -11.21,1.41 -16.81,1.41 0.05,-4.99 0.03,-9.99 0.02,-14.99 z"
       id="path90"
       inkscape:connector-curvature="0"
       style="fill:#ec3237" />
    <path
       d="m 216.45,291.89 c 2.65,-8.77 5.06,-17.62 8.04,-26.29 2.68,8.83 5.44,17.64 7.97,26.52 -5.34,0.01 -10.68,-0.31 -16.01,-0.23 z"
       id="path92"
       inkscape:connector-curvature="0"
       style="fill:#ec3237" />
    <path
       d="m 544.75,292.06 c 2.37,-8.86 4.97,-17.67 7.94,-26.35 2.76,8.69 5.29,17.46 7.98,26.18 -5.31,0.02 -10.62,-0.06 -15.92,0.17 z"
       id="path94"
       inkscape:connector-curvature="0"
       style="fill:#ec3237" />
  </g>
</svg>
