<?xml version="1.0" encoding="UTF-8" standalone="no"?>
<svg
   xmlns:dc="http://purl.org/dc/elements/1.1/"
   xmlns:cc="http://creativecommons.org/ns#"
   xmlns:rdf="http://www.w3.org/1999/02/22-rdf-syntax-ns#"
   xmlns:svg="http://www.w3.org/2000/svg"
   xmlns="http://www.w3.org/2000/svg"
   xmlns:sodipodi="http://sodipodi.sourceforge.net/DTD/sodipodi-0.dtd"
   xmlns:inkscape="http://www.inkscape.org/namespaces/inkscape"
   width="100.00001"
   height="100.00001"
   viewBox="0 0 80.000006 80.000006"
   version="1.1"
   id="svg2"
   inkscape:version="0.48.2 r9819"
   sodipodi:docname="ppp.svg">
  <metadata
     id="metadata129">
    <rdf:RDF>
      <cc:Work
         rdf:about="">
        <dc:format>image/svg+xml</dc:format>
        <dc:type
           rdf:resource="http://purl.org/dc/dcmitype/StillImage" />
      </cc:Work>
    </rdf:RDF>
  </metadata>
  <defs
     id="defs127" />
  <sodipodi:namedview
     pagecolor="#ffffff"
     bordercolor="#666666"
     borderopacity="1"
     objecttolerance="10"
     gridtolerance="10"
     guidetolerance="10"
     inkscape:pageopacity="0"
     inkscape:pageshadow="2"
     inkscape:window-width="1920"
     inkscape:window-height="1017"
     id="namedview125"
     showgrid="false"
     fit-margin-top="0"
     fit-margin-left="0"
     fit-margin-right="0"
     fit-margin-bottom="0"
     inkscape:zoom="7.0769231"
     inkscape:cx="57"
     inkscape:cy="46.5"
     inkscape:window-x="-8"
     inkscape:window-y="-8"
     inkscape:window-maximized="1"
     inkscape:current-layer="svg2" />
  <g
     id="#fdb318ff"
     transform="scale(0.07054674,0.07054674)">
    <path
       d="m 0,0 1134,0 0,1134 L 0,1134 0,0 m 40,32.99 c 0,356.67 0,713.35 0,1070.02 243.34,0.01 486.68,0.01 730.02,0.01 110.29,0.08 220.59,-0.17 330.88,0.13 0.23,-14.69 0.04,-29.39 0.1,-44.08 0,-224.7 0,-449.4 0,-674.1 -0.07,-117.37 0.14,-234.75 -0.1,-352.12 -47.98,0.31 -95.97,0.04 -143.96,0.13 -305.64,0 -611.29,0 -916.94,0.01 z"
       id="path5"
       inkscape:connector-curvature="0"
       style="fill:#fdb318" />
    <path
       d="m 360.65,298.38 c 9.13,-0.24 18.21,0.93 27.32,1.2 159.68,9.21 319.37,18.28 479.04,27.49 2.95,0.31 5.94,0.52 8.92,0.19 -0.11,15.88 -0.09,31.77 -0.01,47.66 -7.59,1.4 -15.27,-0.45 -22.9,-0.37 -163.04,-7.66 -326.08,-15.76 -489.14,-23.35 -4.11,-0.86 -6.6,3 -9.37,5.28 -27.79,24.54 -55.54,49.11 -82.98,74.03 -4.78,4.41 -9.75,8.61 -14.3,13.25 -0.34,-18.24 -0.12,-36.49 -0.12,-54.73 13.9,-11.63 27.33,-23.81 41.03,-35.67 17.27,-15.14 34.63,-30.19 51.88,-45.37 3.49,-3.26 7.35,-6.12 10.63,-9.61 z"
       id="path7"
       inkscape:connector-curvature="0"
       style="fill:#fdb318" />
    <path
       d="m 639.08,403.92 c 3.89,-1.05 7.97,-0.5 11.95,-0.54 16.66,0.13 33.27,1.32 49.94,1.4 10.66,0.98 21.39,0.65 32.08,1.06 11.6,1.19 23.31,0.26 34.92,1.43 18.86,0.23 37.68,1.45 56.54,1.55 4.81,0.57 9.95,0.05 14.39,2.35 6.25,3.11 11.24,9.64 10.89,16.86 0.49,8.76 -6.38,16.75 -14.74,18.68 -7.91,1.65 -16.05,-0.08 -24.05,-0.02 -8.01,-0.38 -16.06,-0.03 -24.05,-0.82 -48.03,-1.35 -96.03,-3.14 -144.05,-4.61 -6.47,-0.71 -12.74,-4.51 -15.69,-10.42 -2.41,-4.21 -2.29,-9.33 -1.46,-13.94 1.94,-6.17 7.15,-11.14 13.33,-12.98 z"
       id="path9"
       inkscape:connector-curvature="0"
       style="fill:#fdb318" />
    <path
       d="m 429.05,426.76 c 8.84,0.53 17.37,-6.9 17.93,-15.77 0.73,8.42 7.89,14.89 15.98,16.3 1.34,-0.01 2.7,-0.01 4.06,0 7.12,-0.92 14.04,-5.82 15.63,-13.09 0.42,0.05 1.24,0.14 1.66,0.19 1.11,5.87 6.2,10.39 11.67,12.3 9.07,3.27 20.6,-2.07 22.98,-11.64 0.49,0.14 1.47,0.43 1.96,0.58 3.22,9.01 14.03,14.21 23.07,11.09 5.64,-1.77 9.98,-6.42 11.99,-11.91 2.29,2.5 3.26,5.99 6.01,8.12 7.53,6.95 20.94,6.04 26.84,-2.56 0.37,0.06 1.1,0.2 1.47,0.27 0.12,5.44 -0.47,10.86 -0.55,16.3 -0.08,71.54 -0.39,143.08 -0.29,214.62 -6.33,0.56 -12.87,-0.85 -19.04,0.75 0.48,33.72 0.09,67.47 0.2,101.2 -6.09,-0.04 -12.18,-0.03 -18.27,-0.03 0,-34.94 0.05,-69.87 -0.02,-104.81 -1.64,-0.05 -3.27,-0.08 -4.89,-0.1 -0.07,34.94 -0.1,69.88 0.01,104.82 -30.37,0.2 -60.75,0.01 -91.12,0.1 0.17,-34.67 -0.23,-69.34 0.2,-104.01 -1.45,-0.94 -3.18,-1.04 -4.83,-1.21 -0.23,0.66 -0.69,1.98 -0.92,2.64 1.12,7.62 0.12,15.37 0.27,23.05 0.3,7 0.45,14.05 -0.08,21.04 0.54,4.97 0.36,10 0.1,14.99 0.02,1.33 0,2.66 -0.04,4.01 0.21,1.97 0.22,3.97 0.08,5.97 0.01,1.35 0,2.7 -0.03,4.06 0.19,2.31 0.23,4.64 -0.14,6.95 0.21,1.66 0.32,3.34 0.07,5.02 0.19,5.84 0.89,11.86 -0.43,17.6 -4.39,-0.2 -8.78,-0.14 -13.16,-0.07 -0.1,-33.39 -0.26,-66.79 0.07,-100.17 -2.44,-0.91 -4.99,-0.14 -7.49,-0.12 -6.57,0.09 -13.14,-0.16 -19.7,0.14 0.54,-23.77 0.1,-47.55 0.24,-71.32 0.02,-55.14 -0.02,-110.3 0.06,-165.43 0.1,-1.06 0.25,-2.11 0.42,-3.15 2.09,7.87 9.83,13.8 18.03,13.28 m 108.67,207.01 c -0.1,3.84 -0.1,7.69 -0.15,11.54 0.46,0.27 1.38,0.81 1.84,1.08 0.81,-0.02 2.43,-0.07 3.24,-0.09 1.28,-4.04 0.31,-8.38 0.51,-12.53 -1.82,-0.01 -3.63,-0.01 -5.44,0 m 7.56,0.73 c 0.77,0.31 1.55,0.63 2.35,0.94 -0.05,3.6 -0.09,7.2 0.07,10.81 1.83,-0.02 3.67,-0.04 5.52,-0.05 0.09,-4.16 0.1,-8.32 0.02,-12.47 -2.67,-0.01 -5.34,0.24 -7.96,0.77 m 33.36,-0.77 c 0.03,4.07 -0.44,8.18 0.15,12.22 0.39,0.18 1.15,0.55 1.53,0.73 0.75,-0.22 2.23,-0.65 2.98,-0.87 1.32,-3.84 0.33,-8.13 0.21,-12.13 -1.64,0.01 -3.26,0.03 -4.87,0.05 m -163.14,12.8 c 1.65,-0.26 3.55,0.04 4.87,-1.24 0.02,-3.58 -0.16,-7.17 0.07,-10.75 -1.62,-0.43 -3.27,-0.79 -4.9,-1.08 -0.3,4.35 -0.29,8.71 -0.04,13.07 m 10.35,-12.65 c -0.89,4.08 -0.19,8.39 -0.32,12.56 1.73,-0.09 3.49,-0.2 5.14,-0.83 -0.29,-3.72 -0.29,-7.45 -0.05,-11.16 -1.55,-0.4 -3.16,-1.15 -4.77,-0.57 m 9.66,-0.23 c -0.19,4.22 -0.19,8.45 -0.06,12.68 1.64,-0.02 3.29,-0.02 4.95,-0.03 0.01,-3.84 0.2,-7.69 0.02,-11.53 -1.07,-1.74 -3.27,-0.87 -4.91,-1.12 m 9.97,0.81 c 0.15,3.92 0.09,7.85 0.13,11.78 1.63,0.05 3.26,0.11 4.89,0.18 0.33,-4.32 0.32,-8.66 -0.03,-12.96 -1.69,0.25 -3.35,0.59 -4.99,1 m 10.91,11.29 c 1.28,0.96 4.14,1.23 4.86,-0.66 0.15,-3.46 -0.07,-6.93 0.13,-10.4 -1.43,-0.72 -2.96,-1.25 -4.58,-0.97 -1.13,3.84 -0.4,8.05 -0.41,12.03 m 10.1,-11.99 c -0.16,4.02 -0.14,8.05 -0.14,12.09 1.73,-0.05 3.46,-0.12 5.2,-0.18 -0.11,-3.99 -0.11,-7.97 -0.17,-11.96 -1.63,0.01 -3.26,0.02 -4.89,0.05 m 9.94,0.24 c 0.09,4.14 0.01,8.29 0.16,12.43 1.63,-0.25 3.67,0.4 4.9,-1.06 0.04,-3.63 -0.13,-7.27 0.11,-10.89 -1.68,-0.64 -3.42,-0.79 -5.17,-0.48 m 10.98,-0.41 c -0.35,3.98 -0.6,7.97 -1.05,11.95 1.61,0.83 3.45,0.79 5.24,0.9 0.05,-4.22 0.12,-8.44 -0.08,-12.66 -1.03,-0.04 -3.08,-0.14 -4.11,-0.19 m 9.2,1.01 c 0.19,3.47 -0.03,6.95 0.14,10.43 1.07,2.39 3.92,1.11 5.69,0.37 -0.23,-3.61 -0.22,-7.23 -0.02,-10.84 -1.87,-1.01 -3.96,-0.99 -5.81,0.04 m 10.78,-0.07 c -1.31,1.17 -0.06,3.02 -0.15,4.47 0.24,2.02 -0.43,4.01 -0.46,6.03 1.01,1.61 3.02,1.26 4.64,1.6 1.41,-3.71 0.83,-7.77 0.72,-11.63 -0.74,-2.05 -3.41,-1.62 -4.75,-0.47 m 51.1,11.97 c 1.7,-0.15 3.41,-0.39 5.09,-0.77 -0.29,-3.65 -0.09,-7.3 -0.2,-10.95 -1.06,-1.6 -3.27,-0.9 -4.83,-1.2 -0.25,4.3 -0.3,8.61 -0.06,12.92 m -41.14,-12.21 c 0,4.02 0.01,8.04 0.14,12.06 1.62,-0.02 3.25,-0.04 4.88,-0.05 0.05,-4.04 0.02,-8.08 0.06,-12.11 -1.7,0.01 -3.39,0.04 -5.08,0.1 m 10.14,0.03 c 0.06,3.98 0.02,7.96 0.13,11.94 1.63,0.03 3.27,0.06 4.91,0.1 0.07,-4.07 0.07,-8.14 0.06,-12.2 -1.7,0.03 -3.4,0.09 -5.1,0.16 m 40.94,-0.01 c 0.09,4.03 0.03,8.07 0.14,12.1 1.69,-0.07 3.42,-0.14 5.04,-0.74 -0.26,-3.81 -0.21,-7.64 -0.13,-11.45 -1.69,0 -3.37,0.03 -5.05,0.09 m -33.94,14.04 c 0.02,31.75 0,63.49 0.02,95.24 -9.62,-0.11 -19.25,0.12 -28.86,-0.13 0.12,-9.57 -0.09,-19.13 0.09,-28.69 1.8,-1.96 4.76,-2.46 6.4,-4.67 4.57,-4.44 5.04,-11.22 4.2,-17.17 -0.7,-1.5 -1.36,-3 -1.99,-4.51 -2.38,-3 -5.2,-5.69 -8.76,-7.22 0.14,-10.91 0.16,-21.82 0.01,-32.73 -1.02,0 -3.04,-0.02 -4.05,-0.03 -1.06,2.44 -0.25,5.03 -0.28,7.58 -1.21,8.37 0.46,16.76 0.09,25.18 -2.57,0.96 -5.13,2.12 -6.98,4.22 -8.6,7.83 -6.03,25.52 5.99,28.38 0.96,1.59 1.02,3.41 0.44,5.17 0.17,3.97 -0.17,7.97 0.28,11.94 0.56,3.78 -0.72,7.56 0.14,11.34 -0.2,0.32 -0.6,0.98 -0.79,1.31 -9.59,0.03 -19.18,0.03 -28.77,-0.04 -0.06,-31.75 0.3,-63.52 -0.16,-95.26 -1.71,0.2 -3.38,0.61 -5,1.17 0.38,32.62 0.07,65.25 0.16,97.87 0.28,0.25 0.84,0.77 1.12,1.02 23.52,0.06 47.04,-0.03 70.56,0.06 0.26,-0.25 0.8,-0.75 1.07,-1 -0.01,-32.94 -0.06,-65.89 0.03,-98.83 -1.66,-0.1 -3.31,-0.16 -4.96,-0.2 z"
       id="path11"
       inkscape:connector-curvature="0"
       style="fill:#fdb318" />
    <path
       d="m 344.02,682.03 c 5.76,-5.88 12.12,-11.15 18.99,-15.69 8.03,5.75 15.41,12.96 19.22,22.25 3.51,8.06 3.03,17.57 -0.41,25.57 -4.44,9.18 -10.5,17.71 -18.45,24.17 -0.97,0.81 -2.16,-0.26 -3,-0.72 -7.92,-5.35 -15.11,-12.33 -18.66,-21.38 -3.38,-7.55 -4.18,-16.03 -3.21,-24.18 0.83,-3.78 2.81,-7.27 5.52,-10.02 m 4.06,19.98 c -3.85,4.39 -1.15,10.97 2.18,14.86 2.02,2.87 5.5,3.79 8.76,4.42 7.67,-0.86 14.94,-5.86 17.5,-13.28 -2.48,-7.21 -9.58,-13.22 -17.47,-12.66 -4.75,-0.49 -8.31,3.25 -10.97,6.66 z"
       id="path13"
       inkscape:connector-curvature="0"
       style="fill:#fdb318" />
    <path
       d="m 257.31,741.04 c 15.54,10.49 31.67,20.04 47.46,30.12 17.91,11.11 35.77,22.31 53.62,33.51 1.12,0.6 2.21,1.48 3.56,1.43 19.62,0.18 39.24,-0.08 58.85,0.33 -5.03,12.77 -9.19,25.91 -13.69,38.89 -0.56,1.77 -2.7,1.11 -4.09,1.35 -13.37,0.02 -26.74,-0.02 -40.1,-0.06 -1.79,0.09 -3.5,-0.44 -4.95,-1.44 -32.51,-20.86 -65.01,-41.74 -97.57,-62.52 -1.24,-0.98 -3.5,-1.56 -3.28,-3.53 0.04,-12.69 -0.3,-25.4 0.19,-38.08 z"
       id="path15"
       inkscape:connector-curvature="0"
       style="fill:#fdb318" />
    <path
       d="m 437.36,757.48 c 44.13,0.08 88.27,0.17 132.4,-0.05 0.45,2.53 1.54,5.87 -0.46,7.96 -43.98,0.04 -87.97,-0.14 -131.95,0.08 -0.11,-2.67 -0.09,-5.33 0.01,-7.99 z"
       id="path17"
       inkscape:connector-curvature="0"
       style="fill:#fdb318" />
    <path
       d="m 437.37,768.6 c 43.96,0.21 87.93,0.01 131.89,0.09 2.03,1.86 0.67,5.32 1.11,7.82 -9.79,0.44 -19.6,-0.24 -29.38,0.36 -34.56,-0.52 -69.15,-0.1 -103.73,-0.2 -0.01,-2.7 0,-5.39 0.11,-8.07 z"
       id="path19"
       inkscape:connector-curvature="0"
       style="fill:#fdb318" />
    <path
       d="m 437.78,779.41 c 8.84,-0.09 17.68,-0.2 26.51,0.07 -0.02,4.92 -0.02,9.85 -0.04,14.78 -10.27,0.08 -20.53,-0.06 -30.78,0.06 1.3,-5.02 3.62,-9.75 4.31,-14.91 z"
       id="path21"
       inkscape:connector-curvature="0"
       style="fill:#fdb318" />
    <path
       d="m 467.7,779.49 c 23.89,-0.29 47.81,-0.2 71.72,-0.04 -0.14,4.71 0.13,9.42 -0.08,14.13 -1.13,1.23 -2.9,0.61 -4.34,0.76 -21.76,-0.09 -43.52,-0.11 -65.27,0.02 -0.51,-0.26 -1.53,-0.77 -2.03,-1.03 0.31,-4.61 0.2,-9.23 0,-13.84 z"
       id="path23"
       inkscape:connector-curvature="0"
       style="fill:#fdb318" />
    <path
       d="m 543.34,779.33 c 8.94,0.14 17.91,-0.29 26.84,0.24 0.15,1.78 0.35,3.61 0.92,5.34 1.14,3.06 2.27,6.17 2.67,9.44 -10.11,-0.09 -20.21,-0.1 -30.31,0.01 -0.29,-5.01 -0.14,-10.02 -0.12,-15.03 z"
       id="path25"
       inkscape:connector-curvature="0"
       style="fill:#fdb318" />
    <path
       d="m 432.29,798.37 c 4.02,-0.32 8.06,-0.11 12.09,0.03 -0.05,4.39 -0.06,8.79 -0.03,13.2 -5.31,0.17 -10.62,0.16 -15.93,-0.01 1.35,-4.39 2.34,-8.9 3.87,-13.22 z"
       id="path27"
       inkscape:connector-curvature="0"
       style="fill:#fdb318" />
    <path
       d="m 448.32,798.25 c 17.37,0.08 34.75,-0.1 52.13,0.09 -0.05,4.42 -0.07,8.85 0.01,13.27 -17.38,0.18 -34.76,0.07 -52.14,0.06 0.12,-4.48 0.12,-8.95 0,-13.42 z"
       id="path29"
       inkscape:connector-curvature="0"
       style="fill:#fdb318" />
    <path
       d="m 506.67,798.51 c 9.1,-0.54 18.23,-0.11 27.34,-0.25 8.43,0.13 16.88,-0.26 25.3,0.22 -0.11,4.35 -0.13,8.71 0.02,13.07 -17.54,0.22 -35.1,0.29 -52.64,-0.03 0.1,-4.34 0.12,-8.68 -0.02,-13.01 z"
       id="path31"
       inkscape:connector-curvature="0"
       style="fill:#fdb318" />
    <path
       d="m 562.67,798.4 c 4.28,-0.19 8.57,-0.13 12.85,-0.14 1.25,4.4 2.57,8.81 3.14,13.38 -5.32,0.07 -10.64,0.16 -15.95,-0.07 0.06,-4.4 0.09,-8.79 -0.04,-13.17 z"
       id="path33"
       inkscape:connector-curvature="0"
       style="fill:#fdb318" />
    <path
       d="m 585.15,806.42 c 16.26,-0.62 32.57,-0.14 48.85,-0.29 80.62,0.02 161.24,-0.05 241.86,0.03 -0.09,13.42 0.2,26.83 -0.15,40.24 -91.72,-0.05 -183.45,-0.06 -275.18,0.01 -0.92,-1.32 -1.87,-2.62 -2.5,-4.09 -4.45,-11.91 -8.24,-24.06 -12.88,-35.9 z"
       id="path35"
       inkscape:connector-curvature="0"
       style="fill:#fdb318" />
    <path
       d="m 426.97,815.67 c 12.55,-0.49 25.13,-0.04 37.69,-0.24 0.1,4.29 0.22,8.58 -0.13,12.87 -13.4,-0.06 -26.79,-0.15 -40.18,0.03 0.04,-4.37 2.35,-8.31 2.62,-12.66 z"
       id="path37"
       inkscape:connector-curvature="0"
       style="fill:#fdb318" />
    <path
       d="m 469.3,815.49 c 23.03,0.01 46.06,-0.15 69.08,0.09 -0.04,3.92 -0.05,7.85 -0.01,11.78 -0.54,0.22 -1.63,0.68 -2.17,0.9 -19.43,-0.04 -38.86,-0.01 -58.29,-0.01 -2.88,0 -5.74,-0.33 -8.6,-0.54 0,-4.08 -0.02,-8.15 -0.01,-12.22 z"
       id="path39"
       inkscape:connector-curvature="0"
       style="fill:#fdb318" />
    <path
       d="m 542.34,827.83 c 0.04,-4.12 0.01,-8.23 0.06,-12.34 12.59,0.03 25.19,-0.15 37.78,0.09 0.92,4.06 1.44,8.31 3.65,11.93 -4.46,1.38 -9.19,0.48 -13.77,0.73 -9.24,-0.22 -18.52,0.48 -27.72,-0.41 z"
       id="path41"
       inkscape:connector-curvature="0"
       style="fill:#fdb318" />
    <path
       d="m 432.55,832.4 c 12.97,-0.03 25.94,-0.11 38.91,0.04 -0.04,4.4 -0.05,8.8 0.03,13.21 -13,0.12 -26,0.13 -39,0.02 0.12,-4.42 0.11,-8.85 0.06,-13.27 z"
       id="path43"
       inkscape:connector-curvature="0"
       style="fill:#fdb318" />
    <path
       d="m 477.72,832.52 c 17.22,-0.3 34.46,-0.17 51.68,-0.06 -0.03,4.35 -0.03,8.72 0.02,13.09 -10.83,0.38 -21.67,0.1 -32.5,0.19 -6.42,-0.15 -12.84,0.3 -19.24,-0.28 0.07,-4.32 0.07,-8.63 0.04,-12.94 z"
       id="path45"
       inkscape:connector-curvature="0"
       style="fill:#fdb318" />
    <path
       d="m 535.69,832.51 c 12.94,-0.31 25.88,-0.1 38.83,-0.11 -0.04,4.4 -0.05,8.81 0.04,13.23 -12.95,0.15 -25.92,0.21 -38.87,-0.05 0.04,-4.36 0.06,-8.72 0,-13.07 z"
       id="path47"
       inkscape:connector-curvature="0"
       style="fill:#fdb318" />
    <path
       d="m 578.71,832.52 c 2.48,-0.15 4.98,-0.18 7.47,-0.08 2.04,4.4 4.76,8.55 5.93,13.32 -4.47,-0.03 -8.95,0.06 -13.41,-0.23 0.04,-4.34 0.04,-8.68 0.01,-13.01 z"
       id="path49"
       inkscape:connector-curvature="0"
       style="fill:#fdb318" />
    <path
       d="m 421.93,832.54 c 1.91,-0.13 3.82,-0.23 5.75,-0.3 -0.12,4.32 0.62,8.61 0.55,12.93 -3.15,1.17 -6.69,0.35 -9.99,0.46 1.35,-4.33 2.7,-8.67 3.69,-13.09 z"
       id="path51"
       inkscape:connector-curvature="0"
       style="fill:#fdb318" />
    <path
       d="m 550.03,851 c 10.93,-0.76 22,-0.06 32.99,-0.23 4.06,-0.15 8.1,0.42 12.13,0.94 0.62,2.04 1.27,4.08 2.07,6.09 0.74,1.98 1.35,4.01 1.74,6.11 -15.35,0.8 -30.76,0.13 -46.14,0.36 -0.58,-0.22 -1.73,-0.66 -2.31,-0.87 0.52,-4.15 -1.18,-8.49 -0.48,-12.4 z"
       id="path53"
       inkscape:connector-curvature="0"
       style="fill:#fdb318" />
    <path
       d="m 416.77,850.72 c 11.16,-0.12 22.33,0.09 33.49,-0.14 0.5,0.31 1.5,0.93 2,1.25 -0.02,3.91 0.02,7.82 0.12,11.74 -13.1,0.37 -26.2,-0.09 -39.3,0.2 0.97,-4.43 2.54,-8.69 3.69,-13.05 z"
       id="path55"
       inkscape:connector-curvature="0"
       style="fill:#fdb318" />
    <path
       d="m 456.61,863.55 c -0.01,-4.31 -0.11,-8.61 -0.07,-12.9 14.99,0.2 30.03,-0.46 44.98,0.38 -0.13,4.21 -0.11,8.41 -0.07,12.63 -14.95,0.09 -29.9,0.23 -44.84,-0.11 z"
       id="path57"
       inkscape:connector-curvature="0"
       style="fill:#fdb318" />
    <path
       d="m 506.31,863.59 c 0.01,-4.33 -0.06,-8.66 0.11,-12.98 11.53,0.15 23.07,0.03 34.6,0.04 1.42,0.14 3.55,-0.44 4.25,1.3 0.35,3.89 0.22,7.82 0.51,11.73 -5.86,1.07 -11.88,0.53 -17.8,0.34 -4.64,0.28 -9.33,0.19 -13.96,-0.17 -1.71,-0.08 -3.41,-0.01 -5.09,0.25 -0.66,-0.13 -1.97,-0.38 -2.62,-0.51 z"
       id="path59"
       inkscape:connector-curvature="0"
       style="fill:#fdb318" />
    <path
       d="m 257.38,925.48 c 2.13,-0.51 4.3,-1.01 6.52,-0.99 25.05,0.04 50.1,0.01 75.15,0.02 21,0.12 42.13,-0.79 62.98,2.32 13.56,2.04 27.34,4.94 39.39,11.77 6.68,3.9 13.3,10.08 13.54,18.35 0.96,8.24 -4.19,15.8 -10.7,20.33 -11.19,8.19 -25.34,10.21 -38.65,12.58 -20.28,3.54 -40.92,2.76 -61.4,2.97 0.28,7.54 -0.52,15.16 0.47,22.64 4.34,3.92 10.98,2.24 15.85,5.02 2,1.27 1.58,4.14 0.93,6.08 -2.39,1.73 -5.68,0.99 -8.45,1.39 -27.67,0.11 -55.33,-0.04 -82.99,0.05 -3.9,-0.02 -8.05,0.37 -11.58,-1.6 -0.34,-2.24 -0.29,-4.5 0.17,-6.7 4.3,-1 8.7,-1.43 13.05,-2.11 2.15,-3.14 1.21,-7.07 1.35,-10.61 -0.03,-21.66 -0.05,-43.31 0.02,-64.96 -0.02,-1.85 -0.21,-3.67 -0.42,-5.48 -4.87,-1.96 -10.13,-2.53 -15.08,-4.25 -0.15,-2.28 -0.18,-4.55 -0.15,-6.82 m 86.8,6.33 c 0.09,17.8 0.07,35.61 0.01,53.41 7.8,-0.15 15.88,0.81 23.41,-1.71 3.75,-1.2 7.51,-4.15 7.5,-8.44 0.35,-9.02 0.02,-18.05 0.17,-27.08 -0.04,-3.07 0.24,-6.26 -0.84,-9.18 -1.52,-2.9 -4.51,-4.65 -7.57,-5.48 -7.37,-2.11 -15.12,-1.51 -22.68,-1.52 z"
       id="path61"
       inkscape:connector-curvature="0"
       style="fill:#fdb318" />
    <path
       d="m 469.37,925.49 c 2.47,-0.63 5,-1.07 7.57,-0.99 32.69,0.02 65.39,0 98.08,0.01 16.04,-0.19 32.14,0.87 47.93,3.8 12.1,2.45 24.53,5.68 34.64,13.09 5.35,3.75 9.51,9.81 9.44,16.54 0.54,7.66 -4.32,14.5 -10.16,18.96 -9.76,7.45 -22.13,9.71 -33.87,12.09 -21.95,4.15 -44.39,4.03 -66.63,3.63 -0.2,7.67 -0.29,15.35 0.1,23.02 4.99,3.89 12.19,1.81 17.1,5.65 0.49,1.8 0.8,4.22 -0.55,5.74 -6.2,1.52 -12.68,0.77 -19,0.98 -27.26,-0.24 -54.55,0.39 -81.79,-0.31 -2.39,-1.88 -2.66,-5.19 -1.44,-7.82 4.1,-1.6 8.65,-1.36 12.93,-2.29 0.79,-1.4 1.5,-2.89 1.31,-4.53 -0.06,-18.69 -0.02,-37.38 -0.03,-56.07 -0.19,-6.79 0.44,-13.61 -0.42,-20.35 -4.85,-2.12 -10.19,-2.59 -15.14,-4.39 -0.1,-2.26 -0.09,-4.52 -0.07,-6.76 m 87.07,59.91 c 7.9,-0.48 16.16,0.73 23.74,-2.15 3.66,-1.05 6.85,-4.24 6.93,-8.19 0.33,-10.38 0.03,-20.76 0.18,-31.14 0.17,-3.69 -1.51,-7.63 -4.98,-9.26 -8.06,-3.93 -17.25,-2.57 -25.9,-3.01 -0.29,17.9 -0.34,35.84 0.03,53.75 z"
       id="path63"
       inkscape:connector-curvature="0"
       style="fill:#fdb318" />
    <path
       d="m 680.33,925.5 c 5.11,-1.47 10.46,-0.92 15.7,-0.99 29.66,-0.01 59.31,0 88.96,0 19.69,-0.18 39.55,1.11 58.7,5.97 9.41,2.57 18.97,5.86 26.55,12.24 4.9,3.85 8.16,9.98 7.78,16.31 0.11,7.26 -4.57,13.59 -10.13,17.81 -9.53,7.26 -21.56,9.83 -33.11,11.97 -22.2,4.37 -44.94,4.19 -67.46,3.82 -0.1,6.13 -0.08,12.26 -0.08,18.4 0.09,1.62 -0.07,3.41 0.74,4.91 4.86,3.28 11.25,1.96 16.26,4.8 1.03,1.96 1.21,4.54 -0.29,6.33 -3.57,0.94 -7.31,0.87 -10.97,0.93 -28,0.01 -55.99,-0.07 -83.98,0.03 -2.63,0.09 -5.21,-0.47 -7.55,-1.64 -0.37,-2.24 -0.25,-4.5 0.17,-6.71 4.26,-0.88 8.6,-1.34 12.88,-2.11 0.36,-0.43 1.08,-1.29 1.43,-1.72 0.12,-25.67 0.1,-51.34 0.02,-77 0.24,-2.35 -2.35,-2.96 -4.03,-3.58 -3.76,-1.42 -8.2,-1.05 -11.51,-3.55 -0.33,-2.07 -0.13,-4.16 -0.08,-6.22 m 87.09,59.85 c 7.92,-0.38 16.14,0.72 23.75,-2.06 3.57,-1.2 6.96,-4.23 6.95,-8.26 0.31,-10.33 0.06,-20.68 0.12,-31.01 0.2,-3.57 -1.17,-7.29 -4.45,-9.05 -8.09,-4.28 -17.57,-2.92 -26.37,-3.27 -0.29,17.87 -0.29,35.77 0,53.65 z"
       id="path65"
       inkscape:connector-curvature="0"
       style="fill:#fdb318" />
  </g>
  <g
     id="#096309ff"
     transform="scale(0.07054674,0.07054674)">
    <path
       d="m 40,32.99 c 305.65,-0.01 611.3,-0.01 916.94,-0.01 47.99,-0.09 95.98,0.18 143.96,-0.13 0.24,117.37 0.03,234.75 0.1,352.12 0,224.7 0,449.4 0,674.1 -0.06,14.69 0.13,29.39 -0.1,44.08 -110.29,-0.3 -220.59,-0.05 -330.88,-0.13 -243.34,0 -486.68,0 -730.02,-0.01 0,-356.67 0,-713.35 0,-1070.02 m 309.35,95.29 c -23.42,30.28 -46.54,60.81 -70.05,91.03 -6.15,7.56 -11.57,15.68 -17.84,23.15 -1.98,2.62 -4.1,5.16 -5.92,7.89 -0.9,3.12 -0.42,6.46 -0.54,9.67 0.01,180.67 0.01,361.34 -0.01,542.01 0.21,1.53 -0.26,3.66 1.39,4.54 7.82,5.46 15.7,10.83 23.37,16.5 12.27,8.04 24.03,16.85 36.25,24.96 13.77,9.5 27.21,19.57 41.28,28.59 122.57,0.1 245.16,-0.1 367.74,0.12 51.29,-0.16 102.58,0.46 153.87,0.18 0.23,-30.3 0,-60.6 0.1,-90.91 0,-139.02 0.02,-278.05 -0.01,-417.07 -0.2,-16.64 0.53,-33.31 -0.54,-49.93 -0.05,-50.29 0.11,-100.6 -0.08,-150.89 -80.48,-6.24 -160.89,-13.29 -241.35,-19.75 -73.69,-5.84 -147.33,-12.27 -221.08,-17.31 -20.33,-1.41 -40.63,-3.22 -60.99,-4.13 -1.88,0.03 -4.29,-0.37 -5.59,1.35 m -91.97,797.2 c -0.03,2.27 0,4.54 0.15,6.82 4.95,1.72 10.21,2.29 15.08,4.25 0.21,1.81 0.4,3.63 0.42,5.48 -0.07,21.65 -0.05,43.3 -0.02,64.96 -0.14,3.54 0.8,7.47 -1.35,10.61 -4.35,0.68 -8.75,1.11 -13.05,2.11 -0.46,2.2 -0.51,4.46 -0.17,6.7 3.53,1.97 7.68,1.58 11.58,1.6 27.66,-0.09 55.32,0.06 82.99,-0.05 2.77,-0.4 6.06,0.34 8.45,-1.39 0.65,-1.94 1.07,-4.81 -0.93,-6.08 -4.87,-2.78 -11.51,-1.1 -15.85,-5.02 -0.99,-7.48 -0.19,-15.1 -0.47,-22.64 20.48,-0.21 41.12,0.57 61.4,-2.97 13.31,-2.37 27.46,-4.39 38.65,-12.58 6.51,-4.53 11.66,-12.09 10.7,-20.33 -0.24,-8.27 -6.86,-14.45 -13.54,-18.35 -12.05,-6.83 -25.83,-9.73 -39.39,-11.77 -20.85,-3.11 -41.98,-2.2 -62.98,-2.32 -25.05,-0.01 -50.1,0.02 -75.15,-0.02 -2.22,-0.02 -4.39,0.48 -6.52,0.99 m 211.99,0.01 c -0.02,2.24 -0.03,4.5 0.07,6.76 4.95,1.8 10.29,2.27 15.14,4.39 0.86,6.74 0.23,13.56 0.42,20.35 0.01,18.69 -0.03,37.38 0.03,56.07 0.19,1.64 -0.52,3.13 -1.31,4.53 -4.28,0.93 -8.83,0.69 -12.93,2.29 -1.22,2.63 -0.95,5.94 1.44,7.82 27.24,0.7 54.53,0.07 81.79,0.31 6.32,-0.21 12.8,0.54 19,-0.98 1.35,-1.52 1.04,-3.94 0.55,-5.74 -4.91,-3.84 -12.11,-1.76 -17.1,-5.65 -0.39,-7.67 -0.3,-15.35 -0.1,-23.02 22.24,0.4 44.68,0.52 66.63,-3.63 11.74,-2.38 24.11,-4.64 33.87,-12.09 5.84,-4.46 10.7,-11.3 10.16,-18.96 0.07,-6.73 -4.09,-12.79 -9.44,-16.54 -10.11,-7.41 -22.54,-10.64 -34.64,-13.09 -15.79,-2.93 -31.89,-3.99 -47.93,-3.8 -32.69,-0.01 -65.39,0.01 -98.08,-0.01 -2.57,-0.08 -5.1,0.36 -7.57,0.99 m 210.96,0.01 c -0.05,2.06 -0.25,4.15 0.08,6.22 3.31,2.5 7.75,2.13 11.51,3.55 1.68,0.62 4.27,1.23 4.03,3.58 0.08,25.66 0.1,51.33 -0.02,77 -0.35,0.43 -1.07,1.29 -1.43,1.72 -4.28,0.77 -8.62,1.23 -12.88,2.11 -0.42,2.21 -0.54,4.47 -0.17,6.71 2.34,1.17 4.92,1.73 7.55,1.64 27.99,-0.1 55.98,-0.02 83.98,-0.03 3.66,-0.06 7.4,0.01 10.97,-0.93 1.5,-1.79 1.32,-4.37 0.29,-6.33 -5.01,-2.84 -11.4,-1.52 -16.26,-4.8 -0.81,-1.5 -0.65,-3.29 -0.74,-4.91 0,-6.14 -0.02,-12.27 0.08,-18.4 22.52,0.37 45.26,0.55 67.46,-3.82 11.55,-2.14 23.58,-4.71 33.11,-11.97 5.56,-4.22 10.24,-10.55 10.13,-17.81 0.38,-6.33 -2.88,-12.46 -7.78,-16.31 -7.58,-6.38 -17.14,-9.67 -26.55,-12.24 -19.15,-4.86 -39.01,-6.15 -58.7,-5.97 -29.65,0 -59.3,-0.01 -88.96,0 -5.24,0.07 -10.59,-0.48 -15.7,0.99 z"
       id="path68"
       inkscape:connector-curvature="0"
       style="fill:#096309" />
    <path
       d="m 409.6,409.53 c 0.51,-0.01 1.53,-0.01 2.04,-0.02 -0.2,1.32 -0.4,2.64 -0.62,3.97 -0.17,1.04 -0.32,2.09 -0.42,3.15 l -0.86,-0.11 c -0.03,-2.34 -0.08,-4.67 -0.14,-6.99 z"
       id="path70"
       inkscape:connector-curvature="0"
       style="fill:#096309" />
    <path
       d="m 537.72,633.77 c 1.81,-0.01 3.62,-0.01 5.44,0 -0.2,4.15 0.77,8.49 -0.51,12.53 -0.07,-4.15 -0.17,-8.28 -0.34,-12.42 -1.33,0.2 -2.66,0.41 -3.97,0.63 0.1,3.95 -0.7,8.17 1.07,11.88 -0.46,-0.27 -1.38,-0.81 -1.84,-1.08 0.05,-3.85 0.05,-7.7 0.15,-11.54 z"
       id="path72"
       inkscape:connector-curvature="0"
       style="fill:#096309" />
    <path
       d="m 545.28,634.5 c 2.62,-0.53 5.29,-0.78 7.96,-0.77 0.08,4.15 0.07,8.31 -0.02,12.47 -1.85,0.01 -3.69,0.03 -5.52,0.05 -0.16,-3.61 -0.12,-7.21 -0.07,-10.81 -0.8,-0.31 -1.58,-0.63 -2.35,-0.94 m 3.07,-0.33 c 0.07,3.76 0.06,7.53 -0.23,11.29 1.51,0.08 3.02,0.16 4.54,0.24 -0.21,-3.68 -0.3,-7.36 0.21,-11.01 -1.51,-0.19 -3.02,-0.37 -4.52,-0.52 z"
       id="path74"
       inkscape:connector-curvature="0"
       style="fill:#096309" />
    <path
       d="m 578.64,633.73 c 1.61,-0.02 3.23,-0.04 4.87,-0.05 0.12,4 1.11,8.29 -0.21,12.13 -0.28,-3.73 -0.25,-7.48 0.03,-11.2 -1.02,-0.09 -3.06,-0.27 -4.08,-0.36 0.06,4.13 -0.96,8.59 1.07,12.43 -0.38,-0.18 -1.14,-0.55 -1.53,-0.73 -0.59,-4.04 -0.12,-8.15 -0.15,-12.22 z"
       id="path76"
       inkscape:connector-curvature="0"
       style="fill:#096309" />
    <path
       d="m 344.18,931.81 c 7.56,0.01 15.31,-0.59 22.68,1.52 3.06,0.83 6.05,2.58 7.57,5.48 1.08,2.92 0.8,6.11 0.84,9.18 -0.15,9.03 0.18,18.06 -0.17,27.08 0.01,4.29 -3.75,7.24 -7.5,8.44 -7.53,2.52 -15.61,1.56 -23.41,1.71 0.06,-17.8 0.08,-35.61 -0.01,-53.41 z"
       id="path78"
       inkscape:connector-curvature="0"
       style="fill:#096309" />
    <path
       d="m 556.44,985.4 c -0.37,-17.91 -0.32,-35.85 -0.03,-53.75 8.65,0.44 17.84,-0.92 25.9,3.01 3.47,1.63 5.15,5.57 4.98,9.26 -0.15,10.38 0.15,20.76 -0.18,31.14 -0.08,3.95 -3.27,7.14 -6.93,8.19 -7.58,2.88 -15.84,1.67 -23.74,2.15 z"
       id="path80"
       inkscape:connector-curvature="0"
       style="fill:#096309" />
    <path
       d="m 767.42,985.35 c -0.29,-17.88 -0.29,-35.78 0,-53.65 8.8,0.35 18.28,-1.01 26.37,3.27 3.28,1.76 4.65,5.48 4.45,9.05 -0.06,10.33 0.19,20.68 -0.12,31.01 0.01,4.03 -3.38,7.06 -6.95,8.26 -7.61,2.78 -15.83,1.68 -23.75,2.06 z"
       id="path82"
       inkscape:connector-curvature="0"
       style="fill:#096309" />
  </g>
  <g
     id="#010101ff"
     transform="scale(0.07054674,0.07054674)">
    <path
       d="m 349.35,128.28 c 1.3,-1.72 3.71,-1.32 5.59,-1.35 20.36,0.91 40.66,2.72 60.99,4.13 73.75,5.04 147.39,11.47 221.08,17.31 80.46,6.46 160.87,13.51 241.35,19.75 0.19,50.29 0.03,100.6 0.08,150.89 1.07,16.62 0.34,33.29 0.54,49.93 0.03,139.02 0.01,278.05 0.01,417.07 -0.1,30.31 0.13,60.61 -0.1,90.91 -51.29,0.28 -102.58,-0.34 -153.87,-0.18 -122.58,-0.22 -245.17,-0.02 -367.74,-0.12 -14.07,-9.02 -27.51,-19.09 -41.28,-28.59 -12.22,-8.11 -23.98,-16.92 -36.25,-24.96 -7.67,-5.67 -15.55,-11.04 -23.37,-16.5 -1.65,-0.88 -1.18,-3.01 -1.39,-4.54 0.02,-180.67 0.02,-361.34 0.01,-542.01 0.12,-3.21 -0.36,-6.55 0.54,-9.67 1.82,-2.73 3.94,-5.27 5.92,-7.89 6.27,-7.47 11.69,-15.59 17.84,-23.15 23.51,-30.22 46.63,-60.75 70.05,-91.03 m 11.3,170.1 c -3.28,3.49 -7.14,6.35 -10.63,9.61 -17.25,15.18 -34.61,30.23 -51.88,45.37 -13.7,11.86 -27.13,24.04 -41.03,35.67 0,18.24 -0.22,36.49 0.12,54.73 4.55,-4.64 9.52,-8.84 14.3,-13.25 27.44,-24.92 55.19,-49.49 82.98,-74.03 2.77,-2.28 5.26,-6.14 9.37,-5.28 163.06,7.59 326.1,15.69 489.14,23.35 7.63,-0.08 15.31,1.77 22.9,0.37 -0.08,-15.89 -0.1,-31.78 0.01,-47.66 -2.98,0.33 -5.97,0.12 -8.92,-0.19 -159.67,-9.21 -319.36,-18.28 -479.04,-27.49 -9.11,-0.27 -18.19,-1.44 -27.32,-1.2 m 278.43,105.54 c -6.18,1.84 -11.39,6.81 -13.33,12.98 -0.83,4.61 -0.95,9.73 1.46,13.94 2.95,5.91 9.22,9.71 15.69,10.42 48.02,1.47 96.02,3.26 144.05,4.61 7.99,0.79 16.04,0.44 24.05,0.82 8,-0.06 16.14,1.67 24.05,0.02 8.36,-1.93 15.23,-9.92 14.74,-18.68 0.35,-7.22 -4.64,-13.75 -10.89,-16.86 -4.44,-2.3 -9.58,-1.78 -14.39,-2.35 -18.86,-0.1 -37.68,-1.32 -56.54,-1.55 -11.61,-1.17 -23.32,-0.24 -34.92,-1.43 -10.69,-0.41 -21.42,-0.08 -32.08,-1.06 -16.67,-0.08 -33.28,-1.27 -49.94,-1.4 -3.98,0.04 -8.06,-0.51 -11.95,0.54 m -229.48,5.61 c 0.06,2.32 0.11,4.65 0.14,6.99 l 0.86,0.11 c -0.08,55.13 -0.04,110.29 -0.06,165.43 -0.14,23.77 0.3,47.55 -0.24,71.32 6.56,-0.3 13.13,-0.05 19.7,-0.14 2.5,-0.02 5.05,-0.79 7.49,0.12 -0.33,33.38 -0.17,66.78 -0.07,100.17 4.38,-0.07 8.77,-0.13 13.16,0.07 1.32,-5.74 0.62,-11.76 0.43,-17.6 0.25,-1.68 0.14,-3.36 -0.07,-5.02 0.37,-2.31 0.33,-4.64 0.14,-6.95 0.03,-1.36 0.04,-2.71 0.03,-4.06 0.14,-2 0.13,-4 -0.08,-5.97 0.04,-1.35 0.06,-2.68 0.04,-4.01 0.26,-4.99 0.44,-10.02 -0.1,-14.99 0.53,-6.99 0.38,-14.04 0.08,-21.04 -0.15,-7.68 0.85,-15.43 -0.27,-23.05 0.23,-0.66 0.69,-1.98 0.92,-2.64 1.65,0.17 3.38,0.27 4.83,1.21 -0.43,34.67 -0.03,69.34 -0.2,104.01 30.37,-0.09 60.75,0.1 91.12,-0.1 -0.11,-34.94 -0.08,-69.88 -0.01,-104.82 1.62,0.02 3.25,0.05 4.89,0.1 0.07,34.94 0.02,69.87 0.02,104.81 6.09,0 12.18,-0.01 18.27,0.03 -0.11,-33.73 0.28,-67.48 -0.2,-101.2 6.17,-1.6 12.71,-0.19 19.04,-0.75 -0.1,-71.54 0.21,-143.08 0.29,-214.62 0.08,-5.44 0.67,-10.86 0.55,-16.3 -0.37,-0.07 -1.1,-0.21 -1.47,-0.27 -5.9,8.6 -19.31,9.51 -26.84,2.56 -2.75,-2.13 -3.72,-5.62 -6.01,-8.12 -2.01,5.49 -6.35,10.14 -11.99,11.91 -9.04,3.12 -19.85,-2.08 -23.07,-11.09 -0.49,-0.15 -1.47,-0.44 -1.96,-0.58 -2.38,9.57 -13.91,14.91 -22.98,11.64 -5.47,-1.91 -10.56,-6.43 -11.67,-12.3 -0.42,-0.05 -1.24,-0.14 -1.66,-0.19 -1.59,7.27 -8.51,12.17 -15.63,13.09 -1.36,-0.01 -2.72,-0.01 -4.06,0 -8.09,-1.41 -15.25,-7.88 -15.98,-16.3 -0.56,8.87 -9.09,16.3 -17.93,15.77 -8.2,0.52 -15.94,-5.41 -18.03,-13.28 0.22,-1.33 0.42,-2.65 0.62,-3.97 -0.51,0.01 -1.53,0.01 -2.04,0.02 m -65.58,272.5 c -2.71,2.75 -4.69,6.24 -5.52,10.02 -0.97,8.15 -0.17,16.63 3.21,24.18 3.55,9.05 10.74,16.03 18.66,21.38 0.84,0.46 2.03,1.53 3,0.72 7.95,-6.46 14.01,-14.99 18.45,-24.17 3.44,-8 3.92,-17.51 0.41,-25.57 -3.81,-9.29 -11.19,-16.5 -19.22,-22.25 -6.87,4.54 -13.23,9.81 -18.99,15.69 m -86.71,59.01 c -0.49,12.68 -0.15,25.39 -0.19,38.08 -0.22,1.97 2.04,2.55 3.28,3.53 32.56,20.78 65.06,41.66 97.57,62.52 1.45,1 3.16,1.53 4.95,1.44 13.36,0.04 26.73,0.08 40.1,0.06 1.39,-0.24 3.53,0.42 4.09,-1.35 4.5,-12.98 8.66,-26.12 13.69,-38.89 -19.61,-0.41 -39.23,-0.15 -58.85,-0.33 -1.35,0.05 -2.44,-0.83 -3.56,-1.43 -17.85,-11.2 -35.71,-22.4 -53.62,-33.51 -15.79,-10.08 -31.92,-19.63 -47.46,-30.12 m 180.05,16.44 c -0.1,2.66 -0.12,5.32 -0.01,7.99 43.98,-0.22 87.97,-0.04 131.95,-0.08 2,-2.09 0.91,-5.43 0.46,-7.96 -44.13,0.22 -88.27,0.13 -132.4,0.05 m 0.01,11.12 c -0.11,2.68 -0.12,5.37 -0.11,8.07 34.58,0.1 69.17,-0.32 103.73,0.2 9.78,-0.6 19.59,0.08 29.38,-0.36 -0.44,-2.5 0.92,-5.96 -1.11,-7.82 -43.96,-0.08 -87.93,0.12 -131.89,-0.09 m 0.41,10.81 c -0.69,5.16 -3.01,9.89 -4.31,14.91 10.25,-0.12 20.51,0.02 30.78,-0.06 0.02,-4.93 0.02,-9.86 0.04,-14.78 -8.83,-0.27 -17.67,-0.16 -26.51,-0.07 m 29.92,0.08 c 0.2,4.61 0.31,9.23 0,13.84 0.5,0.26 1.52,0.77 2.03,1.03 21.75,-0.13 43.51,-0.11 65.27,-0.02 1.44,-0.15 3.21,0.47 4.34,-0.76 0.21,-4.71 -0.06,-9.42 0.08,-14.13 -23.91,-0.16 -47.83,-0.25 -71.72,0.04 m 75.64,-0.16 c -0.02,5.01 -0.17,10.02 0.12,15.03 10.1,-0.11 20.2,-0.1 30.31,-0.01 -0.4,-3.27 -1.53,-6.38 -2.67,-9.44 -0.57,-1.73 -0.77,-3.56 -0.92,-5.34 -8.93,-0.53 -17.9,-0.1 -26.84,-0.24 m -111.05,19.04 c -1.53,4.32 -2.52,8.83 -3.87,13.22 5.31,0.17 10.62,0.18 15.93,0.01 -0.03,-4.41 -0.02,-8.81 0.03,-13.2 -4.03,-0.14 -8.07,-0.35 -12.09,-0.03 m 16.03,-0.12 c 0.12,4.47 0.12,8.94 0,13.42 17.38,0.01 34.76,0.12 52.14,-0.06 -0.08,-4.42 -0.06,-8.85 -0.01,-13.27 -17.38,-0.19 -34.76,-0.01 -52.13,-0.09 m 58.35,0.26 c 0.14,4.33 0.12,8.67 0.02,13.01 17.54,0.32 35.1,0.25 52.64,0.03 -0.15,-4.36 -0.13,-8.72 -0.02,-13.07 -8.42,-0.48 -16.87,-0.09 -25.3,-0.22 -9.11,0.14 -18.24,-0.29 -27.34,0.25 m 56,-0.11 c 0.13,4.38 0.1,8.77 0.04,13.17 5.31,0.23 10.63,0.14 15.95,0.07 -0.57,-4.57 -1.89,-8.98 -3.14,-13.38 -4.28,0.01 -8.57,-0.05 -12.85,0.14 m 22.48,8.02 c 4.64,11.84 8.43,23.99 12.88,35.9 0.63,1.47 1.58,2.77 2.5,4.09 91.73,-0.07 183.46,-0.06 275.18,-0.01 0.35,-13.41 0.06,-26.82 0.15,-40.24 -80.62,-0.08 -161.24,-0.01 -241.86,-0.03 -16.28,0.15 -32.59,-0.33 -48.85,0.29 m -158.18,9.25 c -0.27,4.35 -2.58,8.29 -2.62,12.66 13.39,-0.18 26.78,-0.09 40.18,-0.03 0.35,-4.29 0.23,-8.58 0.13,-12.87 -12.56,0.2 -25.14,-0.25 -37.69,0.24 m 42.33,-0.18 c -0.01,4.07 0.01,8.14 0.01,12.22 2.86,0.21 5.72,0.54 8.6,0.54 19.43,0 38.86,-0.03 58.29,0.01 0.54,-0.22 1.63,-0.68 2.17,-0.9 -0.04,-3.93 -0.03,-7.86 0.01,-11.78 -23.02,-0.24 -46.05,-0.08 -69.08,-0.09 m 73.04,12.34 c 9.2,0.89 18.48,0.19 27.72,0.41 4.58,-0.25 9.31,0.65 13.77,-0.73 -2.21,-3.62 -2.73,-7.87 -3.65,-11.93 -12.59,-0.24 -25.19,-0.06 -37.78,-0.09 -0.05,4.11 -0.02,8.22 -0.06,12.34 m -109.79,4.57 c 0.05,4.42 0.06,8.85 -0.06,13.27 13,0.11 26,0.1 39,-0.02 -0.08,-4.41 -0.07,-8.81 -0.03,-13.21 -12.97,-0.15 -25.94,-0.07 -38.91,-0.04 m 45.17,0.12 c 0.03,4.31 0.03,8.62 -0.04,12.94 6.4,0.58 12.82,0.13 19.24,0.28 10.83,-0.09 21.67,0.19 32.5,-0.19 -0.05,-4.37 -0.05,-8.74 -0.02,-13.09 -17.22,-0.11 -34.46,-0.24 -51.68,0.06 m 57.97,-0.01 c 0.06,4.35 0.04,8.71 0,13.07 12.95,0.26 25.92,0.2 38.87,0.05 -0.09,-4.42 -0.08,-8.83 -0.04,-13.23 -12.95,0.01 -25.89,-0.2 -38.83,0.11 m 43.02,0.01 c 0.03,4.33 0.03,8.67 -0.01,13.01 4.46,0.29 8.94,0.2 13.41,0.23 -1.17,-4.77 -3.89,-8.92 -5.93,-13.32 -2.49,-0.1 -4.99,-0.07 -7.47,0.08 m -156.78,0.02 c -0.99,4.42 -2.34,8.76 -3.69,13.09 3.3,-0.11 6.84,0.71 9.99,-0.46 0.07,-4.32 -0.67,-8.61 -0.55,-12.93 -1.93,0.07 -3.84,0.17 -5.75,0.3 M 550.03,851 c -0.7,3.91 1,8.25 0.48,12.4 0.58,0.21 1.73,0.65 2.31,0.87 15.38,-0.23 30.79,0.44 46.14,-0.36 -0.39,-2.1 -1,-4.13 -1.74,-6.11 -0.8,-2.01 -1.45,-4.05 -2.07,-6.09 -4.03,-0.52 -8.07,-1.09 -12.13,-0.94 -10.99,0.17 -22.06,-0.53 -32.99,0.23 m -133.26,-0.28 c -1.15,4.36 -2.72,8.62 -3.69,13.05 13.1,-0.29 26.2,0.17 39.3,-0.2 -0.1,-3.92 -0.14,-7.83 -0.12,-11.74 -0.5,-0.32 -1.5,-0.94 -2,-1.25 -11.16,0.23 -22.33,0.02 -33.49,0.14 m 39.84,12.83 c 14.94,0.34 29.89,0.2 44.84,0.11 -0.04,-4.22 -0.06,-8.42 0.07,-12.63 -14.95,-0.84 -29.99,-0.18 -44.98,-0.38 -0.04,4.29 0.06,8.59 0.07,12.9 m 49.7,0.04 c 0.65,0.13 1.96,0.38 2.62,0.51 1.68,-0.26 3.38,-0.33 5.09,-0.25 4.63,0.36 9.32,0.45 13.96,0.17 5.92,0.19 11.94,0.73 17.8,-0.34 -0.29,-3.91 -0.16,-7.84 -0.51,-11.73 -0.7,-1.74 -2.83,-1.16 -4.25,-1.3 -11.53,-0.01 -23.07,0.11 -34.6,-0.04 -0.17,4.32 -0.1,8.65 -0.11,12.98 z"
       id="path85"
       inkscape:connector-curvature="0"
       style="fill:#010101" />
    <path
       d="m 415.5,646.53 c -0.25,-4.36 -0.26,-8.72 0.04,-13.07 1.63,0.29 3.28,0.65 4.9,1.08 -0.23,3.58 -0.05,7.17 -0.07,10.75 -1.32,1.28 -3.22,0.98 -4.87,1.24 z"
       id="path87"
       inkscape:connector-curvature="0"
       style="fill:#010101" />
    <path
       d="m 425.85,633.88 c 1.61,-0.58 3.22,0.17 4.77,0.57 -0.24,3.71 -0.24,7.44 0.05,11.16 -1.65,0.63 -3.41,0.74 -5.14,0.83 0.13,-4.17 -0.57,-8.48 0.32,-12.56 z"
       id="path89"
       inkscape:connector-curvature="0"
       style="fill:#010101" />
    <path
       d="m 435.51,633.65 c 1.64,0.25 3.84,-0.62 4.91,1.12 0.18,3.84 -0.01,7.69 -0.02,11.53 -1.66,0.01 -3.31,0.01 -4.95,0.03 -0.13,-4.23 -0.13,-8.46 0.06,-12.68 z"
       id="path91"
       inkscape:connector-curvature="0"
       style="fill:#010101" />
    <path
       d="m 445.48,634.46 c 1.64,-0.41 3.3,-0.75 4.99,-1 0.35,4.3 0.36,8.64 0.03,12.96 -1.63,-0.07 -3.26,-0.13 -4.89,-0.18 -0.04,-3.93 0.02,-7.86 -0.13,-11.78 z"
       id="path93"
       inkscape:connector-curvature="0"
       style="fill:#010101" />
    <path
       d="m 456.39,645.75 c 0.01,-3.98 -0.72,-8.19 0.41,-12.03 1.62,-0.28 3.15,0.25 4.58,0.97 -0.2,3.47 0.02,6.94 -0.13,10.4 -0.72,1.89 -3.58,1.62 -4.86,0.66 z"
       id="path95"
       inkscape:connector-curvature="0"
       style="fill:#010101" />
    <path
       d="m 466.49,633.76 c 1.63,-0.03 3.26,-0.04 4.89,-0.05 0.06,3.99 0.06,7.97 0.17,11.96 -1.74,0.06 -3.47,0.13 -5.2,0.18 0,-4.04 -0.02,-8.07 0.14,-12.09 z"
       id="path97"
       inkscape:connector-curvature="0"
       style="fill:#010101" />
    <path
       d="m 476.43,634 c 1.75,-0.31 3.49,-0.16 5.17,0.48 -0.24,3.62 -0.07,7.26 -0.11,10.89 -1.23,1.46 -3.27,0.81 -4.9,1.06 -0.15,-4.14 -0.07,-8.29 -0.16,-12.43 z"
       id="path99"
       inkscape:connector-curvature="0"
       style="fill:#010101" />
    <path
       d="m 487.41,633.59 c 1.03,0.05 3.08,0.15 4.11,0.19 0.2,4.22 0.13,8.44 0.08,12.66 -1.79,-0.11 -3.63,-0.07 -5.24,-0.9 0.45,-3.98 0.7,-7.97 1.05,-11.95 z"
       id="path101"
       inkscape:connector-curvature="0"
       style="fill:#010101" />
    <path
       d="m 496.61,634.6 c 1.85,-1.03 3.94,-1.05 5.81,-0.04 -0.2,3.61 -0.21,7.23 0.02,10.84 -1.77,0.74 -4.62,2.02 -5.69,-0.37 -0.17,-3.48 0.05,-6.96 -0.14,-10.43 z"
       id="path103"
       inkscape:connector-curvature="0"
       style="fill:#010101" />
    <path
       d="m 507.39,634.53 c 1.34,-1.15 4.01,-1.58 4.75,0.47 0.11,3.86 0.69,7.92 -0.72,11.63 -1.62,-0.34 -3.63,0.01 -4.64,-1.6 0.03,-2.02 0.7,-4.01 0.46,-6.03 0.09,-1.45 -1.16,-3.3 0.15,-4.47 z"
       id="path105"
       inkscape:connector-curvature="0"
       style="fill:#010101" />
    <path
       d="m 538.34,634.51 c 1.31,-0.22 2.64,-0.43 3.97,-0.63 0.17,4.14 0.27,8.27 0.34,12.42 -0.81,0.02 -2.43,0.07 -3.24,0.09 -1.77,-3.71 -0.97,-7.93 -1.07,-11.88 z"
       id="path107"
       inkscape:connector-curvature="0"
       style="fill:#010101" />
    <path
       d="m 558.49,646.5 c -0.24,-4.31 -0.19,-8.62 0.06,-12.92 1.56,0.3 3.77,-0.4 4.83,1.2 0.11,3.65 -0.09,7.3 0.2,10.95 -1.68,0.38 -3.39,0.62 -5.09,0.77 z"
       id="path109"
       inkscape:connector-curvature="0"
       style="fill:#010101" />
    <path
       d="m 517.35,634.29 c 1.69,-0.06 3.38,-0.09 5.08,-0.1 -0.04,4.03 -0.01,8.07 -0.06,12.11 -1.63,0.01 -3.26,0.03 -4.88,0.05 -0.13,-4.02 -0.14,-8.04 -0.14,-12.06 z"
       id="path111"
       inkscape:connector-curvature="0"
       style="fill:#010101" />
    <path
       d="m 527.49,634.32 c 1.7,-0.07 3.4,-0.13 5.1,-0.16 0.01,4.06 0.01,8.13 -0.06,12.2 -1.64,-0.04 -3.28,-0.07 -4.91,-0.1 -0.11,-3.98 -0.07,-7.96 -0.13,-11.94 z"
       id="path113"
       inkscape:connector-curvature="0"
       style="fill:#010101" />
    <path
       d="m 548.35,634.17 c 1.5,0.15 3.01,0.33 4.52,0.52 -0.51,3.65 -0.42,7.33 -0.21,11.01 -1.52,-0.08 -3.03,-0.16 -4.54,-0.24 0.29,-3.76 0.3,-7.53 0.23,-11.29 z"
       id="path115"
       inkscape:connector-curvature="0"
       style="fill:#010101" />
    <path
       d="m 568.43,634.31 c 1.68,-0.06 3.36,-0.09 5.05,-0.09 -0.08,3.81 -0.13,7.64 0.13,11.45 -1.62,0.6 -3.35,0.67 -5.04,0.74 -0.11,-4.03 -0.05,-8.07 -0.14,-12.1 z"
       id="path117"
       inkscape:connector-curvature="0"
       style="fill:#010101" />
    <path
       d="m 579.25,634.25 c 1.02,0.09 3.06,0.27 4.08,0.36 -0.28,3.72 -0.31,7.47 -0.03,11.2 -0.75,0.22 -2.23,0.65 -2.98,0.87 -2.03,-3.84 -1.01,-8.3 -1.07,-12.43 z"
       id="path119"
       inkscape:connector-curvature="0"
       style="fill:#010101" />
    <path
       d="m 534.49,648.35 c 1.65,0.04 3.3,0.1 4.96,0.2 -0.09,32.94 -0.04,65.89 -0.03,98.83 -0.27,0.25 -0.81,0.75 -1.07,1 -23.52,-0.09 -47.04,0 -70.56,-0.06 -0.28,-0.25 -0.84,-0.77 -1.12,-1.02 -0.09,-32.62 0.22,-65.25 -0.16,-97.87 1.62,-0.56 3.29,-0.97 5,-1.17 0.46,31.74 0.1,63.51 0.16,95.26 9.59,0.07 19.18,0.07 28.77,0.04 0.19,-0.33 0.59,-0.99 0.79,-1.31 -0.86,-3.78 0.42,-7.56 -0.14,-11.34 -0.45,-3.97 -0.11,-7.97 -0.28,-11.94 0.58,-1.76 0.52,-3.58 -0.44,-5.17 -12.02,-2.86 -14.59,-20.55 -5.99,-28.38 1.85,-2.1 4.41,-3.26 6.98,-4.22 0.37,-8.42 -1.3,-16.81 -0.09,-25.18 0.03,-2.55 -0.78,-5.14 0.28,-7.58 1.01,0.01 3.03,0.03 4.05,0.03 0.15,10.91 0.13,21.82 -0.01,32.73 3.56,1.53 6.38,4.22 8.76,7.22 0.63,1.51 1.29,3.01 1.99,4.51 0.84,5.95 0.37,12.73 -4.2,17.17 -1.64,2.21 -4.6,2.71 -6.4,4.67 -0.18,9.56 0.03,19.12 -0.09,28.69 9.61,0.25 19.24,0.02 28.86,0.13 -0.02,-31.75 0,-63.49 -0.02,-95.24 z"
       id="path121"
       inkscape:connector-curvature="0"
       style="fill:#010101" />
    <path
       d="m 348.08,702.01 c 2.66,-3.41 6.22,-7.15 10.97,-6.66 7.89,-0.56 14.99,5.45 17.47,12.66 -2.56,7.42 -9.83,12.42 -17.5,13.28 -3.26,-0.63 -6.74,-1.55 -8.76,-4.42 -3.33,-3.89 -6.03,-10.47 -2.18,-14.86 z"
       id="path123"
       inkscape:connector-curvature="0"
       style="fill:#010101" />
  </g>
</svg>
