<?xml version="1.0" encoding="UTF-8" standalone="no"?>
<!-- Created with Inkscape (http://www.inkscape.org/) -->
<svg
   xmlns:dc="http://purl.org/dc/elements/1.1/"
   xmlns:cc="http://creativecommons.org/ns#"
   xmlns:rdf="http://www.w3.org/1999/02/22-rdf-syntax-ns#"
   xmlns:svg="http://www.w3.org/2000/svg"
   xmlns="http://www.w3.org/2000/svg"
   xmlns:sodipodi="http://sodipodi.sourceforge.net/DTD/sodipodi-0.dtd"
   xmlns:inkscape="http://www.inkscape.org/namespaces/inkscape"
   width="108"
   height="152"
   id="svg2"
   sodipodi:version="0.32"
   inkscape:version="0.46"
   version="1.0"
   sodipodi:docname="Partai Amanat Nasional.svg"
   inkscape:output_extension="org.inkscape.output.svg.inkscape">
  <defs
     id="defs4">
    <inkscape:perspective
       sodipodi:type="inkscape:persp3d"
       inkscape:vp_x="0 : 526.18109 : 1"
       inkscape:vp_y="0 : 1000 : 0"
       inkscape:vp_z="744.09448 : 526.18109 : 1"
       inkscape:persp3d-origin="372.04724 : 350.78739 : 1"
       id="perspective10" />
    <inkscape:perspective
       id="perspective2396"
       inkscape:persp3d-origin="372.04724 : 350.78739 : 1"
       inkscape:vp_z="744.09448 : 526.18109 : 1"
       inkscape:vp_y="0 : 1000 : 0"
       inkscape:vp_x="0 : 526.18109 : 1"
       sodipodi:type="inkscape:persp3d" />
    <inkscape:perspective
       id="perspective2413"
       inkscape:persp3d-origin="372.04724 : 350.78739 : 1"
       inkscape:vp_z="744.09448 : 526.18109 : 1"
       inkscape:vp_y="0 : 1000 : 0"
       inkscape:vp_x="0 : 526.18109 : 1"
       sodipodi:type="inkscape:persp3d" />
  </defs>
  <sodipodi:namedview
     id="base"
     pagecolor="#ffffff"
     bordercolor="#666666"
     borderopacity="1.0"
     gridtolerance="10000"
     guidetolerance="10"
     objecttolerance="10"
     inkscape:pageopacity="0.0"
     inkscape:pageshadow="2"
     inkscape:zoom="2"
     inkscape:cx="73.937162"
     inkscape:cy="53.90483"
     inkscape:document-units="px"
     inkscape:current-layer="layer1"
     showgrid="false"
     showguides="true"
     inkscape:guide-bbox="true"
     inkscape:window-width="1280"
     inkscape:window-height="751"
     inkscape:window-x="-4"
     inkscape:window-y="-4" />
  <metadata
     id="metadata7">
    <rdf:RDF>
      <cc:Work
         rdf:about="">
        <dc:format>image/svg+xml</dc:format>
        <dc:type
           rdf:resource="http://purl.org/dc/dcmitype/StillImage" />
      </cc:Work>
    </rdf:RDF>
  </metadata>
  <g
     inkscape:groupmode="layer"
     id="layer3"
     inkscape:label="White Background"
     style="display:inline"
     sodipodi:insensitive="true">
    <rect
       style="fill:#ffffff;fill-opacity:1;stroke:#ffffff;stroke-width:1"
       id="rect2407"
       width="106.99999"
       height="151"
       x="0.5"
       y="0.5" />
  </g>
  <g
     inkscape:label="Symbol"
     inkscape:groupmode="layer"
     id="layer1"
     sodipodi:insensitive="true">
    <rect
       style="fill:#000080;fill-opacity:1;stroke:#000080;stroke-width:1"
       id="rect2383"
       width="107"
       height="99"
       x="0.37373093"
       y="0.5" />
    <path
       sodipodi:type="star"
       style="fill:#ffffff;stroke:#ffffff;stroke-width:1.3610332"
       id="path2597"
       sodipodi:sides="32"
       sodipodi:cx="188.57143"
       sodipodi:cy="29.505039"
       sodipodi:r1="390.67331"
       sodipodi:r2="116.10102"
       sodipodi:arg1="-1.5729206"
       sodipodi:arg2="-1.4747457"
       inkscape:flatsided="false"
       inkscape:rounded="0"
       inkscape:randomized="0"
       d="M 187.74153,-361.16739 L 199.70586,-86.060835 L 263.97389,-353.82263 L 222.0377,-81.668049 L 337.30857,-331.74681 L 243.08345,-73.002942 L 404.92736,-295.78828 L 262.03433,-60.398512 L 464.23172,-247.32891 L 278.16208,-44.339139 L 512.94261,-188.23097 L 290.8469,-25.441975 L 549.1881,-120.76555 L 299.60134,-4.433228 L 571.57529,-47.525321 L 304.08896,17.879747 L 579.24385,28.675143 L 304.1373,40.639476 L 571.8991,104.9075 L 299.74451,62.971315 L 549.82327,178.24218 L 291.07941,84.017063 L 513.86474,245.86098 L 278.47498,102.96794 L 465.40537,305.16534 L 262.4156,119.09569 L 406.30743,353.87623 L 243.51844,131.78051 L 338.84202,390.12171 L 222.50969,140.53495 L 265.60179,412.5089 L 200.19672,145.02257 L 189.40132,420.17747 L 177.43699,145.07091 L 113.16897,412.83271 L 155.10515,140.67813 L 39.834285,390.75689 L 134.0594,132.01302 L -27.784512,354.79836 L 115.10852,119.40859 L -87.088871,306.33899 L 98.980777,103.34922 L -135.79976,247.24104 L 86.295952,84.452053 L -172.04525,179.77563 L 77.541516,63.443306 L -194.43244,106.5354 L 73.053897,41.130331 L -202.101,30.334935 L 73.005552,18.370602 L -194.75625,-45.897421 L 77.398339,-3.9612362 L -172.68042,-119.2321 L 86.063445,-25.006985 L -136.72189,-186.8509 L 98.667875,-43.957866 L -88.262522,-246.15526 L 114.72725,-60.08561 L -29.164579,-294.86615 L 133.62441,-72.770435 L 38.300837,-331.11163 L 154.63316,-81.524871 L 111.54107,-353.49882 L 176.94613,-86.01249 L 187.74153,-361.16739 z"
       transform="matrix(0.1074764,0,0,0.1074764,33.739107,48.265139)" />
  </g>
  <g
     inkscape:groupmode="layer"
     id="layer2"
     inkscape:label="PAN name"
     sodipodi:insensitive="true">
    <path
       style="font-size:10px;font-style:normal;font-variant:normal;font-weight:900;font-stretch:normal;text-align:start;line-height:125%;writing-mode:lr-tb;text-anchor:start;fill:#000080;fill-opacity:1;stroke:none;stroke-width:1px;stroke-linecap:butt;stroke-linejoin:miter;stroke-opacity:1;font-family:Arial Black;-inkscape-font-specification:Arial Black Heavy"
       d="M 0,107 L 18.156698,107 C 22.111148,107.00005 25.072958,107.93116 27.042178,109.79332 C 29.011358,111.65553 29.995948,114.30564 29.995948,117.7435 C 29.995948,121.27694 28.922908,124.03843 26.776948,126.02797 C 24.630888,128.0175 21.355638,129.01227 16.951068,129.01227 L 10.971198,129.01227 L 10.971198,142 L 0,142 L 0,107 z M 10.971198,121.92157 L 13.647678,121.92157 C 15.753498,121.92157 17.232408,121.55946 18.084398,120.83527 C 18.936348,120.11109 19.362318,119.18399 19.362318,118.05388 C 19.362318,116.9557 18.992588,116.02459 18.253188,115.26056 C 17.513688,114.49662 16.123228,114.11461 14.081708,114.11461 L 10.971198,114.11461 L 10.971198,121.92157 z M 57.484248,136.22237 L 45.042188,136.22237 L 43.330198,142 L 32.166108,142 L 45.452108,107 L 57.363708,107 L 70.649698,142 L 59.220338,142 L 57.484248,136.22237 z M 55.193538,128.65417 L 51.287338,116.07232 L 47.405238,128.65417 L 55.193538,128.65417 z M 74.194238,107 L 84.393838,107 L 97.703947,126.36221 L 97.703947,107 L 108,107 L 108,142 L 97.703947,142 L 84.466168,122.78105 L 84.466168,142 L 74.194238,142 L 74.194238,107 z"
       id="flowRoot2388" />
    <path
       style="font-size:56px;font-style:normal;font-weight:normal;fill:#000000;fill-opacity:1;stroke:none;stroke-width:1px;stroke-linecap:butt;stroke-linejoin:miter;stroke-opacity:1;font-family:Bitstream Vera Sans"
       d="M 1.8794729,148.54082 L 1.8794729,150.26317 C 1.8794585,150.59912 1.896355,150.81058 1.9301192,150.89765 C 1.963869,150.98462 2.0239023,151.05413 2.1101757,151.10608 C 2.1964636,151.15802 2.3546412,151.18398 2.5847374,151.18398 L 2.5847374,151.35348 L 0,151.35348 L 0,151.18398 C 0.23509298,151.18398 0.394527,151.15722 0.47831651,151.10374 C 0.56209158,151.05028 0.62085399,150.98086 0.65461819,150.89542 C 0.68838238,150.80979 0.70526448,150.59912 0.70526448,150.26317 L 0.70526448,146.2322 C 0.70526448,145.89632 0.68838238,145.68486 0.65461819,145.59779 C 0.62085399,145.51081 0.56145615,145.44131 0.47643911,145.38935 C 0.39139319,145.33742 0.2325946,145.31143 0,145.31143 L 0,145.14196 L 2.2171005,145.14196 C 2.9473776,145.14196 3.4713292,145.30086 3.7889553,145.61838 C 4.1065669,145.936 4.26538,146.33306 4.26538,146.80938 C 4.26538,147.21252 4.162831,147.55761 3.9577619,147.84461 C 3.7526783,148.13168 3.4700728,148.32713 3.1099455,148.43093 C 2.8673429,148.5042 2.4571902,148.54082 1.8794729,148.54082 L 1.8794729,148.54082 z M 1.8794729,145.49926 L 1.8794729,148.18364 C 1.9619916,148.18963 2.0245233,148.19277 2.067039,148.19277 C 2.3721587,148.19277 2.6072373,148.08207 2.7723035,147.86065 C 2.9373697,147.63923 3.0199028,147.29645 3.0199028,146.83231 C 3.0199028,146.37111 2.9373697,146.03371 2.7723035,145.8199 C 2.6072373,145.60621 2.3608944,145.49926 2.0332748,145.49926 L 1.8794729,145.49926 z M 7.6979338,149.58522 L 5.9010084,149.58522 L 5.6871733,150.18998 C 5.6171465,150.3915 5.5821259,150.55792 5.5821259,150.68924 C 5.5821259,150.86326 5.6396464,150.99161 5.7547017,151.07402 C 5.8222301,151.12292 5.9885383,151.15947 6.2536407,151.18398 L 6.2536407,151.35348 L 4.5617482,151.35348 L 4.5617482,151.18398 C 4.7443175,151.15033 4.8943645,151.05799 5.0119182,150.90678 C 5.1294575,150.75568 5.2745222,150.44336 5.4470836,149.97 L 7.2665233,145.0137 L 7.3378065,145.0137 L 9.1722508,150.10748 C 9.3473106,150.58998 9.4911189,150.89379 9.6036758,151.01902 C 9.6886929,151.11369 9.808745,151.16863 9.9638032,151.18398 L 9.9638032,151.35348 L 7.5028727,151.35348 L 7.5028727,151.18398 L 7.6041508,151.18398 C 7.8017248,151.18398 7.9405364,151.15033 8.0205567,151.08322 C 8.0755787,151.03434 8.1030898,150.96402 8.1030898,150.87249 C 8.1030898,150.81749 8.0955946,150.76097 8.0805899,150.70302 C 8.0755787,150.67553 8.0380742,150.56096 7.9680474,150.35935 L 7.6979338,149.58522 z M 7.5703866,149.24636 L 6.8125984,147.10716 L 6.0323104,149.24636 L 7.5703866,149.24636 z M 12.094616,148.52255 L 12.094616,150.26317 C 12.094616,150.59912 12.111498,150.81058 12.145262,150.89765 C 12.179026,150.98462 12.238424,151.05413 12.323456,151.10608 C 12.408487,151.15802 12.5673,151.18398 12.799895,151.18398 L 12.799895,151.35348 L 10.196398,151.35348 L 10.196398,151.18398 C 10.431491,151.18398 10.590925,151.15722 10.6747,151.10374 C 10.758489,151.05028 10.817252,150.98086 10.851016,150.89542 C 10.88478,150.80979 10.901662,150.59912 10.901662,150.26317 L 10.901662,146.2322 C 10.901662,145.89632 10.88478,145.68486 10.851016,145.59779 C 10.817252,145.51081 10.757854,145.44131 10.672822,145.38935 C 10.587791,145.33742 10.428978,145.31143 10.196398,145.31143 L 10.196398,145.14196 L 12.559805,145.14196 C 13.175027,145.14196 13.625197,145.19391 13.910315,145.29773 C 14.195419,145.40162 14.428014,145.59322 14.608085,145.87258 C 14.788141,146.15204 14.878184,146.47952 14.878184,146.85515 C 14.878184,147.31329 14.743127,147.6919 14.473028,147.99123 C 14.300452,148.18049 14.05912,148.32255 13.749004,148.41714 L 14.971967,150.51976 C 15.132022,150.79151 15.245821,150.96107 15.313349,151.02816 C 15.415884,151.12292 15.534679,151.17478 15.669736,151.18398 L 15.669736,151.35348 L 14.067872,151.35348 L 12.428503,148.52255 L 12.094616,148.52255 z M 12.094616,145.47642 L 12.094616,148.19734 L 12.308451,148.19734 C 12.656086,148.19734 12.916178,148.15837 13.088753,148.08048 C 13.261315,148.00262 13.396992,147.86217 13.495787,147.65912 C 13.594566,147.45598 13.643956,147.19113 13.643956,146.86428 C 13.643956,146.39101 13.553293,146.04132 13.37198,145.81534 C 13.190667,145.58946 12.898675,145.47642 12.496017,145.47642 L 12.094616,145.47642 z M 20.452814,145.14196 L 20.452814,146.82316 L 20.317758,146.82316 C 20.237723,146.43525 20.148937,146.15661 20.051413,145.98714 C 19.953861,145.81768 19.820061,145.68252 19.650012,145.58174 C 19.554973,145.52676 19.38865,145.49926 19.151059,145.49926 L 18.772172,145.49926 L 18.772172,150.29074 C 18.772172,150.60826 18.786541,150.80684 18.815309,150.88626 C 18.844076,150.96564 18.90034,151.03511 18.98413,151.09461 C 19.067905,151.15417 19.182325,151.18398 19.327389,151.18398 L 19.496196,151.18398 L 19.496196,151.35348 L 16.83268,151.35348 L 16.83268,151.18398 L 17.001501,151.18398 C 17.14905,151.18398 17.267845,151.15185 17.357874,151.08778 C 17.422904,151.045 17.474171,150.97164 17.51169,150.86782 C 17.539201,150.79463 17.552949,150.60225 17.552949,150.29074 L 17.552949,145.49926 L 17.185312,145.49926 C 16.842688,145.49926 16.593832,145.58784 16.438774,145.76501 C 16.221199,146.01231 16.083643,146.36503 16.026123,146.82316 L 15.883571,146.82316 L 15.883571,145.14196 L 20.452814,145.14196 z M 23.934137,149.58522 L 22.137212,149.58522 L 21.923377,150.18998 C 21.85335,150.3915 21.818329,150.55792 21.818329,150.68924 C 21.818329,150.86326 21.87585,150.99161 21.990905,151.07402 C 22.058419,151.12292 22.224742,151.15947 22.489844,151.18398 L 22.489844,151.35348 L 20.797937,151.35348 L 20.797937,151.18398 C 20.980521,151.15033 21.130568,151.05799 21.248122,150.90678 C 21.365661,150.75568 21.510711,150.44336 21.683287,149.97 L 23.502727,145.0137 L 23.57401,145.0137 L 25.408454,150.10748 C 25.583514,150.58998 25.727322,150.89379 25.839865,151.01902 C 25.924896,151.11369 26.044948,151.16863 26.200007,151.18398 L 26.200007,151.35348 L 23.739062,151.35348 L 23.739062,151.18398 L 23.840354,151.18398 C 24.037928,151.18398 24.176725,151.15033 24.25676,151.08322 C 24.311782,151.03434 24.339293,150.96402 24.339293,150.87249 C 24.339293,150.81749 24.331784,150.76097 24.316793,150.70302 C 24.311782,150.67553 24.274263,150.56096 24.204251,150.35935 L 23.934137,149.58522 z M 23.80659,149.24636 L 23.048802,147.10716 L 22.268499,149.24636 L 23.80659,149.24636 z M 29.103612,151.18398 L 29.103612,151.35348 L 26.443851,151.35348 L 26.443851,151.18398 L 26.612672,151.18398 C 26.760221,151.18398 26.879016,151.15185 26.969045,151.08778 C 27.034075,151.045 27.0841,150.97164 27.119106,150.86782 C 27.146617,150.79463 27.16038,150.60225 27.16038,150.29074 L 27.16038,146.2047 C 27.16038,145.88718 27.146617,145.6886 27.119106,145.60918 C 27.091595,145.5298 27.035952,145.46033 26.952177,145.40083 C 26.868388,145.34127 26.755224,145.31143 26.612672,145.31143 L 26.443851,145.31143 L 26.443851,145.14196 L 29.103612,145.14196 L 29.103612,145.31143 L 28.934806,145.31143 C 28.787242,145.31143 28.668447,145.34359 28.578418,145.40763 C 28.513388,145.45044 28.462121,145.52377 28.424602,145.62752 C 28.397091,145.70079 28.383343,145.89319 28.383343,146.2047 L 28.383343,150.29074 C 28.383343,150.60826 28.397727,150.80684 28.42648,150.88626 C 28.455247,150.96564 28.511511,151.03511 28.595301,151.09461 C 28.679076,151.15417 28.792239,151.18398 28.934806,151.18398 L 29.103612,151.18398 z M 34.393139,149.58522 L 32.596199,149.58522 L 32.382364,150.18998 C 32.312337,150.3915 32.277331,150.55792 32.277331,150.68924 C 32.277331,150.86326 32.334852,150.99161 32.449892,151.07402 C 32.517421,151.12292 32.683729,151.15947 32.948831,151.18398 L 32.948831,151.35348 L 31.256939,151.35348 L 31.256939,151.18398 C 31.439508,151.15033 31.58957,151.05799 31.707109,150.90678 C 31.824648,150.75568 31.969713,150.44336 32.142274,149.97 L 33.961728,145.0137 L 34.032997,145.0137 L 35.867456,150.10748 C 36.042516,150.58998 36.186324,150.89379 36.298867,151.01902 C 36.383898,151.11369 36.503936,151.16863 36.659008,151.18398 L 36.659008,151.35348 L 34.198063,151.35348 L 34.198063,151.18398 L 34.299356,151.18398 C 34.49693,151.18398 34.635727,151.15033 34.715762,151.08322 C 34.770784,151.03434 34.798295,150.96402 34.798295,150.87249 C 34.798295,150.81749 34.790785,150.76097 34.775781,150.70302 C 34.770784,150.67553 34.733265,150.56096 34.663238,150.35935 L 34.393139,149.58522 z M 34.265592,149.24636 L 33.507804,147.10716 L 32.727501,149.24636 L 34.265592,149.24636 z M 40.41043,149.23714 L 41.790964,145.14196 L 43.861758,145.14196 L 43.861758,145.31143 L 43.696692,145.31143 C 43.54663,145.31143 43.426578,145.34359 43.33655,145.40763 C 43.274018,145.45044 43.224008,145.52219 43.186489,145.62294 C 43.158978,145.69622 43.145229,145.88718 43.145229,146.19555 L 43.145229,150.29074 C 43.145229,150.60826 43.158978,150.80684 43.186489,150.88626 C 43.214,150.96564 43.270278,151.03511 43.35531,151.09461 C 43.440341,151.15417 43.554125,151.18398 43.696692,151.18398 L 43.861758,151.18398 L 43.861758,151.35348 L 41.205737,151.35348 L 41.205737,151.18398 L 41.370804,151.18398 C 41.520851,151.18398 41.640903,151.15185 41.730945,151.08778 C 41.793463,151.045 41.843474,150.97164 41.880993,150.86782 C 41.908504,150.79463 41.922252,150.60225 41.922266,150.29074 L 41.922266,145.68708 L 39.971525,151.35348 L 39.881482,151.35348 L 37.900731,145.72828 L 37.900731,150.10291 C 37.900731,150.40825 37.906984,150.59608 37.91949,150.6663 C 37.951998,150.81901 38.022646,150.94352 38.131434,151.03971 C 38.240236,151.1359 38.41092,151.18398 38.643514,151.18398 L 38.643514,151.35348 L 36.902838,151.35348 L 36.902838,151.18398 L 36.955362,151.18398 C 37.067905,151.18696 37.172952,151.16484 37.27049,151.11755 C 37.368028,151.07023 37.441795,151.00677 37.49182,150.92739 C 37.541845,150.84804 37.580606,150.73652 37.608117,150.59303 C 37.613114,150.55943 37.615613,150.40368 37.615613,150.12584 L 37.615613,146.19555 C 37.615613,145.881 37.601864,145.68486 37.574353,145.607 C 37.546842,145.52909 37.490564,145.46033 37.405532,145.40083 C 37.320501,145.34127 37.206716,145.31143 37.06415,145.31143 L 36.902838,145.31143 L 36.902838,145.14196 L 38.981142,145.14196 L 40.41043,149.23714 z M 47.193027,149.58522 L 45.39609,149.58522 L 45.182257,150.18998 C 45.112231,150.3915 45.077217,150.55792 45.077219,150.68924 C 45.077217,150.86326 45.134739,150.99161 45.249784,151.07402 C 45.317308,151.12292 45.483622,151.15947 45.748725,151.18398 L 45.748725,151.35348 L 44.056834,151.35348 L 44.056834,151.18398 C 44.239403,151.15033 44.38945,151.05799 44.507004,150.90678 C 44.624543,150.75568 44.769593,150.44336 44.942166,149.97 L 46.761612,145.0137 L 46.832889,145.0137 L 48.667339,150.10748 C 48.842402,150.58998 48.986204,150.89379 49.098754,151.01902 C 49.18378,151.11369 49.303826,151.16863 49.458892,151.18398 L 49.458892,151.35348 L 46.997951,151.35348 L 46.997951,151.18398 L 47.099241,151.18398 C 47.296812,151.18398 47.435615,151.15033 47.515649,151.08322 C 47.570667,151.03434 47.598177,150.96402 47.598181,150.87249 C 47.598177,150.81749 47.590674,150.76097 47.575673,150.70302 C 47.570667,150.67553 47.533152,150.56096 47.463129,150.35935 L 47.193027,149.58522 z M 47.065478,149.24636 L 46.307688,147.10716 L 45.52739,149.24636 L 47.065478,149.24636 z M 51.462157,145.14196 L 53.971864,148.99432 L 53.971864,146.32383 C 53.971862,145.95122 53.928093,145.69935 53.840566,145.56804 C 53.720514,145.39088 53.519188,145.30543 53.236585,145.31143 L 53.236585,145.14196 L 54.917228,145.14196 L 54.917228,145.31143 C 54.702138,145.3451 54.55771,145.38864 54.483934,145.44201 C 54.410154,145.4955 54.352631,145.58247 54.31137,145.70318 C 54.270099,145.82376 54.249465,146.03067 54.249471,146.32383 L 54.249471,151.49544 L 54.121924,151.49544 L 50.681859,146.32383 L 50.681859,150.27237 C 50.681856,150.62966 50.748758,150.87088 50.882559,150.99618 C 51.01636,151.1213 51.169544,151.18398 51.342111,151.18398 L 51.462157,151.18398 L 51.462157,151.35348 L 49.657718,151.35348 L 49.657718,151.18398 C 49.937825,151.18087 50.132899,151.11065 50.242942,150.97325 C 50.352983,150.83576 50.408003,150.60225 50.408003,150.27237 L 50.408003,145.88862 L 50.299213,145.72371 C 50.191671,145.55891 50.096633,145.45044 50.014105,145.3985 C 49.931572,145.34657 49.812776,145.31762 49.657718,145.31143 L 49.657718,145.14196 L 51.462157,145.14196 z M 58.297268,149.58522 L 56.500331,149.58522 L 56.286499,150.18998 C 56.216472,150.3915 56.181457,150.55792 56.18146,150.68924 C 56.181457,150.86326 56.238981,150.99161 56.354025,151.07402 C 56.421549,151.12292 56.587863,151.15947 56.852965,151.18398 L 56.852965,151.35348 L 55.16107,151.35348 L 55.16107,151.18398 C 55.343639,151.15033 55.493697,151.05799 55.611241,150.90678 C 55.728786,150.75568 55.873841,150.44336 56.046408,149.97 L 57.865853,145.0137 L 57.937131,145.0137 L 59.771579,150.10748 C 59.946644,150.58998 60.090446,150.89379 60.202996,151.01902 C 60.288022,151.11369 60.408066,151.16863 60.563133,151.18398 L 60.563133,151.35348 L 58.102194,151.35348 L 58.102194,151.18398 L 58.203482,151.18398 C 58.401053,151.18398 58.539858,151.15033 58.619891,151.08322 C 58.674907,151.03434 58.702417,150.96402 58.702423,150.87249 C 58.702417,150.81749 58.694916,150.76097 58.679914,150.70302 C 58.674907,150.67553 58.637396,150.56096 58.56737,150.35935 L 58.297268,149.58522 z M 58.169718,149.24636 L 57.411929,147.10716 L 56.63163,149.24636 L 58.169718,149.24636 z M 65.500018,145.14196 L 65.500018,146.82316 L 65.364965,146.82316 C 65.284929,146.43525 65.196147,146.15661 65.098612,145.98714 C 65.001072,145.81768 64.867271,145.68252 64.69721,145.58174 C 64.602172,145.52676 64.435858,145.49926 64.198268,145.49926 L 63.819377,145.49926 L 63.819377,150.29074 C 63.819371,150.60826 63.833752,150.80684 63.862516,150.88626 C 63.891275,150.96564 63.947546,151.03511 64.031332,151.09461 C 64.11511,151.15417 64.229527,151.18398 64.374587,151.18398 L 64.543402,151.18398 L 64.543402,151.35348 L 61.879886,151.35348 L 61.879886,151.18398 L 62.0487,151.18398 C 62.196253,151.18398 62.31505,151.15185 62.405087,151.08778 C 62.470109,151.045 62.521379,150.97164 62.558893,150.86782 C 62.586404,150.79463 62.600159,150.60225 62.600161,150.29074 L 62.600161,145.49926 L 62.23252,145.49926 C 61.889889,145.49926 61.641043,145.58784 61.485986,145.76501 C 61.268402,146.01231 61.13085,146.36503 61.073326,146.82316 L 60.930773,146.82316 L 60.930773,145.14196 L 65.500018,145.14196 z M 69.61909,145.14196 L 72.128799,148.99432 L 72.128799,146.32383 C 72.128794,145.95122 72.085029,145.69935 71.997497,145.56804 C 71.87745,145.39088 71.676121,145.30543 71.393518,145.31143 L 71.393518,145.14196 L 73.074159,145.14196 L 73.074159,145.31143 C 72.859074,145.3451 72.714643,145.38864 72.64087,145.44201 C 72.567085,145.4955 72.509565,145.58247 72.468303,145.70318 C 72.427032,145.82376 72.406401,146.03067 72.406405,146.32383 L 72.406405,151.49544 L 72.278855,151.49544 L 68.838792,146.32383 L 68.838792,150.27237 C 68.838792,150.62966 68.90569,150.87088 69.039494,150.99618 C 69.173293,151.1213 69.326476,151.18398 69.499043,151.18398 L 69.61909,151.18398 L 69.61909,151.35348 L 67.81465,151.35348 L 67.81465,151.18398 C 68.094756,151.18087 68.289832,151.11065 68.399873,150.97325 C 68.509916,150.83576 68.564936,150.60225 68.564939,150.27237 L 68.564939,145.88862 L 68.456146,145.72371 C 68.348604,145.55891 68.253568,145.45044 68.171037,145.3985 C 68.088506,145.34657 67.969712,145.31762 67.81465,145.31143 L 67.81465,145.14196 L 69.61909,145.14196 z M 76.454201,149.58522 L 74.657264,149.58522 L 74.443432,150.18998 C 74.373404,150.3915 74.338392,150.55792 74.338392,150.68924 C 74.338392,150.86326 74.395912,150.99161 74.510959,151.07402 C 74.578484,151.12292 74.744797,151.15947 75.009899,151.18398 L 75.009899,151.35348 L 73.318002,151.35348 L 73.318002,151.18398 C 73.500573,151.15033 73.650629,151.05799 73.768175,150.90678 C 73.885719,150.75568 74.030775,150.44336 74.203339,149.97 L 76.022785,145.0137 L 76.094064,145.0137 L 77.928515,150.10748 C 78.103576,150.58998 78.247382,150.89379 78.359929,151.01902 C 78.444956,151.11369 78.565002,151.16863 78.720066,151.18398 L 78.720066,151.35348 L 76.259125,151.35348 L 76.259125,151.18398 L 76.360414,151.18398 C 76.557986,151.18398 76.696789,151.15033 76.776824,151.08322 C 76.831842,151.03434 76.859353,150.96402 76.859355,150.87249 C 76.859353,150.81749 76.85185,150.76097 76.836847,150.70302 C 76.831842,150.67553 76.794327,150.56096 76.724303,150.35935 L 76.454201,149.58522 z M 76.326654,149.24636 L 75.568864,147.10716 L 74.788566,149.24636 L 76.326654,149.24636 z M 82.418979,145 L 82.460244,147.07047 L 82.306438,147.07047 C 82.233905,146.55133 82.055713,146.13367 81.771856,145.81768 C 81.487997,145.50159 81.181002,145.34359 80.850882,145.34359 C 80.59578,145.34359 80.393829,145.4268 80.245024,145.59322 C 80.096217,145.75964 80.021813,145.95122 80.021813,146.16807 C 80.021813,146.30546 80.048072,146.42763 80.100593,146.53457 C 80.173119,146.67808 80.289415,146.82004 80.449477,146.96049 C 80.567021,147.06127 80.838374,147.23995 81.263537,147.49652 C 81.858762,147.85375 82.260164,148.19126 82.467749,148.50877 C 82.672822,148.82647 82.77536,149.18984 82.775366,149.59899 C 82.77536,150.11813 82.609671,150.56474 82.278301,150.93893 C 81.94692,151.31292 81.526137,151.5 81.015943,151.5 C 80.85588,151.5 80.704573,151.48013 80.562019,151.44043 C 80.419465,151.40075 80.240645,151.32588 80.025566,151.21599 C 79.905517,151.1549 79.806732,151.12435 79.729203,151.12435 C 79.664175,151.12435 79.595399,151.1549 79.522873,151.21599 C 79.450345,151.27706 79.391574,151.37022 79.346557,151.49544 L 79.207754,151.49544 L 79.207754,149.15017 L 79.346557,149.15017 C 79.456596,149.80975 79.668554,150.31286 79.982424,150.65949 C 80.296291,151.00604 80.634547,151.17942 80.997185,151.17942 C 81.27729,151.17942 81.5005,151.0862 81.666817,150.89999 C 81.833128,150.71359 81.916285,150.49683 81.916288,150.24945 C 81.916285,150.10291 81.884398,149.96086 81.820626,149.82351 C 81.756847,149.68605 81.659936,149.55546 81.52989,149.43177 C 81.399837,149.30817 81.16975,149.14704 80.839626,148.94862 C 80.376948,148.67063 80.044322,148.43398 79.841744,148.23853 C 79.639167,148.04317 79.483484,147.82481 79.37469,147.58353 C 79.265899,147.34222 79.211504,147.07666 79.211504,146.78645 C 79.211504,146.29176 79.360309,145.87034 79.657924,145.52218 C 79.955537,145.17413 80.33068,145 80.783353,145 C 80.948416,145 81.108476,145.02447 81.263537,145.07336 C 81.381081,145.10991 81.524259,145.17789 81.693076,145.27712 C 81.86189,145.37638 81.980059,145.426 82.047588,145.42598 C 82.112608,145.426 82.163878,145.40162 82.201396,145.35272 C 82.238908,145.30382 82.27392,145.1863 82.306438,145 L 82.418979,145 z M 85.900309,151.18398 L 85.900309,151.35348 L 83.240542,151.35348 L 83.240542,151.18398 L 83.409359,151.18398 C 83.556912,151.18398 83.675709,151.15185 83.765743,151.08778 C 83.830767,151.045 83.880786,150.97164 83.915801,150.86782 C 83.943311,150.79463 83.957066,150.60225 83.957066,150.29074 L 83.957066,146.2047 C 83.957066,145.88718 83.943311,145.6886 83.915801,145.60918 C 83.88829,145.5298 83.832644,145.46033 83.748862,145.40083 C 83.66508,145.34127 83.551912,145.31143 83.409359,145.31143 L 83.240542,145.31143 L 83.240542,145.14196 L 85.900309,145.14196 L 85.900309,145.31143 L 85.731495,145.31143 C 85.583936,145.31143 85.465142,145.34359 85.375109,145.40763 C 85.310081,145.45044 85.258811,145.52377 85.221299,145.62752 C 85.193786,145.70079 85.180031,145.89319 85.180034,146.2047 L 85.180034,150.29074 C 85.180031,150.60826 85.194412,150.80684 85.223176,150.88626 C 85.251935,150.96564 85.308206,151.03511 85.391989,151.09461 C 85.475769,151.15417 85.588939,151.18398 85.731495,151.18398 L 85.900309,151.18398 z M 89.040258,145.05499 C 89.850564,145.01827 90.508938,145.30687 91.015387,145.92067 C 91.521827,146.53457 91.775048,147.30255 91.775054,148.22477 C 91.775048,149.01268 91.586226,149.70594 91.208585,150.30445 C 90.708391,151.09838 90.00187,151.49544 89.089025,151.49544 C 88.173675,151.49544 87.465906,151.11674 86.965715,150.35935 C 86.570566,149.76084 86.37299,149.05084 86.37299,148.22933 C 86.37299,147.30712 86.629962,146.53835 87.14391,145.92301 C 87.657854,145.30767 88.28997,145.01827 89.040258,145.05499 L 89.040258,145.05499 z M 89.085275,145.34815 C 88.620094,145.34816 88.26621,145.63827 88.023619,146.2185 C 87.826042,146.69482 87.727255,147.37894 87.727255,148.27067 C 87.727255,149.33029 87.879813,150.11356 88.18493,150.62052 C 88.397509,150.97478 88.695124,151.15185 89.077772,151.15185 C 89.335368,151.15185 89.550448,151.07555 89.723018,150.92283 C 89.943099,150.72738 90.114414,150.41515 90.236966,149.98611 C 90.359508,149.55708 90.42078,148.99746 90.420786,148.30723 C 90.42078,147.48573 90.358257,146.87127 90.233214,146.46355 C 90.108161,146.05584 89.948727,145.76806 89.754905,145.60001 C 89.561078,145.43217 89.337868,145.34816 89.085275,145.34815 L 89.085275,145.34815 z M 93.958387,145.14196 L 96.468094,148.99432 L 96.468094,146.32383 C 96.468091,145.95122 96.424323,145.69935 96.336796,145.56804 C 96.216744,145.39088 96.015418,145.30543 95.732816,145.31143 L 95.732816,145.14196 L 97.413458,145.14196 L 97.413458,145.31143 C 97.198368,145.3451 97.05394,145.38864 96.980164,145.44201 C 96.906384,145.4955 96.848861,145.58247 96.8076,145.70318 C 96.766329,145.82376 96.745695,146.03067 96.745701,146.32383 L 96.745701,151.49544 L 96.618152,151.49544 L 93.178089,146.32383 L 93.178089,150.27237 C 93.178086,150.62966 93.244988,150.87088 93.37879,150.99618 C 93.51259,151.1213 93.665774,151.18398 93.838341,151.18398 L 93.958387,151.18398 L 93.958387,151.35348 L 92.153948,151.35348 L 92.153948,151.18398 C 92.434055,151.18087 92.629129,151.11065 92.739172,150.97325 C 92.849213,150.83576 92.904234,150.60225 92.904234,150.27237 L 92.904234,145.88862 L 92.795443,145.72371 C 92.687902,145.55891 92.592864,145.45044 92.510335,145.3985 C 92.4278,145.34657 92.309006,145.31762 92.153948,145.31143 L 92.153948,145.14196 L 93.958387,145.14196 z M 100.7935,149.58522 L 98.996561,149.58522 L 98.782729,150.18998 C 98.712702,150.3915 98.677688,150.55792 98.677689,150.68924 C 98.677688,150.86326 98.735211,150.99161 98.850253,151.07402 C 98.917779,151.12292 99.084093,151.15947 99.349195,151.18398 L 99.349195,151.35348 L 97.6573,151.35348 L 97.6573,151.18398 C 97.839869,151.15033 97.989928,151.05799 98.107471,150.90678 C 98.225016,150.75568 98.370071,150.44336 98.542638,149.97 L 100.36208,145.0137 L 100.43336,145.0137 L 102.26781,150.10748 C 102.44287,150.58998 102.58668,150.89379 102.69923,151.01902 C 102.78425,151.11369 102.9043,151.16863 103.05936,151.18398 L 103.05936,151.35348 L 100.59842,151.35348 L 100.59842,151.18398 L 100.69971,151.18398 C 100.89728,151.18398 101.03609,151.15033 101.11612,151.08322 C 101.17114,151.03434 101.19865,150.96402 101.19865,150.87249 C 101.19865,150.81749 101.19114,150.76097 101.17614,150.70302 C 101.17114,150.67553 101.13362,150.56096 101.0636,150.35935 L 100.7935,149.58522 z M 100.66595,149.24636 L 99.908159,147.10716 L 99.127861,149.24636 L 100.66595,149.24636 z M 108,149.17301 L 107.80868,151.35348 L 103.29195,151.35348 L 103.29195,151.18398 L 103.46077,151.18398 C 103.60832,151.18398 103.72712,151.15185 103.81715,151.08778 C 103.88218,151.045 103.93219,150.97164 103.96721,150.86782 C 103.99472,150.79463 104.00848,150.60225 104.00848,150.29074 L 104.00848,146.2047 C 104.00848,145.88718 103.99472,145.6886 103.96721,145.60918 C 103.9397,145.5298 103.88405,145.46033 103.80027,145.40083 C 103.71649,145.34127 103.60332,145.31143 103.46077,145.31143 L 103.29195,145.31143 L 103.29195,145.14196 L 106.00424,145.14196 L 106.00424,145.31143 L 105.7829,145.31143 C 105.63534,145.31143 105.51655,145.34359 105.42652,145.40763 C 105.36149,145.45044 105.31022,145.52377 105.27271,145.62752 C 105.2452,145.70079 105.23144,145.89319 105.23144,146.2047 L 105.23144,150.16238 C 105.23144,150.48008 105.24644,150.68233 105.27646,150.76939 C 105.30647,150.85645 105.36524,150.92137 105.45278,150.96402 C 105.5153,150.99161 105.66661,151.00532 105.9067,151.00531 L 106.33061,151.00531 C 106.60071,151.00532 106.8258,150.94727 107.00587,150.83119 C 107.18594,150.71521 107.34162,150.53195 107.47292,150.2815 C 107.60422,150.03108 107.72864,149.66168 107.84619,149.17301 L 108,149.17301 z"
       id="flowRoot2485" />
  </g>
</svg>
