<svg enable-background="new 0 0 382 432" height="336.282526" viewBox="0 0 382 432" width="297.369004" xmlns="http://www.w3.org/2000/svg"><path clip-rule="evenodd" d="m191 5.9c95.9 0 173.6 77.7 173.6 173.6s-77.7 173.6-173.6 173.6-173.6-77.7-173.6-173.6c0-95.9 77.7-173.6 173.6-173.6" fill="#fff" fill-rule="evenodd"/><path clip-rule="evenodd" d="m191 11.7c92.6 0 167.7 75.1 167.7 167.7s-75.1 167.7-167.7 167.7-167.7-75.1-167.7-167.7 75.1-167.7 167.7-167.7" fill="#010101" fill-rule="evenodd"/><path clip-rule="evenodd" d="m191 32.5c81.1 0 146.9 65.8 146.9 146.9s-65.8 146.9-146.9 146.9-146.9-65.8-146.9-146.9c0-81.1 65.8-146.9 146.9-146.9" fill="#d51f27" fill-rule="evenodd"/><path clip-rule="evenodd" d="m237.4 319.1c-1.8-39.2 0-70.2 6.8-104.6 3.1 0 5.7 1.4 9 2.1 11 2.2 26.8-2.5 29.9-7.8-1.4-.4-2.8-1-4.2-1.8 1.8-1.2 4.4-2.3 6.1-3.5-6.3-.4-10.1-3.8-9.8-10 24.2-9.4 38-26.6 40.3-42.4 4.1-27.6-7.3-55.4-40.3-56.5 33.9 22.7 24.2 64.7-20.3 64.5-17.8-13.3-37.1-18.5-58.3-11.7-17.5-9.9-45.2-13.4-68.5-4-7.5.7-15.3-2.4-20.5-4.8-22.3-10.4-16.8-35 3.3-48.6 7.7-5.2 20.4-8.9 30.4-10.7-86.3-11.3-102.3 93.8-30.1 102.2-9.1 7.4-17.9 4.7-25.5 3.8 2.5 11.2 13 16.6 23.1 17.2-29.8 20.7-43.8 28.7-56.3 26.6 26.7 82.7 119.5 117.4 184.9 90" fill="#010101" fill-rule="evenodd"/><path clip-rule="evenodd" d="m231.7 196.2c-2.6 2.7-5.4 5.7-8 8.4.4 6.2-4.7 8.3-9.3 5.9-2.5.9-4.9 1.8-7.4 2.7 10.2 5.7 28-1.4 24.7-17" fill="#d51f27" fill-rule="evenodd"/><path clip-rule="evenodd" d="m144.5 192.4 9.7 9.7c-2.1 8.4 6.8 7.8 7.9 6.1 2.6.7 5.3 1.4 7.9 2.1-12.1 7.1-26-1-25.5-17.9" fill="#d51f27" fill-rule="evenodd"/><path clip-rule="evenodd" d="m173.4 254.1c2.5-2.1 5.6-2.7 9-1.9 4.2.4 8.5.4 12.6 0 3.8-1 7.1.1 9 1.9 4.6 4.2 5.1 8 5.4 10.9-.3 6-8.4 3.3-11.2 1.9-6.6-2.6-13-2.6-19.1 0-4.2 2.1-11.2 3.1-11.2-1.9.5-4.5 2.3-8.1 5.5-10.9z" fill="#fff" fill-rule="evenodd"/><path d="m205.1 269.2c-2.5 0-5.4-1.1-7-1.8-6.3-2.5-12.7-2.5-18.8 0-3.2 1.6-7.7 2.4-10 1-1.1-.7-1.6-1.8-1.6-3.3.4-4.6 2.2-8.3 5.5-11.2 2.5-2.1 5.7-2.8 9.3-2 4.2.4 8.4.4 12.5 0 3.5-.9 6.9-.2 9.3 2 4.5 4.1 5.2 7.8 5.5 11.2-.1 1.7-.7 2.8-1.8 3.5-.9.4-1.9.6-2.9.6zm-16.5-4.5c3.2 0 6.5.7 9.8 2 1.7.9 6.7 2.7 9.2 1.2.9-.5 1.4-1.5 1.5-2.8-.3-3.2-.9-6.7-5.3-10.7-2.2-2-5.4-2.7-8.7-1.8-4.2.4-8.5.4-12.7 0-3.5-.8-6.4-.2-8.8 1.8-3.1 2.8-4.9 6.4-5.3 10.7 0 1.2.4 2.1 1.3 2.6 2.1 1.3 6.3.5 9.3-1 3.2-1.3 6.5-2 9.7-2z" fill="#010101"/><path clip-rule="evenodd" d="m175.2 255.8c2.1 3.4 3.3 3.6 5.4 4.2 2.7 1.4 1.3 4-1 3.8-2.2-.3-5.9-2.9-4.4-8z" fill="#211f1f" fill-rule="evenodd"/><path d="m179.9 264.1c-.1 0-.2 0-.3 0-1.2-.1-3-.8-4.1-2.5-.8-1.1-1.5-3-.7-5.9l.2-.8.4.7c2 3.1 3 3.4 5 3.9l.3.1c1.6.8 1.9 2 1.7 2.8-.3 1-1.3 1.7-2.5 1.7zm-4.6-7.4c-.3 1.7-.1 3.2.8 4.5 1 1.4 2.5 2.1 3.6 2.2s1.8-.5 2-1.1c.2-.7-.3-1.4-1.2-2h-.2c-1.9-.6-3.1-.9-5-3.6z" fill="#010101"/><path clip-rule="evenodd" d="m202.4 255.8c-2.1 3.4-3.3 3.6-5.4 4.2-2.7 1.4-1.3 4 1 3.8 2.3-.3 6-2.9 4.4-8z" fill="#211f1f" fill-rule="evenodd"/><path d="m197.7 264.1c-1.2 0-2.2-.7-2.5-1.7-.2-.8.1-2 1.6-2.8l.3-.1c2-.5 3-.8 5-3.9l.4-.7.2.8c.8 2.8.1 4.7-.7 5.9-1.2 1.7-3 2.4-4.1 2.5 0 0-.1 0-.2 0zm4.6-7.4c-1.8 2.7-3 3-4.9 3.6l-.3.1c-.9.5-1.4 1.2-1.2 1.9.2.6.9 1.2 2 1.1s2.6-.8 3.6-2.2c.9-1.3 1.1-2.8.8-4.5z" fill="#010101"/><path clip-rule="evenodd" d="m177.9 269.5c6.9-3.3 13.5-3.4 21.4-.2-.3 2.1-1.1 2.8-2.5 3.3-3.9 1.4-12.4 1.6-16.3 0-1.4-.5-2-1.6-2.6-3.1z" fill="#fff" fill-rule="evenodd"/><g fill="#010101"><path d="m188.3 274.1c-3 0-6-.3-8-1.1-1.6-.6-2.2-1.9-2.8-3.3l-.1-.3.3-.1c7.1-3.3 13.8-3.4 21.7-.2l.3.1v.3c-.4 2.3-1.2 3.1-2.7 3.6-2.1.6-5.4 1-8.7 1zm-9.9-4.4c.6 1.3 1.1 2.1 2.3 2.6 3.9 1.6 12.2 1.3 16 0 1.2-.4 1.9-.9 2.2-2.7-7.5-3-13.8-3-20.5.1z"/><path d="m1.8 425.2v-33.3h16.6c3.1 0 5.6.9 7.3 2.8s2.6 4.5 2.6 8c0 3.4-.9 6.1-2.6 8s-4.1 2.8-7.3 2.8h-8v11.7zm13.3-26.1h-4.7v7.2h4.7c1.4 0 2.4-.3 2.9-.8s.8-1.5.8-2.8-.3-2.3-.8-2.8-1.5-.8-2.9-.8z"/><path d="m31.2 391.9h14.2c4.6 0 8.1 1.4 10.5 4.3 2.4 2.8 3.6 7 3.6 12.4s-1.2 9.6-3.6 12.4-5.9 4.2-10.5 4.2h-14.2zm8.6 8.2v16.2h4.2c2.2 0 3.8-.6 4.8-1.9s1.4-3.3 1.4-6.2-.5-4.9-1.5-6.2-2.6-1.9-4.8-1.9z"/><path d="m63.2 425.2v-33.3h8.6v33.3z"/><path d="m91.3 425.2v-33.3h16.6c3.1 0 5.6.9 7.3 2.8s2.6 4.5 2.6 8c0 3.4-.9 6.1-2.6 8s-4.1 2.8-7.3 2.8h-8v11.7zm13.3-26.1h-4.7v7.2h4.7c1.4 0 2.4-.3 2.9-.8s.8-1.5.8-2.8-.3-2.3-.8-2.8c-.6-.5-1.5-.8-2.9-.8z"/><path d="m120.6 425.2v-33.3h23.5v8.2h-14.9v4h12.1v8.2h-12.1v4.4h15.6v8.6h-24.2z"/><path d="m164.5 391.9c1.9 0 3.5.1 4.6.4 1.2.3 2.1.7 2.7 1.3.8.7 1.5 1.7 1.9 3 .4 1.2.7 2.7.7 4.3 0 2-.3 3.7-1 5.2-.6 1.5-1.5 2.6-2.7 3.2 1 .6 1.7 1.4 2.1 2.3s.6 2.5.7 4.8v1.1c.1 4.4.5 6.8 1.2 7.2v.5h-9.6c-.3-.7-.5-2.1-.5-4.1 0-1.2-.1-2.1-.1-2.7-.1-1.2-.4-2.1-.8-2.6-.5-.5-1.2-.7-2.3-.7h-5.1v10.1h-8.7v-33.3zm-8.2 14.4h5c1.3 0 2.2-.2 2.8-.7.5-.5.8-1.2.8-2.3s-.3-1.8-.8-2.3c-.5-.4-1.5-.6-3-.6h-4.8z"/><path d="m176.1 411h8.6v.5c0 2 .2 3.5.6 4.5s1.1 1.4 2 1.4c1 0 1.7-.5 2.1-1.4s.6-2.8.6-5.6v-18.5h8.6v17.1c0 3.9-.1 6.6-.3 8.2s-.6 2.9-1.2 4c-.8 1.6-2 2.8-3.6 3.6s-3.5 1.2-5.8 1.2c-4.2 0-7.2-1.1-9-3.2s-2.7-5.6-2.7-10.5v-1.3z"/><path d="m211.6 391.9v16.3c0 3.3.3 5.7 1 7s1.8 1.9 3.5 1.9 2.8-.6 3.5-1.9 1-3.6 1-7v-16.3h8.6v17.5c0 5.8-1 10-3.1 12.7s-5.4 4-10 4c-4.5 0-7.8-1.4-9.9-4.1s-3.2-6.9-3.2-12.7v-17.5h8.6z"/><path d="m230.2 425.2 9.6-33.3h10.9l9 33.3h-9.3l-.7-3.3h-9.4l-.8 3.3zm12-11.5h5.5l-2.7-11.7z"/><path d="m261.2 425.2v-33.3h10.2l8.6 19.2v-19.2h8.3v33.3h-9.6l-9.3-19.5v19.5z"/><path d="m316.5 422.3c-1 1.3-2.3 2.3-3.8 2.9-1.6.6-3.5.9-5.9.9-4.9 0-8.7-1.5-11.2-4.4s-3.8-7.3-3.8-13.1 1.3-10.2 3.8-13.1 6.2-4.4 11.2-4.4c4.1 0 7.5 1.1 10 3.2s3.9 5.1 4.2 8.8h-9.4c-.5-1.4-1.1-2.4-1.8-3-.8-.7-1.7-1-2.7-1-1.8 0-3.2.9-4.3 2.6s-1.6 4-1.6 7c0 2.9.5 5.2 1.6 6.9 1.1 1.6 2.6 2.4 4.5 2.4 1.4 0 2.6-.4 3.6-1.2.9-.8 1.5-1.8 1.7-3.2h-3.6v-7.2h12.4v18.9h-3.9z"/><path d="m322.1 425.2 9.6-33.3h10.9l9 33.3h-9.3l-.7-3.3h-9.4l-.8 3.3zm12-11.5h5.5l-2.6-11.7z"/><path d="m353.1 425.2v-33.3h10.2l8.6 19.2v-19.2h8.3v33.3h-9.6l-9.3-19.5v19.5z"/></g></svg>