<?xml version="1.0" encoding="utf-8"?>
<!-- Generator: Adobe Illustrator 16.0.0, SVG Export Plug-In . SVG Version: 6.00 Build 0)  -->
<!DOCTYPE svg PUBLIC "-//W3C//DTD SVG 1.1//EN" "http://www.w3.org/Graphics/SVG/1.1/DTD/svg11.dtd">
<svg version="1.1"
	 id="svg2985" xmlns:dc="http://purl.org/dc/elements/1.1/" xmlns:cc="http://creativecommons.org/ns#" xmlns:rdf="http://www.w3.org/1999/02/22-rdf-syntax-ns#"
	 xmlns="http://www.w3.org/2000/svg" xmlns:xlink="http://www.w3.org/1999/xlink" x="0px" y="0px" width="600px" height="400px"
	 viewBox="0 0 600 400" enable-background="new 0 0 600 400" xml:space="preserve">
<g>
</g>
<rect fill="#004D99" width="600" height="400"/>
<rect y="133.403" fill="#87BFE4" width="600" height="134.968"/>
<g>
	<path id="path3783" fill="#DA251C" d="M131.759,315.807l120.521-125.161l48.033-167.13l48.033,167.13L468.87,315.807
		l-168.557-40.81L131.759,315.807z"/>
	<path id="path3785" fill="#FEFEFE" d="M300.313,218.805l48.033-28.159l-48.033-167.13V218.805z"/>
	<path id="path3787" fill="#FEFEFE" d="M300.313,218.805l-48.033-28.159L131.759,315.807L300.313,218.805z"/>
	<path id="path3789" fill="#FEFEFE" d="M300.313,218.805l168.557,97.002l-168.557-40.81V218.805z"/>
</g>
<g>
	<path fill="#FEFEFE" d="M33.553,339.785v-2.02c5.043,0.201,8.995,0.301,11.854,0.301l9.177-0.137c2.731,0,4.889,0.291,6.473,0.873
		s2.868,1.646,3.851,3.193s1.475,3.42,1.475,5.621c0,3.531-1.201,6.438-3.602,8.719c-2.402,2.285-5.686,3.426-9.852,3.426
		c-1.292,0-2.902-0.154-4.831-0.465c0.036,4.877,0.055,7.697,0.055,8.461l-0.027,1.992c0,1.746,0.146,2.793,0.437,3.139
		c0.473,0.582,2.156,1.045,5.049,1.391c0.328,0.037,0.819,0.1,1.474,0.191v2.02c-5.21-0.201-8.972-0.301-11.285-0.301
		c-2.678,0-6.093,0.1-10.247,0.301v-2.02c3.202-0.564,4.99-1.01,5.363-1.338c0.373-0.326,0.596-0.936,0.668-1.828
		c0.072-0.891,0.146-5.82,0.218-14.791l-0.041-8.268c-0.027-3.33-0.095-5.285-0.205-5.867s-0.346-1.002-0.709-1.256
		c-0.473-0.328-1.838-0.701-4.093-1.119C34.481,339.969,34.081,339.895,33.553,339.785z M48.098,356.215
		c1.109,0.107,2.065,0.162,2.866,0.162c2.11,0,3.756-0.645,4.939-1.938c1.182-1.291,1.773-3.291,1.773-6.004
		c0-2.4-0.583-4.219-1.747-5.457c-1.164-1.236-2.82-1.855-4.966-1.855c-0.819,0-1.774,0.092-2.866,0.273V356.215z"/>
	<path fill="#FEFEFE" d="M84.464,376.49v-2.02c2.201-0.4,3.474-0.73,3.819-0.984c0.345-0.256,0.519-0.602,0.519-1.041
		c0-0.254-0.055-0.547-0.164-0.875c-0.291-0.766-1.235-3.064-2.833-6.896c-2.56-0.055-4.693-0.082-6.4-0.082
		c-1.398,0-3.731,0.027-6.999,0.082c-2.041,4.779-3.062,7.398-3.062,7.854c0,0.439,0.146,0.762,0.437,0.973
		c0.291,0.209,1.583,0.533,3.875,0.971v2.02c-2.292-0.201-4.485-0.301-6.577-0.301c-2.256,0-4.548,0.1-6.877,0.301v-2.02
		c1.637-0.346,2.765-0.738,3.384-1.178c0.418-0.291,0.8-0.729,1.146-1.313c0.71-1.146,2.834-5.584,6.37-13.314
		c2.241-4.893,5.439-12.133,9.595-21.719h2.183c1.692,4.275,5.194,12.252,10.507,23.928c2.947,6.494,4.711,10.188,5.294,11.078
		c0.4,0.621,0.8,1.059,1.201,1.314c0.4,0.254,1.665,0.656,3.793,1.203v2.02c-3.22-0.201-6.213-0.301-8.979-0.301
		C91.969,376.189,88.558,376.289,84.464,376.49z M79.25,348.713l-5.58,12.85l5.406,0.027c1.292,0,3.149-0.008,5.57-0.027
		L79.25,348.713z"/>
	<path fill="#FEFEFE" d="M101.291,339.785v-2.02c6.154,0.201,9.787,0.301,10.898,0.301c1.183,0,2.895-0.031,5.134-0.096
		c2.239-0.063,3.887-0.096,4.944-0.096c2.713,0,4.825,0.346,6.336,1.037s2.727,1.793,3.646,3.303s1.379,3.193,1.379,5.049
		c0,1.582-0.328,3.105-0.982,4.57s-1.528,2.707-2.62,3.725c-0.709,0.674-1.847,1.402-3.411,2.184
		c1.237,2.129,3.047,5.141,5.431,9.033c1.744,2.855,2.883,4.566,3.418,5.131c0.535,0.563,1.111,1,1.728,1.309
		c0.943,0.438,2.666,0.855,5.169,1.256v2.02c-3.089-0.201-5.606-0.301-7.551-0.301c-2.054,0-4.579,0.1-7.578,0.301
		c-2.217-5.111-5.061-10.961-8.532-17.547c-1.046-0.037-2.138-0.109-3.275-0.219l0.109,11.352c0.036,1.402,0.154,2.271,0.354,2.607
		s0.482,0.578,0.846,0.723c0.254,0.127,1.883,0.482,4.885,1.064v2.02c-4.245-0.201-7.651-0.301-10.22-0.301
		c-2.533,0-5.903,0.1-10.111,0.301v-2.02c3.079-0.564,4.812-1,5.202-1.311c0.389-0.309,0.638-0.918,0.747-1.828
		c0.055-0.49,0.091-5.158,0.109-14l-0.024-8.131c0-3.82-0.064-6.123-0.194-6.904c-0.109-0.564-0.359-0.986-0.75-1.27
		c-0.392-0.281-1.678-0.613-3.861-0.996L101.291,339.785z M115.454,355.641c0.912,0.037,1.587,0.055,2.025,0.055
		c2.554,0,4.438-0.604,5.651-1.814c1.213-1.209,1.82-3.053,1.82-5.525c0-2.33-0.575-4.107-1.724-5.336s-2.709-1.842-4.68-1.842
		c-0.803,0-1.843,0.064-3.12,0.191L115.454,355.641z"/>
	<path fill="#FEFEFE" d="M173.188,349.256h-2.538c-1.255-3.84-2.024-6.014-2.306-6.523c-0.282-0.508-0.678-0.867-1.187-1.078
		c-0.509-0.209-2.128-0.313-4.857-0.313h-2.647v25.488c0,3.166,0.109,5.076,0.328,5.73c0.109,0.346,0.377,0.623,0.805,0.832
		c0.427,0.209,2.079,0.568,4.953,1.078v2.02c-5.549-0.201-9.115-0.301-10.697-0.301c-2.147,0-5.431,0.1-9.852,0.301v-2.02
		c2.911-0.51,4.639-0.91,5.185-1.201c0.363-0.199,0.614-0.531,0.75-0.996c0.136-0.463,0.205-2.369,0.205-5.717v-25.215h-4.585
		c-1.546,0-2.57,0.127-3.07,0.381c-0.5,0.256-0.914,0.719-1.242,1.393c-0.491,1.02-1.183,3.066-2.074,6.141h-2.483
		c0.31-2.676,0.5-4.521,0.573-5.541c0.073-1.018,0.154-3.002,0.246-5.949c7.205,0.201,14.245,0.283,21.122,0.246
		c5.822-0.055,10.006-0.137,12.553-0.246C172.387,341.277,172.66,345.107,173.188,349.256z"/>
	<path fill="#FEFEFE" d="M194.272,376.49v-2.02c2.201-0.4,3.474-0.73,3.819-0.984c0.345-0.256,0.519-0.602,0.519-1.041
		c0-0.254-0.055-0.547-0.164-0.875c-0.291-0.766-1.235-3.064-2.833-6.896c-2.56-0.055-4.693-0.082-6.4-0.082
		c-1.398,0-3.731,0.027-6.999,0.082c-2.041,4.779-3.062,7.398-3.062,7.854c0,0.439,0.146,0.762,0.437,0.973
		c0.291,0.209,1.583,0.533,3.875,0.971v2.02c-2.292-0.201-4.485-0.301-6.577-0.301c-2.256,0-4.548,0.1-6.877,0.301v-2.02
		c1.637-0.346,2.765-0.738,3.384-1.178c0.418-0.291,0.8-0.729,1.146-1.313c0.71-1.146,2.834-5.584,6.37-13.314
		c2.241-4.893,5.439-12.133,9.595-21.719h2.183c1.692,4.275,5.194,12.252,10.507,23.928c2.947,6.494,4.711,10.188,5.294,11.078
		c0.4,0.621,0.8,1.059,1.201,1.314c0.4,0.254,1.665,0.656,3.793,1.203v2.02c-3.22-0.201-6.213-0.301-8.979-0.301
		C201.776,376.189,198.365,376.289,194.272,376.49z M189.058,348.713l-5.58,12.85l5.406,0.027c1.292,0,3.149-0.008,5.57-0.027
		L189.058,348.713z"/>
	<path fill="#FEFEFE" d="M231.893,337.766v2.02l-1.01,0.137c-2.42,0.291-3.871,0.654-4.353,1.092
		c-0.482,0.438-0.723,1.283-0.723,2.537v0.982l-0.055,9.143l0.027,10.453l0.027,5.32c0,1.564,0.077,2.547,0.232,2.947
		c0.154,0.4,0.423,0.701,0.805,0.9c0.655,0.346,2.001,0.682,4.039,1.01c0.218,0.037,0.555,0.092,1.01,0.164v2.02
		c-3.729-0.201-7.013-0.301-9.852-0.301c-2.693,0-6.259,0.1-10.697,0.301v-2.02c2.825-0.527,4.374-0.846,4.646-0.955
		c0.416-0.164,0.733-0.4,0.951-0.709c0.271-0.418,0.417-1.273,0.435-2.566c0.036-3.02,0.055-8.158,0.055-15.418l-0.082-9.934v-0.818
		c0-1.455-0.209-2.393-0.627-2.811c-0.419-0.418-1.829-0.828-4.23-1.229c-0.273-0.055-0.665-0.137-1.173-0.246v-2.02
		c4.682,0.201,8.188,0.301,10.521,0.301C224.333,338.066,227.685,337.967,231.893,337.766z"/>
	<path fill="#FEFEFE" d="M241.586,339.785v-2.02c4.239,0.201,7.741,0.301,10.507,0.301c2.11,0,5.03-0.055,8.76-0.164
		c2.71-0.09,4.976-0.137,6.795-0.137c3.42,0,6.131,0.438,8.132,1.311c2.765,1.201,4.935,3.047,6.509,5.539
		c1.573,2.494,2.36,5.723,2.36,9.689c0,4.402-1.028,8.318-3.083,11.748c-2.056,3.428-4.949,6.107-8.678,8.035
		c-3.111,1.621-6.886,2.43-11.325,2.43c-0.418,0-2.111-0.059-5.076-0.178c-2.966-0.119-4.63-0.178-4.994-0.178
		c-1.273,0-4.576,0.109-9.906,0.328v-2.02l1.151-0.219c2.394-0.418,3.797-0.809,4.208-1.174c0.411-0.363,0.653-0.9,0.727-1.609
		c0.072-1.055,0.109-6.576,0.109-16.564c0-7.332-0.073-11.461-0.218-12.389c-0.091-0.637-0.318-1.102-0.682-1.393
		c-0.364-0.291-1.747-0.654-4.148-1.092L241.586,339.785z M256.241,372.861c2.201,0.363,4.048,0.545,5.54,0.545
		c4.185,0,7.341-1.236,9.47-3.711c2.71-3.166,4.066-7.76,4.066-13.781c0-5.166-1.201-9.088-3.602-11.762
		c-1.947-2.184-4.994-3.275-9.142-3.275c-1.747,0-3.857,0.174-6.331,0.52c-0.182,2.838-0.273,8.104-0.273,15.801
		C255.968,361.617,256.059,366.84,256.241,372.861z"/>
	<path fill="#FEFEFE" d="M284.584,339.785v-2.02c4.388,0.201,9.159,0.301,14.312,0.301c5.973,0,12.127-0.1,18.463-0.301
		c0.055,3.811,0.282,7.121,0.683,9.934h-2.323c-0.219-0.578-0.373-1.023-0.465-1.332c-0.893-2.59-1.594-4.094-2.104-4.51
		c-0.511-0.416-1.658-0.625-3.443-0.625h-10.44c-0.146,3.068-0.236,7.525-0.272,13.371l4.76,0.055c2.48,0,4.008-0.24,4.582-0.723
		c0.575-0.482,1.181-2.105,1.819-4.871h2.265c-0.2,2.674-0.3,5.031-0.3,7.068c0,1.945,0.1,4.375,0.3,7.285h-2.265
		c-0.511-2.934-1.003-4.617-1.478-5.051c-0.474-0.436-1.906-0.652-4.295-0.652h-5.362v15.256h10.862c1.2,0,2.001-0.074,2.401-0.221
		c0.637-0.238,1.219-0.66,1.746-1.266c1.109-1.227,2.41-3.17,3.902-5.828h2.401c-1.055,2.998-2.192,6.609-3.411,10.834
		c-6.204-0.201-12.689-0.301-19.457-0.301c-3.075,0-7.368,0.1-12.881,0.301v-2.02c3.02-0.545,4.749-0.982,5.185-1.311
		c0.601-0.418,0.9-1.473,0.9-3.164v-0.93l0.055-10.807v-8.732l-0.027-4.039c0-1.945-0.1-3.154-0.3-3.629
		c-0.201-0.473-0.587-0.846-1.16-1.119C288.664,340.469,287.113,340.15,284.584,339.785z"/>
	<path fill="#FEFEFE" d="M318.902,339.785v-2.02c3.257,0.201,5.939,0.301,8.05,0.301c2.256,0,4.703-0.1,7.341-0.301
		c0.765,2.074,1.767,4.531,3.006,7.369c3.388,7.641,6.384,14.127,8.989,19.457l6.887-14.846c1.094-2.42,1.963-4.406,2.61-5.963
		c0.646-1.555,1.426-3.561,2.337-6.018c3.449,0.201,5.954,0.301,7.516,0.301c1.344,0,3.776-0.1,7.299-0.301v2.02
		c-0.544,0.109-0.952,0.184-1.223,0.219c-2.337,0.4-3.691,0.764-4.063,1.092s-0.606,1.006-0.706,2.033s-0.149,5.152-0.149,12.375
		c0,9.17,0.009,13.955,0.027,14.355c0.054,1.438,0.158,2.318,0.313,2.646c0.153,0.328,0.349,0.564,0.584,0.709
		c0.634,0.365,1.965,0.701,3.994,1.01l1.223,0.246v2.02c-4.397-0.201-7.75-0.301-10.057-0.301c-2.381,0-5.896,0.1-10.548,0.301
		v-2.02c2.875-0.527,4.489-0.869,4.845-1.023c0.354-0.154,0.623-0.359,0.805-0.613c0.182-0.256,0.305-0.602,0.368-1.037
		c0.063-0.438,0.096-2.303,0.096-5.596c0.036-7.148,0.055-12.734,0.055-16.756c0-0.381-0.01-1.572-0.027-3.574
		c-1.001,2.074-4.66,10.152-10.976,24.232l-2.758,6.086h-2.101c-2.06-4.639-6.696-14.809-13.912-30.51
		c-0.036,2.385-0.054,4.404-0.054,6.059c0,9.078,0.081,15.082,0.245,18.012c0.091,1.674,0.182,2.611,0.273,2.811
		c0.127,0.346,0.399,0.627,0.818,0.846c0.418,0.219,1.655,0.5,3.711,0.846c0.255,0.055,0.628,0.127,1.119,0.219v2.02
		c-2.584-0.201-5.076-0.301-7.478-0.301c-2.42,0-5.176,0.1-8.269,0.301v-2.02c2.365-0.418,3.803-0.719,4.312-0.9
		c0.51-0.182,0.892-0.482,1.146-0.9s0.382-1.201,0.382-2.348l0.328-17.355c0.072-3.039,0.108-5.295,0.108-6.768
		c0-2.275-0.119-3.766-0.356-4.477c-0.146-0.436-0.425-0.764-0.836-0.982c-0.41-0.217-1.739-0.473-3.986-0.764
		C319.898,339.941,319.469,339.877,318.902,339.785z"/>
	<path fill="#FEFEFE" d="M372.953,357.742c0-6.24,1.915-11.266,5.744-15.078c3.83-3.811,8.965-5.717,15.405-5.717
		c6.076,0,10.848,1.715,14.313,5.145s5.198,8.02,5.198,13.768c0,3.656-0.682,6.986-2.046,9.988
		c-1.074,2.383-2.461,4.393-4.162,6.031c-1.701,1.637-3.443,2.855-5.226,3.656c-2.657,1.182-5.858,1.773-9.606,1.773
		c-6.222,0-11.048-1.719-14.477-5.158C374.668,368.713,372.953,363.91,372.953,357.742z M382.396,356.27
		c0,6.621,1.2,11.488,3.603,14.6c1.782,2.328,4.339,3.492,7.668,3.492c2.292,0,4.226-0.59,5.799-1.773
		c1.573-1.182,2.752-3.08,3.534-5.689c0.782-2.611,1.174-5.645,1.174-9.102c0-2.639-0.237-5.166-0.71-7.586
		c-0.474-2.42-1.119-4.313-1.938-5.678c-0.818-1.363-1.915-2.465-3.288-3.301c-1.374-0.838-3.034-1.256-4.98-1.256
		c-2.165,0-4.094,0.605-5.785,1.814c-1.692,1.211-2.961,3.111-3.808,5.703C382.818,350.088,382.396,353.012,382.396,356.27z"/>
	<path fill="#FEFEFE" d="M413.631,339.785v-2.02c3.511,0.201,6.977,0.301,10.397,0.301c3.493,0,6.913-0.1,10.261-0.301v2.016
		l-4.53,0.926c-0.563,0.199-0.964,0.48-1.2,0.844c-0.237,0.361-0.355,1.18-0.355,2.449l-0.054,12.412
		c5.493-5.367,9.432-9.51,11.814-12.43c1.128-1.381,1.692-2.289,1.692-2.725c0-0.309-0.191-0.545-0.573-0.709
		c-0.164-0.072-1.319-0.326-3.465-0.764v-2.02c3.475,0.201,6.286,0.301,8.433,0.301s4.794-0.1,7.941-0.301v2.02
		c-2.638,0.383-4.38,0.791-5.226,1.229c-0.847,0.436-2.17,1.545-3.971,3.324l-9.388,9.598c1.419,1.803,3.521,4.342,6.304,7.619
		c2.328,2.713,4.257,5.033,5.785,6.963s2.852,3.24,3.971,3.932c1.119,0.693,3.106,1.365,5.963,2.021v2.02
		c-3.512-0.201-7.068-0.301-10.67-0.301c-3.64,0-7.132,0.1-10.479,0.301v-2.02c1.652-0.182,2.716-0.428,3.188-0.736
		c0.291-0.199,0.437-0.473,0.437-0.818c0-0.291-0.318-0.846-0.955-1.664l-10.802-14.125l0.027,1.885v8.576
		c0,2.695,0.081,4.334,0.245,4.916c0.091,0.365,0.337,0.66,0.737,0.889c0.399,0.227,1.755,0.523,4.065,0.887
		c0.236,0.037,0.591,0.1,1.064,0.191v2.02c-3.475-0.201-6.604-0.301-9.388-0.301c-2.347,0-6.104,0.1-11.271,0.301v-2.02
		c3.111-0.527,4.921-0.982,5.431-1.365c0.346-0.254,0.546-0.717,0.601-1.391c0.091-0.928,0.137-6.131,0.137-15.609
		c0-8.006-0.041-12.422-0.123-13.25s-0.277-1.369-0.587-1.623C418.615,340.832,416.797,340.35,413.631,339.785z"/>
	<path fill="#FEFEFE" d="M454.362,339.785v-2.02c6.154,0.201,9.787,0.301,10.898,0.301c1.183,0,2.895-0.031,5.134-0.096
		c2.239-0.063,3.888-0.096,4.944-0.096c2.713,0,4.825,0.346,6.336,1.037c1.512,0.691,2.728,1.793,3.646,3.303s1.38,3.193,1.38,5.049
		c0,1.582-0.328,3.105-0.982,4.57c-0.655,1.465-1.528,2.707-2.62,3.725c-0.71,0.674-1.847,1.402-3.411,2.184
		c1.236,2.129,3.047,5.141,5.431,9.033c1.744,2.855,2.884,4.566,3.419,5.131c0.535,0.563,1.111,1,1.728,1.309
		c0.943,0.438,2.666,0.855,5.169,1.256v2.02c-3.09-0.201-5.606-0.301-7.551-0.301c-2.054,0-4.579,0.1-7.578,0.301
		c-2.217-5.111-5.061-10.961-8.531-17.547c-1.046-0.037-2.138-0.109-3.274-0.219l0.108,11.352c0.036,1.402,0.154,2.271,0.355,2.607
		c0.199,0.336,0.481,0.578,0.846,0.723c0.255,0.127,1.883,0.482,4.885,1.064v2.02c-4.245-0.201-7.651-0.301-10.22-0.301
		c-2.532,0-5.903,0.1-10.111,0.301v-2.02c3.079-0.564,4.813-1,5.202-1.311c0.39-0.309,0.639-0.918,0.747-1.828
		c0.055-0.49,0.091-5.158,0.109-14l-0.024-8.131c0-3.82-0.064-6.123-0.194-6.904c-0.108-0.564-0.359-0.986-0.75-1.27
		c-0.392-0.281-1.679-0.613-3.861-0.996L454.362,339.785z M468.526,355.641c0.911,0.037,1.587,0.055,2.025,0.055
		c2.554,0,4.438-0.604,5.651-1.814c1.213-1.209,1.819-3.053,1.819-5.525c0-2.33-0.574-4.107-1.725-5.336
		c-1.149-1.229-2.709-1.842-4.68-1.842c-0.803,0-1.843,0.064-3.119,0.191L468.526,355.641z"/>
	<path fill="#FEFEFE" d="M516.326,376.49v-2.02c2.201-0.4,3.475-0.73,3.819-0.984c0.346-0.256,0.519-0.602,0.519-1.041
		c0-0.254-0.055-0.547-0.163-0.875c-0.291-0.766-1.235-3.064-2.833-6.896c-2.56-0.055-4.693-0.082-6.399-0.082
		c-1.398,0-3.731,0.027-6.999,0.082c-2.041,4.779-3.062,7.398-3.062,7.854c0,0.439,0.146,0.762,0.437,0.973
		c0.291,0.209,1.583,0.533,3.875,0.971v2.02c-2.292-0.201-4.484-0.301-6.576-0.301c-2.256,0-4.549,0.1-6.877,0.301v-2.02
		c1.638-0.346,2.765-0.738,3.384-1.178c0.418-0.291,0.801-0.729,1.146-1.313c0.71-1.146,2.833-5.584,6.369-13.314
		c2.241-4.893,5.439-12.133,9.595-21.719h2.184c1.691,4.275,5.193,12.252,10.506,23.928c2.947,6.494,4.712,10.188,5.295,11.078
		c0.399,0.621,0.8,1.059,1.2,1.314c0.4,0.254,1.665,0.656,3.793,1.203v2.02c-3.22-0.201-6.213-0.301-8.978-0.301
		C523.831,376.189,520.42,376.289,516.326,376.49z M511.112,348.713l-5.579,12.85l5.405,0.027c1.292,0,3.148-0.008,5.569-0.027
		L511.112,348.713z"/>
	<path fill="#FEFEFE" d="M566.31,349.256h-2.537c-1.256-3.84-2.024-6.014-2.307-6.523c-0.282-0.508-0.678-0.867-1.187-1.078
		c-0.51-0.209-2.129-0.313-4.857-0.313h-2.647v25.488c0,3.166,0.109,5.076,0.327,5.73c0.109,0.346,0.378,0.623,0.806,0.832
		c0.427,0.209,2.078,0.568,4.953,1.078v2.02c-5.55-0.201-9.115-0.301-10.698-0.301c-2.146,0-5.431,0.1-9.852,0.301v-2.02
		c2.911-0.51,4.64-0.91,5.186-1.201c0.363-0.199,0.614-0.531,0.75-0.996c0.137-0.463,0.205-2.369,0.205-5.717v-25.215h-4.585
		c-1.546,0-2.569,0.127-3.07,0.381c-0.5,0.256-0.914,0.719-1.241,1.393c-0.491,1.02-1.183,3.066-2.074,6.141h-2.483
		c0.31-2.676,0.5-4.521,0.573-5.541c0.072-1.018,0.154-3.002,0.246-5.949c7.204,0.201,14.245,0.283,21.122,0.246
		c5.821-0.055,10.006-0.137,12.553-0.246C565.509,341.277,565.782,345.107,566.31,349.256z"/>
</g>
</svg>
