<?xml version="1.0" encoding="utf-8"?>
<!-- Generator: Adobe Illustrator 16.0.0, SVG Export Plug-In . SVG Version: 6.00 Build 0)  -->
<!DOCTYPE svg PUBLIC "-//W3C//DTD SVG 1.1//EN" "http://www.w3.org/Graphics/SVG/1.1/DTD/svg11.dtd">
<svg version="1.1" id="Layer_1" xmlns="http://www.w3.org/2000/svg" xmlns:xlink="http://www.w3.org/1999/xlink" x="0px" y="0px"
	 width="400px" height="400px" viewBox="0 0 400 400" enable-background="new 0 0 400 400" xml:space="preserve">
<g>
	<rect fill="#292964" width="400" height="400"/>
	<circle fill="#292964" stroke="#FFFFFF" stroke-width="3" stroke-miterlimit="10" cx="201.055" cy="143.205" r="115.229"/>
	<path fill="#F5AB1D" d="M214,163.745c-46.191,0-86.001-27.305-104.187-66.651c-7.299,13.956-11.432,29.828-11.432,46.668
		c0,9.571,1.334,18.832,3.825,27.604c15.987,5.711,33.205,8.831,51.154,8.831c25.033,0,48.644-6.069,69.47-16.787
		C219.916,163.632,216.972,163.745,214,163.745z"/>
	<path fill="#F5AB1D" d="M284.688,89.379c-12.23,58.488-64.089,102.42-126.209,102.42c-18.753,0-36.568-4.008-52.644-11.206
		c14.713,37.48,51.211,64.016,93.91,64.016c55.694,0,100.848-45.15,100.848-100.848C300.594,123.734,294.757,105.071,284.688,89.379
		z"/>
	<g>
		<path fill="#FFFFFF" d="M46.548,273.515c2.269-0.491,5.335-0.797,8.402-0.797c4.783,0,8.524,0.674,11.222,3.188
			c2.453,2.146,3.557,5.58,3.557,9.076c0,4.477-1.349,7.604-3.496,9.935c-2.576,2.698-6.746,3.925-10.057,3.925
			c-0.552,0-1.104,0-1.595,0v15.393h-8.034V273.515z M54.582,292.28c0.368,0.122,0.797,0.122,1.288,0.122
			c4.047,0,5.887-2.882,5.887-6.745c0-3.618-1.472-6.439-5.213-6.439c-0.736,0-1.472,0.123-1.962,0.307V292.28z"/>
		<path fill="#FFFFFF" d="M86.348,314.234l-0.429-2.943h-0.123c-1.656,2.33-3.986,3.434-6.623,3.434
			c-4.538,0-7.911-3.802-7.911-9.137c0-7.85,6.93-11.101,13.737-11.161v-0.675c0-2.33-1.41-4.048-4.231-4.048
			c-2.392,0-4.354,0.613-6.132,1.718l-1.472-5.397c1.656-0.98,5.151-2.269,9.321-2.269c9.137,0,10.609,6.378,10.609,12.449v11.161
			c0,2.392,0.123,4.845,0.49,6.868H86.348z M85.245,299.639c-2.698,0.062-6.378,0.92-6.378,5.09c0,3.006,1.656,4.109,2.882,4.109
			c1.288,0,2.76-0.797,3.312-2.576c0.123-0.429,0.184-0.92,0.184-1.41V299.639z"/>
		<path fill="#FFFFFF" d="M98.737,293.261c0-3.005-0.123-6.255-0.246-9.015h6.991l0.429,4.354h0.184
			c1.349-3.189,3.741-4.845,5.949-4.845c0.797,0,1.226,0,1.717,0.123v7.972c-0.491-0.122-1.042-0.122-1.717-0.122
			c-1.717,0-3.986,1.165-4.906,4.292c-0.184,0.675-0.307,1.718-0.307,3.005v15.209h-8.095V293.261z"/>
		<path fill="#FFFFFF" d="M127.375,276.151v8.095h5.887v5.703h-5.887v13.676c0,3.496,1.472,4.354,3.066,4.354
			c0.797,0,1.411-0.062,2.085-0.185l0.061,6.256c-1.104,0.307-2.759,0.552-4.906,0.552c-2.331,0-4.354-0.552-5.765-1.901
			c-1.656-1.595-2.576-3.863-2.576-8.585v-14.167h-3.557v-5.703h3.557v-6.193L127.375,276.151z"/>
		<path fill="#FFFFFF" d="M150.433,314.234l-0.429-2.943h-0.123c-1.656,2.33-3.986,3.434-6.623,3.434
			c-4.538,0-7.911-3.802-7.911-9.137c0-7.85,6.93-11.101,13.737-11.161v-0.675c0-2.33-1.41-4.048-4.231-4.048
			c-2.392,0-4.354,0.613-6.132,1.718l-1.472-5.397c1.656-0.98,5.151-2.269,9.321-2.269c9.137,0,10.609,6.378,10.609,12.449v11.161
			c0,2.392,0.123,4.845,0.49,6.868H150.433z M149.33,299.639c-2.698,0.062-6.378,0.92-6.378,5.09c0,3.006,1.656,4.109,2.882,4.109
			c1.288,0,2.76-0.797,3.312-2.576c0.123-0.429,0.184-0.92,0.184-1.41V299.639z"/>
		<path fill="#FFFFFF" d="M170.917,276.274c0.062,2.575-1.778,4.354-4.231,4.354c-2.208,0-4.047-1.778-3.986-4.354
			c-0.062-2.698,1.901-4.354,4.108-4.354C169.138,271.92,170.917,273.576,170.917,276.274z M162.883,314.234v-29.988h8.034v29.988
			H162.883z"/>
		<path fill="#FFFFFF" d="M187.045,314.234v-41.333h7.359l6.377,16.189c1.227,3.189,3.25,8.524,4.416,12.081h0.122
			c-0.245-4.354-0.797-11.529-0.797-19.133v-9.138h7.052v41.333h-7.358l-6.316-15.699c-1.35-3.495-3.25-8.708-4.17-12.449h-0.123
			c0.184,4.17,0.491,10.548,0.491,18.827v9.321H187.045z"/>
		<path fill="#FFFFFF" d="M231.384,314.234l-0.429-2.943h-0.123c-1.656,2.33-3.986,3.434-6.623,3.434
			c-4.538,0-7.911-3.802-7.911-9.137c0-7.85,6.93-11.101,13.737-11.161v-0.675c0-2.33-1.411-4.048-4.231-4.048
			c-2.392,0-4.354,0.613-6.133,1.718l-1.472-5.397c1.655-0.98,5.151-2.269,9.321-2.269c9.138,0,10.609,6.378,10.609,12.449v11.161
			c0,2.392,0.122,4.845,0.49,6.868H231.384z M230.28,299.639c-2.698,0.062-6.378,0.92-6.378,5.09c0,3.006,1.655,4.109,2.882,4.109
			c1.288,0,2.76-0.797,3.312-2.576c0.123-0.429,0.185-0.92,0.185-1.41V299.639z"/>
		<path fill="#FFFFFF" d="M243.588,306.998c1.166,0.736,3.373,1.595,5.397,1.595c2.085,0,3.25-0.92,3.25-2.698
			c0-1.533-0.858-2.515-3.496-4.048c-4.905-2.76-6.07-5.887-6.07-8.646c0-5.396,3.863-9.444,9.873-9.444
			c2.514,0,4.477,0.613,6.071,1.349l-1.411,5.888c-1.165-0.675-2.575-1.227-4.17-1.227c-2.023,0-3.005,1.227-3.005,2.576
			c0,1.349,0.675,2.085,3.496,3.74c4.415,2.515,6.07,5.642,6.07,9.076c0,6.133-4.415,9.444-10.608,9.444
			c-2.515,0-5.458-0.675-6.869-1.718L243.588,306.998z"/>
		<path fill="#FFFFFF" d="M264.439,273.515c2.024-0.491,4.968-0.797,8.156-0.797c5.213,0,8.831,1.226,11.468,3.679
			c3.557,3.189,5.396,8.647,5.396,16.681c0,8.34-2.146,14.289-5.765,17.478c-2.759,2.698-6.868,3.986-12.633,3.986
			c-2.514,0-5.028-0.245-6.623-0.43V273.515z M272.474,307.856c0.367,0.123,0.98,0.123,1.41,0.123c3.863,0,7.236-3.803,7.236-15.209
			c0-8.463-2.208-13.614-7.053-13.614c-0.552,0-1.104,0-1.594,0.185V307.856z"/>
		<path fill="#FFFFFF" d="M300.5,302.092c0.122,4.661,2.82,6.378,6.377,6.378c2.27,0,4.293-0.49,5.703-0.981l1.104,5.765
			c-2.085,0.798-5.213,1.35-8.279,1.35c-8.156,0-12.633-5.396-12.633-14.779c0-10.058,5.213-16.067,12.02-16.067
			c6.439,0,10.181,5.09,10.181,14.166c0,2.146-0.062,3.312-0.246,4.17H300.5z M307.675,296.45c0-3.863-0.981-6.868-3.373-6.868
			c-2.637,0-3.68,3.863-3.741,6.868H307.675z"/>
		<path fill="#FFFFFF" d="M319.511,293.261c0-3.312-0.185-6.193-0.246-9.015h6.991l0.368,3.496h0.123
			c1.533-2.27,4.047-3.986,7.175-3.986c3.373,0,5.52,1.533,6.562,4.048h0.123c0.735-1.166,1.84-2.27,3.005-3.005
			c1.227-0.675,2.698-1.043,4.231-1.043c5.335,0,7.727,4.231,7.727,11.468v19.011h-7.972v-17.662c0-3.434-0.368-6.193-2.821-6.193
			c-1.41,0-2.453,0.981-3.005,2.76c-0.123,0.429-0.245,1.288-0.245,2.085v19.011h-7.973v-18.827c0-2.146-0.245-5.028-2.76-5.028
			c-1.227,0-2.453,0.92-3.005,2.698c-0.184,0.552-0.307,1.41-0.307,2.27v18.888h-7.972V293.261z"/>
	</g>
	<g>
		<path fill="#E7252A" d="M64.444,366.828c-1.421,0.483-4.113,1.149-6.805,1.149c-3.72,0-6.412-0.938-8.287-2.752
			c-1.875-1.755-2.903-4.416-2.873-7.41c0.03-6.774,4.96-10.646,11.644-10.646c2.631,0,4.657,0.515,5.655,0.998l-0.968,3.689
			c-1.119-0.483-2.51-0.877-4.748-0.877c-3.841,0-6.744,2.178-6.744,6.594c0,4.203,2.631,6.684,6.412,6.684
			c1.058,0,1.905-0.121,2.268-0.303v-4.265h-3.146v-3.599h7.591V366.828z"/>
		<path fill="#E7252A" d="M80.171,359.146h-7.5v4.839h8.377v3.78H68.044v-20.384h12.581v3.78h-7.954v4.234h7.5V359.146z"/>
		<path fill="#E7252A" d="M84.195,347.654c1.482-0.242,3.689-0.424,6.139-0.424c3.024,0,5.142,0.454,6.593,1.604
			c1.209,0.968,1.875,2.389,1.875,4.264c0,2.601-1.845,4.386-3.599,5.021v0.091c1.421,0.574,2.208,1.936,2.722,3.811
			c0.635,2.299,1.27,4.96,1.663,5.746h-4.718c-0.333-0.574-0.816-2.238-1.421-4.748c-0.544-2.54-1.421-3.236-3.296-3.267h-1.392
			v8.015h-4.566V347.654z M88.762,356.425h1.815c2.298,0,3.659-1.149,3.659-2.934c0-1.875-1.27-2.813-3.387-2.843
			c-1.119,0-1.754,0.091-2.087,0.151V356.425z"/>
		<path fill="#E7252A" d="M107.15,362.533l-1.452,5.232h-4.778l6.23-20.384h6.049l6.32,20.384h-4.959l-1.573-5.232H107.15z
			 M112.322,359.086l-1.27-4.325c-0.363-1.209-0.726-2.722-1.028-3.931h-0.061c-0.302,1.209-0.604,2.752-0.938,3.931l-1.209,4.325
			H112.322z"/>
		<path fill="#E7252A" d="M122.243,347.382h4.566v9.013h0.091c0.454-0.786,0.938-1.513,1.391-2.238l4.627-6.774h5.655l-6.744,8.68
			l7.107,11.704h-5.383l-4.99-8.801l-1.754,2.147v6.653h-4.566V347.382z"/>
		<path fill="#E7252A" d="M145.954,362.533l-1.452,5.232h-4.778l6.23-20.384h6.049l6.32,20.384h-4.959l-1.573-5.232H145.954z
			 M151.125,359.086l-1.27-4.325c-0.363-1.209-0.726-2.722-1.028-3.931h-0.061c-0.302,1.209-0.604,2.752-0.938,3.931l-1.209,4.325
			H151.125z"/>
		<path fill="#E7252A" d="M161.047,367.766v-20.384h5.383l4.234,7.47c1.21,2.147,2.419,4.688,3.327,6.986h0.091
			c-0.302-2.691-0.393-5.443-0.393-8.498v-5.958h4.234v20.384h-4.839l-4.355-7.863c-1.21-2.178-2.541-4.809-3.539-7.197l-0.09,0.03
			c0.121,2.691,0.181,5.564,0.181,8.891v6.14H161.047z"/>
		<path fill="#E7252A" d="M188.025,347.654c1.421-0.242,3.417-0.424,6.23-0.424c2.843,0,4.869,0.545,6.23,1.634
			c1.301,1.027,2.178,2.722,2.178,4.718s-0.665,3.689-1.875,4.839c-1.573,1.481-3.901,2.146-6.624,2.146
			c-0.605,0-1.149-0.03-1.573-0.09v7.288h-4.566V347.654z M192.592,356.908c0.394,0.091,0.877,0.121,1.542,0.121
			c2.45,0,3.962-1.24,3.962-3.326c0-1.876-1.3-2.994-3.599-2.994c-0.938,0-1.572,0.091-1.905,0.181V356.908z"/>
		<path fill="#E7252A" d="M217.725,359.146h-7.5v4.839h8.377v3.78h-13.004v-20.384h12.581v3.78h-7.954v4.234h7.5V359.146z"/>
		<path fill="#E7252A" d="M221.749,347.654c1.481-0.242,3.689-0.424,6.14-0.424c3.023,0,5.141,0.454,6.593,1.604
			c1.21,0.968,1.875,2.389,1.875,4.264c0,2.601-1.845,4.386-3.599,5.021v0.091c1.421,0.574,2.207,1.936,2.722,3.811
			c0.635,2.299,1.27,4.96,1.663,5.746h-4.718c-0.333-0.574-0.816-2.238-1.422-4.748c-0.544-2.54-1.421-3.236-3.296-3.267h-1.392
			v8.015h-4.566V347.654z M226.315,356.425h1.814c2.299,0,3.66-1.149,3.66-2.934c0-1.875-1.271-2.813-3.388-2.843
			c-1.119,0-1.754,0.091-2.087,0.151V356.425z"/>
		<path fill="#E7252A" d="M244.13,347.382v11.734c0,3.508,1.331,5.292,3.689,5.292c2.42,0,3.751-1.693,3.751-5.292v-11.734h4.597
			v11.432c0,6.291-3.176,9.285-8.498,9.285c-5.142,0-8.166-2.843-8.166-9.346v-11.371H244.13z"/>
		<path fill="#E7252A" d="M260.16,347.654c1.21-0.242,3.659-0.424,5.958-0.424c2.813,0,4.536,0.272,6.019,1.149
			c1.421,0.756,2.449,2.147,2.449,3.992c0,1.814-1.059,3.508-3.357,4.354v0.061c2.329,0.636,4.053,2.39,4.053,5.021
			c0,1.845-0.847,3.297-2.117,4.325c-1.481,1.179-3.961,1.845-8.014,1.845c-2.269,0-3.962-0.151-4.99-0.303V347.654z
			 M264.727,355.457h1.513c2.419,0,3.72-0.998,3.72-2.511c0-1.542-1.18-2.358-3.267-2.358c-0.998,0-1.572,0.061-1.966,0.121V355.457
			z M264.727,364.499c0.454,0.061,0.998,0.061,1.784,0.061c2.087,0,3.932-0.786,3.932-2.934c0-2.057-1.845-2.873-4.143-2.873h-1.573
			V364.499z"/>
		<path fill="#E7252A" d="M283.056,362.533l-1.451,5.232h-4.779l6.23-20.384h6.049l6.32,20.384h-4.96l-1.572-5.232H283.056z
			 M288.228,359.086l-1.271-4.325c-0.363-1.209-0.726-2.722-1.028-3.931h-0.061c-0.303,1.209-0.604,2.752-0.938,3.931l-1.21,4.325
			H288.228z"/>
		<path fill="#E7252A" d="M302.775,347.382v7.833h7.591v-7.833h4.598v20.384h-4.598v-8.528h-7.591v8.528h-4.627v-20.384H302.775z"/>
		<path fill="#E7252A" d="M323.735,362.533l-1.451,5.232h-4.779l6.23-20.384h6.049l6.32,20.384h-4.96l-1.572-5.232H323.735z
			 M328.907,359.086l-1.271-4.325c-0.363-1.209-0.726-2.722-1.028-3.931h-0.061c-0.303,1.209-0.604,2.752-0.938,3.931l-1.21,4.325
			H328.907z"/>
		<path fill="#E7252A" d="M338.828,367.766v-20.384h5.383l4.234,7.47c1.21,2.147,2.42,4.688,3.327,6.986h0.09
			c-0.302-2.691-0.393-5.443-0.393-8.498v-5.958h4.233v20.384h-4.838l-4.355-7.863c-1.21-2.178-2.54-4.809-3.538-7.197l-0.091,0.03
			c0.121,2.691,0.182,5.564,0.182,8.891v6.14H338.828z"/>
	</g>
	<line fill="none" stroke="#FFFFFF" stroke-width="2" stroke-miterlimit="10" x1="46.563" y1="330.742" x2="355.68" y2="330.742"/>
</g>
</svg>
