<?xml version="1.0" encoding="UTF-8"?>
<!DOCTYPE svg PUBLIC "-//W3C//DTD SVG 1.1//EN" "http://www.w3.org/Graphics/SVG/1.1/DTD/svg11.dtd">
<!-- Creator: CorelDRAW -->
<svg xmlns="http://www.w3.org/2000/svg" xml:space="preserve" width="424.51mm" height="609.6mm" version="1.1" style="shape-rendering:geometricPrecision; text-rendering:geometricPrecision; image-rendering:optimizeQuality; fill-rule:evenodd; clip-rule:evenodd"
viewBox="0 0 42451.02 60960"
 xmlns:xlink="http://www.w3.org/1999/xlink"
 xmlns:xodm="http://www.corel.com/coreldraw/odm/2003">
 <defs>
  <style type="text/css">
   <![CDATA[
    .str0 {stroke:#373435;stroke-width:20;stroke-miterlimit:22.9256}
    .fil0 {fill:#FEFEFE}
    .fil3 {fill:black}
    .fil1 {fill:#014224}
    .fil2 {fill:#F8C301}
    .fil4 {fill:#FEFEFE}
   ]]>
  </style>
 </defs>
 <g id="Layer_x0020_1">
  <metadata id="CorelCorpID_0Corel-Layer"/>
  <rect class="fil0" x="-313.69" width="42451.9" height="60960"/>
  <rect class="fil1 str0" x="1878.88" y="2200.02" width="37855.19" height="42036"/>
  <ellipse class="fil2" cx="20761.27" cy="24766.14" rx="14255.9" ry="13917.25"/>
  <ellipse class="fil1" cx="20724.9" cy="20758.96" rx="10335.03" ry="10089.57"/>
  <polygon class="fil2" points="20752.14,3449.51 21694.2,6291.65 24760.93,6285.92 22276.44,8036.71 23229.7,10875.31 20752.14,9115.22 18274.58,10875.31 19227.84,8036.71 16743.35,6285.92 19810.08,6291.65 "/>
  <g id="_2549427626368">
   <polygon class="fil2" points="22989.42,41568.92 23616.91,43095.47 24130.34,43091.17 24128.39,40195.21 23622.06,40204 23597.16,41743.99 22965.49,40194.77 22452.68,40205.8 22453.51,43094.96 22961.32,43095.37 "/>
   <path class="fil2" d="M28178.87 40186.42l19.62 2908.35 483.1 -16.04 8.27 -1505.38c217.81,502.67 406.13,1017.29 653.49,1510.53l508.43 11.54 -10.54 -2921.94 -492.39 24.07 -50.82 1435.05c-31.28,-40.76 -13.85,-14.84 -32.2,-43.94 -17.05,-27.04 -30.66,-60.37 -45.13,-94.38 -119.21,-280.38 -445.02,-1161.19 -540.92,-1293.98l-500.91 -13.88z"/>
   <path class="fil2" d="M34477.24 42070.09c146.12,180.22 316.85,757.19 433.25,1027.68l512.06 -13.3 -2.15 -2885.97 -527.64 0.71 11.9 1508.26c-117.47,-122.63 -574.51,-1272.39 -642.8,-1508.72l-508.62 -10.87 -5.85 2903.13 501.12 2.11 11.26 -1514.46 217.47 491.43z"/>
   <path class="fil2" d="M8391.91 40776.32c194.46,-0.3 277.43,1.23 425.68,40.41 102.73,332.99 148.48,576.6 -440,545.04l14.32 -585.45zm4.82 2315.75l0 0 -7.8 -1166.14c268.93,15.92 292.02,345.26 352.24,535.44 67.93,214.58 141.16,411.65 208.15,632.36l594.66 -0.76c-37.29,-338.92 -291.27,-1066.88 -506.34,-1271.5 257.64,-251.85 370.03,-334.38 377.81,-776.67 11.55,-651.32 -235.59,-667.71 -304.17,-807.53 -359.9,-70.43 -864.28,-51.3 -1267.21,-39.31l-4.32 2895.12 556.98 -1.01z"/>
   <path class="fil2" d="M36305.53 43107.56c286.11,7.2 489.32,80.87 759.28,-51.95 93.81,-46.21 363.14,-256.21 412.94,-353.52 71.49,-139.86 37.91,-1043.57 21.23,-1257.6l-826.04 0.79 5.92 594.84 340.61 9.93c43.6,296.32 -117.05,489.2 -405.74,449.39 -245.06,-33.77 -301.87,-312.17 -332.31,-540.65 -32.22,-240.92 -29.91,-500.58 12.93,-729.41 42.55,-226.93 95.9,-446.12 437.55,-435.19 225.86,107.65 124.2,181.24 261.43,311.36l461.96 -132.48c22.46,-176.22 -88.04,-480.65 -223.23,-630.94l-118.09 -117.71c-1.81,-7.87 -9.47,-9.97 -13,-15.39 -524.91,-109.58 -834.94,-87.91 -1071.92,236.94 -425.14,582.64 -485.43,2051.81 184.98,2587.91 8.49,6.79 38.73,30.47 45.1,35.57 5.15,4.14 19.36,24.28 23.12,18.87 3.8,-5.4 16.04,12.49 23.28,19.24z"/>
   <path class="fil2" d="M16010.8 41947.3c84.84,123.33 107.56,282.64 37.26,411.51 -78.04,143.02 -239.79,118.55 -477.9,108.75l-8.54 -598.38c225.93,28.37 329.91,-22.52 449.18,78.12zm-452.25 -1161.75l0 0c373.94,-10.69 473.85,-13.23 458.44,290.23 -13.64,266.74 -114.9,259.6 -460.41,249.31l1.97 -539.54zm741.89 756.03l0 0c250.28,-311.4 360.98,-654.48 149.86,-1074.73 -177.28,-352.81 -622.77,-305.95 -1439.97,-274.45l3.63 2893.68c204.31,18.48 819.13,24.83 1015.96,0.95 309.87,-37.57 436.08,-150.81 523.02,-369 74.89,-187.98 103.69,-456.72 65.3,-667.52 -53.49,-293.02 -168.08,-339.53 -317.8,-508.93z"/>
   <path class="fil2" d="M12098.64 41120.84c81.71,114.64 175.86,764.27 179,865.09l-361.53 2.13c7.62,-149.81 41.01,-292.76 65.83,-431.72l116.7 -435.5zm947.73 1989.01l0 0 -643.64 -2923.68 -563.92 11.89c-98.18,120.92 -658.42,2622.88 -678.38,2896.96l539.53 -3.44 95.46 -468.86 607.31 1.44 90.08 470.06 553.56 15.63z"/>
   <path class="fil2" d="M21294.51 41019.58l213.37 963.65 -375.04 4.38 161.67 -968.03zm-754.73 1268.49l0 0 -173.56 805.25 549.65 -1.4 83.43 -462.71 623.24 -10.84 83.66 473.46 571.09 1.49 -661.35 -2895.92 -595.98 3.06 -480.18 2087.61z"/>
   <path class="fil2" d="M32430.03 41983.07c4.93,-237.88 70.16,-765.36 188.66,-948.41l170.88 949.61 -359.54 -1.2zm-384.08 -627.9l0 0c-94.44,551.17 -342.37,1217.4 -374.62,1740.09l541.92 -11.08 48.37 -249.42 22.17 -200.36 594.92 -18.07c87.65,118.03 93.75,329.83 125.06,474.84l538.11 5.34c-16.54,-270.34 -577.68,-2781.16 -663.01,-2894.12 -187.48,-13.28 -389.25,-18.72 -567.4,14.1l-265.52 1138.68z"/>
   <path class="fil2" d="M6707.32 41022.73l175.67 962.63 -372.62 2.2c12.09,-260.94 97.83,-753.84 196.95,-964.83zm351.11 2067.08l0 0 580.12 6.51 -645.98 -2897.57 -625.11 10.05c40.25,217.04 -547.88,2396.18 -620.39,2884.58l549.44 0.95 80.46 -474.66 625.41 13.18 56.05 456.96z"/>
   <path class="fil2" d="M4899.47 40784.46c359.34,6 412.4,34.01 411.69,322.43 -0.62,251.53 -64.75,322.1 -412.45,317.41l0.76 -639.84zm0.22 1238.82l0 0c489.85,-2.9 663.65,-22.24 812.95,-310.5 124.06,-239.44 134,-522.61 118.99,-793.75 -42.41,-766.44 -429.77,-789.91 -1479.74,-717.47l4.03 2897.16 540.47 -14.79 3.3 -1060.65z"/>
   <path class="fil2" d="M25860.23 40783.3c372.33,-7.99 473.67,-5.94 460.31,292.42 -11.97,267.99 -112.61,261.76 -459.19,249.27l-1.12 -541.69zm483.18 1162.76l0 0c130.04,422.14 76.57,529.85 -497.78,524.41l16.49 -584.6c286.03,-6.7 289.49,-14.89 481.29,60.19zm348.19 -1555.17l0 0c-110,-185.74 -210.98,-203.52 -564.12,-202.93 -250.08,0.41 -552.72,-9.47 -814.97,6.81l2.71 2892.46c1398.66,114.98 1729.2,-92.22 1589.26,-1141.17 -38.66,-75.44 -55.5,-151.82 -115.72,-227.88l-186.16 -176.6c169.75,-195.9 233.66,-270.29 250.15,-561.27 10.38,-183.02 -11,-486.12 -161.15,-589.42z"/>
   <path class="fil2" d="M17907.44 42381.05c-574.43,333.54 -512.25,-450.98 -512.11,-777.26 0.05,-462.43 18.96,-946.16 -6.33,-1406.02l-549.96 1.99c109.38,457.82 -78.77,1678.87 84.08,2290.43 292.01,1096.36 1572.01,597.82 1513.68,89.98 218.1,-282.95 146.8,-2173.51 83.53,-2386.27l-506.64 -2.34c-157.8,617.68 139.92,1572.32 -106.25,2189.49z"/>
   <path class="fil2" d="M10702.63 40907.94l533.41 -9.69c7.42,-182.67 38.29,-546.19 -24,-709.48l-1613.89 5.65 9.05 713.06 540.54 7.85 7.47 2180.83 528.85 -3.19 18.57 -2185.03z"/>
   <polygon class="fil2" points="30666.48,43110.15 31189.95,43096.27 31196.97,40912.62 31744.89,40903.49 31744.28,40195.97 30106.95,40186.36 30107.72,40900.7 30657.99,40908.73 "/>
   <polygon class="fil2" points="20300.56,42374.8 19443.03,42381 19440.23,40196.47 18923.05,40190.88 18901.82,43091.83 20280.81,43096.51 "/>
   <polygon class="fil2" points="27795.89,40186.22 27249.92,40199.16 27254.85,43093.87 27784.91,43092.56 "/>
   <polygon class="fil2" points="13265.57,43109.11 13796.59,43091.36 13793.74,40196.51 13261.6,40185.82 "/>
  </g>
  <g id="_2549427626320">
   <path class="fil3" d="M39811.91 55562.06l0 -722.13c-94.7,-218.37 -93.25,-1299.14 -851.21,-2003.45 -299.63,-278.4 -390.64,-381.22 -813.24,-606.86 -435.33,-232.45 -664.24,-243.14 -886.99,-338.58l-112.14 -65.36c1200.56,-307.88 2029.48,-1509.94 2056.58,-2840.29 31.63,-1553.42 -820,-2554.42 -1837.24,-3048.16 -1135.02,-550.88 -3131.05,-391.66 -4507.11,-391.66 -1636.97,0 -3273.95,0 -4910.87,0l0 13473.25c1510.22,0 6498.44,66.94 7623.38,-59.99 1650.74,-186.23 2940.87,-332.1 3787.69,-1934.97 430.86,-815.62 298,-1126.86 451.15,-1461.8z"/>
   <path class="fil3" d="M14670.64 58999.65c379.44,53.64 5908.32,19.4 6775.44,19.17 798.12,0 2556.71,-225.64 3179.19,-535.67 740.93,-369.05 1394.96,-1093.51 1699.06,-2013.9 338.26,-1023.58 228.35,-2275.37 -254.28,-3104.09 -439.53,-754.65 -1138.76,-1174.77 -2194.57,-1482.8 227.74,-165.74 935.5,-322.77 1429.85,-1013.97 1240.22,-1734.28 534.37,-4138.26 -1233.22,-4904.29 -1233.64,-534.64 -3066.68,-376.69 -4521.86,-376.69 -682.48,0 -4551.57,-46.14 -4879.61,17.77l0 13394.47z"/>
   <path class="fil3" d="M1843.15 59041.58l4001.81 0 -22.86 -4980.42c1207.38,-174.09 2954.07,255.64 4540.29,-401.74 3013.12,-1248.76 2714.99,-5272.96 1543.3,-6707.7 -773.54,-947.17 -1850.86,-1364.31 -3572.45,-1364.31l-6490.09 0 0 13454.17z"/>
   <path class="fil4" d="M18667.18 56132.95c753.43,0 1881.74,64.57 2586.37,-34.94 771.82,-108.97 1271.57,-490.19 1296.67,-1307.16 54.35,-1772.16 -2347.95,-1379.28 -3877.12,-1379.28l-5.92 2721.38z"/>
   <path class="fil4" d="M31946.37 55974.81l7.98 149.19c708.55,-0.19 1426.67,12.64 2131.36,-1.73 705.52,-14.41 1233.59,-173.02 1521.04,-600.14 332.61,-494.16 284.85,-1206.35 -59.43,-1642.29 -298.97,-378.51 -1005.62,-485.62 -1659.87,-485.62l-1940.29 0 -0.79 2580.59z"/>
   <path class="fil4" d="M5821.68 51302.93c428.57,93.35 1691.04,3.22 2095.3,-128.15 547.9,-178.01 955.1,-652.9 946.84,-1361.69 -8.35,-715.88 -383.27,-1178.27 -911.48,-1356.14 -424.88,-143.03 -1660.67,-189.35 -2124.73,-122.32l-5.93 2968.3z"/>
   <path class="fil4" d="M31947.16 50831.91c1522.03,0 3337.39,341.99 3375.27,-1254.91 18.38,-775.55 -388.13,-1158.12 -1082.69,-1265.46 -617.68,-95.39 -1629.22,-36.99 -2291.5,-36.99l-1.08 2557.36z"/>
   <path class="fil4" d="M18667.36 50857.29l1633.29 0c1017.19,0 1712.92,-206.28 1742.26,-1240.5 30.04,-1057.73 -695.87,-1308.93 -1702.75,-1308.93l-1658.85 0 -13.95 2549.43z"/>
  </g>
 </g>
</svg>
