<svg xmlns="http://www.w3.org/2000/svg" xml:space="preserve" style="shape-rendering:geometricPrecision;text-rendering:geometricPrecision;image-rendering:optimizeQuality;fill-rule:evenodd;clip-rule:evenodd" viewBox="0 30.953 150 88.05" width="150" height="88.05"><defs><style>.fil0{fill:#000}.fil2{fill:#fe0000}.fil1{fill:#fff}</style></defs><g id="Layer_x0020_1"><g id="_1886775306256"><path class="fil0" d="M0 30.95h150V119H0V30.95z"/><path class="fil1" d="M1.45 32.4h147.1v85.2H1.45Z"/><path class="fil2" d="M1.45 32.4h147.1v9.5H1.45v-9.5zm0 18.95h147.1v9.45H1.45v-9.45zm0 18.9h147.1v9.5H1.45v-9.5zm0 18.95h147.1v9.45H1.45V89.2zm0 18.9h147.1v9.5H1.45v-9.5z"/><path class="fil1" d="M114.7 75A39.7 39.7 0 0 1 75 114.7 39.7 39.7 0 0 1 35.3 75a39.7 39.7 0 0 1 79.4 0z"/><path class="fil2" d="M113.9 75A38.9 38.9 0 0 1 75 113.9 38.9 38.9 0 0 1 36.1 75a38.9 38.9 0 0 1 77.8 0z"/><path class="fil1" d="M59.75 105.7c-4.45-2.2-8.3-5.35-11.4-9.15l-.65.5c3.15 3.95 7.2 7.2 11.8 9.45l.25-.8zm30.499 0c4.45-2.2 8.3-5.35 11.4-9.15l.65.5a34.53 34.53 0 0 1-11.8 9.45l-.25-.8zm-22.9.6-2.5-.65-1.25 4.85 1.5.4.5-1.8.8.2c.6.15 1.1.15 1.45-.05s.6-.55.75-1.05c.1-.45.05-.85-.15-1.2-.2-.3-.55-.55-1.1-.7zm-1.5 1.8.25-1.05.45.1c.25.1.45.2.5.3.1.15.1.3.05.45 0 .15-.1.25-.25.35-.15.05-.35.05-.65-.05l-.35-.1zm6.1-.95-.05 5h1.549v-1.2l.802-.8 1.05 2.05 1.9.05-1.85-3.15 1.85-1.85-2.05-.05-1.65 1.85v-1.9Zm9.251 4.6 1.4-.3-.649-2.7 2.45 2.25 1.45-.35-1.2-4.849-1.4.35.65 2.651-2.45-2.25-1.45.35Z"/><path d="m43.05 94.1-1.15-2.25c-.25-.5-.3-.95-.2-1.3.1-.4.35-.7.8-.9.45-.25.9-.3 1.25-.15.4.15.75.5 1.05 1.05l.35.75 1.65-.85.7 1.4-4.45 2.25zm1.2-2.35-.15-.3c-.15-.3-.3-.45-.45-.5s-.25-.05-.4 0c-.15.1-.25.2-.3.35-.05.1 0 .3.1.6l.2.4 1-.55zm-.55-6.5.55 1.65h.85l.5 1.5-5.35-.2-.55-1.6 4.15-3.4.55 1.55-.7.5zm-.95.65-1.5 1.1 1.85-.05-.35-1.05zm1-3.2-4.9.9-.5-2.5c-.05-.5-.1-.85-.05-1.1.05-.3.15-.5.35-.7s.45-.3.75-.4c.25-.05.5 0 .75.05.2.1.4.25.55.4.1.15.2.3.3.5 0-.2.05-.3.1-.4s.1-.15.2-.3c.15-.15.2-.2.3-.25l1.25-1 .35 1.7-1.35 1.1c-.2.1-.3.25-.35.35s-.05.25-.05.35l.05.15 1.95-.35.3 1.5zm-3.2-1-.1-.6a1.695 1.695 0 0 1-.15-.4c-.05-.1-.1-.2-.2-.25s-.2-.05-.3 0c-.15 0-.3.1-.35.2s-.05.3 0 .6l.1.65 1-.2zm-2.6-3.8-.15-4.65 1.25-.05.05 1.55 3.75-.1.05 1.55-3.75.1.05 1.6h-1.25zm4.5-8.2-.2 1.75.75.35-.15 1.55-4.75-2.45.2-1.7 5.2-1.25-.2 1.6-.85.15zm-1.1.2-1.85.3 1.7.8.15-1.1zm-2.4-3.8.4-1.5 4.8 1.35-.4 1.5-4.8-1.35zm1.8-5.7.7-1.35 1.7.85-.95-2.3.9-1.85.85 2.5 3.65-.3-.85 1.7h-2.3l.399 1.1 1.05.55-.65 1.35-4.5-2.25zm3.15-5.75 2.4-3.35.9.6-1.5 2.1.65.5 1.35-1.95.85.55-1.4 1.95.8.6 1.55-2.15.9.65-2.4 3.4-4.1-2.9zm3.65-4.75 2.1-2c.35-.35.7-.5 1.05-.5s.65.1.9.35c.2.2.3.45.3.75 0 .2-.05.4-.15.6.3-.15.6-.25.85-.2.3 0 .55.15.75.4.2.15.3.4.35.6.05.25.05.5 0 .7-.05.15-.15.35-.3.55-.25.25-.4.45-.5.5L51 53.5l-3.45-3.6zm2.45.35.5-.5c.2-.15.3-.3.3-.4 0-.15-.05-.25-.15-.4a.455.455 0 0 0-.35-.15c-.1.05-.25.1-.45.25l-.5.5.65.7zm1.4 1.4.55-.55c.2-.2.3-.35.3-.5s-.05-.25-.15-.35c-.1-.15-.2-.2-.35-.15-.15 0-.3.1-.5.3l-.55.5.7.75zm5.5-4.2-1.4 1 .25.8-1.3.95L53.1 45l1.4-.95L58.9 47l-1.3.95-.7-.5zm-.9-.7-1.45-1.15.55 1.8.9-.65zm1.3-4.5 1.35-.6 2.85 1.75-1.15-2.5 1.3-.6 2.05 4.55-1.3.6-2.85-1.75 1.15 2.5-1.35.6-2.05-4.55zm9.4-.15-.2-1.05 2.3-.5.5 2.05c-.4.4-.75.7-1.05.9s-.7.35-1.2.45c-.55.15-1.05.15-1.45 0-.4-.1-.75-.3-1.05-.65s-.5-.75-.6-1.3c-.15-.5-.15-1 0-1.45.1-.45.35-.8.75-1.1.3-.25.7-.4 1.25-.55s.95-.15 1.25-.15c.3.05.55.15.8.3.2.2.4.4.55.7l-1.4.6c-.1-.15-.2-.3-.4-.35-.15-.05-.35-.1-.55-.05-.35.1-.6.25-.7.55-.15.25-.2.65-.05 1.15.1.55.3.9.55 1.05.25.2.55.25.9.15.15-.05.3-.1.45-.2.15-.05.3-.2.5-.35l-.15-.45-1 .25zm3.3-3.95 1.5-.1.15 1.85 1.5-2 2.05-.15-1.7 2 2.15 3-1.9.15-1.2-2-.75.9.1 1.2-1.55.15-.35-5zm6.6-.25 1.55.1-.4 5-1.55-.1.4-5zm2.8.15 4.65.85-.25 1.2-1.55-.25-.65 3.7-1.5-.3.65-3.7-1.55-.25.2-1.25zm7.15 6.05-1.65-.55-.5.7-1.5-.5 3.4-4.15 1.6.55.15 5.35-1.55-.5.05-.9zm.05-1.1.05-1.9-1.1 1.55 1.05.35zm4.4-1.65 1.25.75.25 3.3 1.4-2.35 1.25.7-2.5 4.35-1.25-.75-.25-3.3-1.35 2.4-1.3-.75 2.5-4.35zm7.85 5.1 1.05 1-.55 3.3 1.9-2 1.05 1-3.45 3.6-1.05-1 .55-3.25-1.9 1.95-1.05-1 3.45-3.6zm6.65 7.4.9 1.25-2.4 1.75c-.25.15-.5.3-.75.35-.3.1-.55.1-.85.05-.25-.05-.5-.1-.7-.25a3.907 3.907 0 0 1-.75-.8c-.15-.2-.25-.4-.4-.65s-.25-.5-.25-.7c-.05-.25-.05-.45.05-.7.05-.25.15-.45.25-.6.2-.25.4-.45.6-.6l2.45-1.75.9 1.25-2.5 1.8c-.2.15-.35.35-.4.55 0 .2.05.4.2.65.15.2.3.35.55.35.2.05.4 0 .65-.15l2.45-1.8zm-1.3 4.05.75 1.3c-.2.1-.3.25-.4.4-.1.25-.1.5.05.75.1.2.25.3.35.4.15.05.3.05.45-.05.1-.05.15-.15.2-.3s0-.4-.1-.8c-.15-.7-.2-1.2-.1-1.6.1-.35.3-.65.65-.8.25-.15.5-.15.75-.15.25.05.55.15.8.35s.5.55.7 1c.3.6.4 1.05.35 1.5-.05.4-.3.75-.75 1.05l-.7-1.3c.15-.1.3-.25.3-.4.05-.15 0-.35-.1-.55-.05-.15-.15-.25-.25-.3s-.2-.05-.3 0-.15.1-.15.2c-.05.1 0 .25.05.55.2.65.25 1.15.25 1.5 0 .3-.05.6-.2.8-.1.2-.3.4-.55.5-.3.15-.6.2-.9.2-.35-.05-.65-.2-.9-.4s-.5-.55-.75-1c-.35-.75-.5-1.35-.35-1.8.15-.4.45-.75.85-1.05zm2.55 8.25-.5-1.65-.85-.05-.4-1.5 5.3.45.45 1.6-4.3 3.2-.45-1.6.75-.45zm.95-.6 1.6-1-1.9-.05.3 1.05zm3.85 2.5.15 1.45-2.5 2.2 2.75-.35.2 1.45-4.95.6-.2-1.45 2.5-2.199-2.75.35-.15-1.45 4.95-.6zm.6 6.2-.1 4.7-1.25-.05.05-1.6-3.8-.1.05-1.55 3.8.15v-1.6l1.25.05zm-4.95 7.95.3-1.75-.75-.4.25-1.55 4.6 2.75-.3 1.65-5.25.95.3-1.55.85-.1zm1.1-.15 1.9-.2-1.7-.9-.2 1.1zm-2.45 2.3 4.65 1.8-.95 2.4c-.15.45-.35.8-.5 1s-.4.35-.65.4-.55.05-.85-.1a1.796 1.796 0 0 1-.6-.4 1.552 1.552 0 0 1-.3-.65c0-.15 0-.35.05-.55-.15.15-.25.25-.35.3-.05 0-.15.05-.3.1-.2.05-.3.1-.4.1l-1.6.2.65-1.65 1.7-.2c.25-.05.4-.05.45-.15.15-.05.2-.15.25-.3l.05-.1-1.85-.75.55-1.45zm2.2 2.55-.25.6c-.05.05-.05.2-.1.4 0 .1 0 .2.05.3.1.05.15.15.25.2.15.05.3.05.4-.05.15-.05.25-.2.35-.45l.25-.65-.95-.35zM103 92.45l.85-1.5-.6-.65.8-1.35 3.4 4.1-.85 1.5-5.25-.9.8-1.4.85.2zm1.1.25 1.8.45-1.25-1.4-.55.95z" style="fill:#fff;fill-rule:nonzero"/><path class="fil1" d="M105.45 75A30.45 30.45 0 0 1 75 105.45 30.45 30.45 0 0 1 44.55 75a30.45 30.45 0 0 1 60.9 0z"/><path class="fil2" d="M103.6 75A28.6 28.6 0 0 1 75 103.6 28.6 28.6 0 0 1 46.4 75a28.6 28.6 0 0 1 57.2 0z"/><path class="fil0" d="M99.7 89.45c-5 8.45-14.2 14.15-24.7 14.15a28.68 28.68 0 0 1-14.55-3.95c-8.05-4.8-13.55-13.4-14-23.3 4.05-6.7 9.65-11.8 16.8-15.25-.5-.2-1.15-.1-1.7-.15.55-.5 1.1-.8 1.85-1.1-.45-.15-1-.2-1.6-.2.75-.25 1.55-.35 2.45-.45a16.347 16.347 0 0 0-2.8-.4c1.4-.25 2.7-.65 4.5-.25 5.1-2.05 14.1-2.5 18.65-.5 1.35.6 2.45 1.15 2.95 2.45.8 0 1.2.4 1.35.95 2.2.05 3.5.55 4.6 1.25 1.85 1.2 2.45 3.1 2.25 5.15-.15 1.45-.45 2.5-1.45 4-.05-1.25-.5-2.2-.85-2.6s-1-.3-1.35-.35c-.9-.1-2.15-.3-2.75-.25-.8.05-1.3.3-1.85.8-.45.45-1 1.3-1.1 2-.1.6.25.9.95 1.25 1.35.7 2.35 1.25 3.3 3-.45-.25-.9-.3-1.35-.35-.4-.1-1.4-.2-1.65.1-.1.1-.05.4.1.6 1.6 1.8 2.85 2.4 4.9 5.3-1.25-.35-2.5-.55-3.65-.85-1.5-.4-3.35-.95-4.8-1.2-2-.35-3.05 0-3.25.65s.2 1.5 1.35 1.95c-.65.1-1.45-.1-2.2-.9.45 1.7.95 2.2 3.6 3.55-1.6 0-2.5-.05-4.2-1.7.95 2.4 2.5 3.95 5.75 5.5 4.05 1.9 9.9 2.25 14.45 1.1z"/><path class="fil2" d="M81.25 74.9c1.5-.45 2.75-.6 3.7-.6 2.1-.05 2.25.65 4.1.4-1.3-1.15-2.4-1.7-3.7-1.95-1.65-.25-3.2.25-4.45 1.1 1.2-.3 2.75-.45 3.65-.15-1.5.15-2.5.65-3.3 1.2zm-1.701-9.65c0 .2-.05.5-.25.8-.35.45-.9.9-1.6.9-1.25 0-1.9-1-1.9-1.7 0-.65.35-1.1.75-1.35.5-.3.75.25.5.5-.15.1-.35.4-.35.75 0 .55.55 1 1.1 1 .6 0 1.25-.4 1.25-.95 0-.25.5-.35.5.05zm-12 37.35c-2.5-.65-4.8-1.65-6.95-2.9-.15-1.3-.05-2.65.3-4.05.5-2.35 2.25-6.15 3.9-9.05-3.5 2.7-5.1 6.85-6.15 11.9-2.1-1.5-3.95-3.2-5.6-5.15.5-1.95 1.7-3.95 2.8-5.75 1.4-2.25 2.9-4.7 4.5-6.9-2.25 2.05-4.15 4.05-5.85 6.35a49.535 49.535 0 0 0-2.85 4.5c-.9-1.25-1.65-2.6-2.35-3.95.35-1.85 1.3-3.95 2.2-5.75.95-2.05 3.1-4.95 4.7-6.75-2.35 1.4-3.95 3.45-5.6 5.65-.9 1.2-1.8 2.55-2.6 3.7-.75-2.1-1.25-4.25-1.45-6.5 2.65-4.8 7.55-10.05 11.05-12.65 3.2-2.4 6.35-3.95 9.3-4.35-.9-.1-1.9-.1-2.85-.25 2.7-1.65 6.9-2.65 11.55-2.8 4-.1 8.45.65 9.9 1.7 1.2.9 1 1.45.75 2.4-.05-.5-.25-.8-.65-1.05.4.5.5 1.25.35 1.65-.1.35-.6.6-1.45.95-.15-2-3.3-2.5-5.5-2 1.1.05 2.2.25 3.2.5.3.1.9.45.9.75 0 .1-.15.55-.4.7-1.15.4-2.3-.3-3.35-.85-2.25-1.1-5.45-2.55-9.15-2.25.35.05.75.1 1.05.35-1.85.15-2.9.9-3.15 2.4 1.25-1.4 2.35-1.85 4.25-1.75-1.9.3-2.75.9-4.05 2.55 1.2-.75 2.25-1.05 2.95-.55.25.15.5.35.65.6.05.1.4 1.1.55 1.75-.2-.05-.4-.3-.75-.75.1.35.1.55.2.8-.2-.15-.4-.35-.7-.5.4.55.65 1.1.85 1.55-.2-.2-.35-.25-.7-.5.9.95 1.5 1.4 2.35 1.75 1.1.45 2.4.45 3.6.4-2 .6-3.75.45-5.5-1.1.25.65 1 1.15 2.05 1.45 1.85.5 4.8.15 6.8-.2-1.35 1.05-3.3 1.75-5 2.4-1.75.7-4.3 1.8-5 4.1 1.3-.9 2.45-1.5 3.6-1.85-1.2 1-2.25 2.25-2.6 3.3-.35 1-.5 2.15-.55 3.45 1.05-2.6 2-3.9 3.5-4.65-.85 1.4-1 3.1-.45 5.25.1-1.3.4-1.8.95-2.6-.1 1 .1 1.7.4 2.35.25-1.3.7-2.1 1.5-2.75-1.15 4.7-1.05 8.15.25 10.35.85 1.4 2.3 2.2 3.9 2.75-3.35.15-5.85-.4-7.65-3.35.15 2.65.85 4.35 1.75 6.1 1.05 2 2 3.9 4.15 4.85-3.9-.05-7-2.2-8.7-4.85-.95-1.45-1.9-2.9-1.6-5.4-2.4 4.05-2.05 9.25-1.55 14.5z"/><path class="fil1" d="M74.05 63.55c.4-.05.8.05 1.35.15-.4.9-.4 1.5-.25 1.95.2.45.55.9 1.1 1.3-.9-.05-1.7-.45-2.2-1.05-.6-.65-.75-1.15-.65-1.75.05-.3.35-.55.65-.6zm3.4.9c.2 0 .35.15.35.35 0 .15-.15.3-.35.3-.15 0-.3-.15-.3-.3 0-.2.15-.35.3-.35zm9.25-1.5c.8-1.1 1.7-1.65 1.7-.45 4.1-.15 5.9 1.3 6.5 3 .65 1.85.1 3.45-.4 5.05-.3-1.8-.55-2.55-1.85-2.6-1.1-.05-2.8-.45-4.25-.4-.5 0-1 .05-1.45.25-.6.3-1.25.7-1.9.95-.95.4-2.6.95-3.8 1.5-.95.4-1.75.75-2.3 1.15-1.4 1.05-1.7 2.1-2 3.2.8-1 1.3-2 2.6-2.6.15 3.85 3.35 3.85 6.95 5.3.5.2 1 .5 1.5.8 1 .65 2.1 1.5 3.35 2.55-1.45-.65-3.25-1.1-4.65-1.6-1.3-.45-3.4-.9-3.6-1-1.3-.7-3-1.45-4.7-2.35-.75-.4-1.1-.4-1.55.2-.35.5-.9 1-1.25 1.45 0-2.65.25-4.1 2.4-6.05 1.15-1.1 3.45-2.35 5.85-3.4-.7-.9-.35-1.8.3-2.6.55-.6 1.1-.85 1.65-1.35.35-.3.6-.55.9-1zm1.25 1.1c-.4.25-.8.75-.6 1.4.15-.7.35-.95 1.2-1.2a.544.544 0 0 0 .35-.15c.1-.2 0-.4-.3-.35-.25 0-.55.2-.65.3z"/><path d="M75 46.4c4.55 0 8.85 1.05 12.65 2.95-2.15-.35-4.35-.4-5.7-.4-4.15 0-9.75 1.3-14.55 4.2-5.3 3.15-9.45 8.2-11.45 12.45-3.75 2.95-6.95 6.5-9.5 10.75 0 .45.05.95.05 1.4-.05-.9-.1-1.85-.1-2.75 0-15.8 12.8-28.6 28.6-28.6zM57.95 98c0-.05-.05-.05-.05-.1 0 .05.05.05.05.1zm-.45-.35c-.05-.05-.1-.1-.15-.1.05 0 .1.05.15.1zm-.45-.4c-.05 0-.1-.05-.15-.1.05.05.1.1.15.1zm-.5-.35-.15-.15.15.15zm-.45-.45c-.05-.05-.1-.05-.15-.1.05.05.1.05.15.1zm-.45-.4-.15-.15.15.15zm-.45-.4c-.05-.05-.05-.1-.1-.1.05 0 .05.05.1.1zm-.65-.65c-.1-.1-.15-.15-.2-.25.05.1.1.15.2.25zm-.45-.45c-.05-.1-.15-.15-.2-.25.05.1.15.15.2.25zm-.4-.45c-.1-.1-.15-.2-.25-.25.1.05.15.15.25.25zm-.4-.5c-.1-.1-.2-.15-.25-.25.05.1.15.15.25.25zm-.45-.45c-.05-.1-.15-.2-.2-.3.05.1.15.2.2.3zm-.35-.5zm-.4-.5c-.1-.15-.2-.25-.3-.4.1.15.2.25.3.4zm-.4-.55c-.25-.35-.45-.7-.7-1.05.25.35.45.7.7 1.05zm-.8-1.15c-.05-.15-.15-.3-.25-.45.1.15.2.3.25.45zm-.35-.6c-.05-.1-.15-.25-.25-.4.1.15.2.3.25.4zm-.3-.55c-.1-.15-.2-.25-.25-.4.05.15.15.25.25.4zm-.35-.55c-.05-.15-.15-.3-.25-.45.1.15.2.3.25.45zm-.3-.6c-.1-.15-.15-.3-.25-.45.1.15.15.3.25.45zm-.3-.55zm-1.05-2.5c-.1-.2-.15-.4-.25-.55.1.15.15.35.25.55zm-.25-.65c-.05-.2-.15-.35-.2-.55.05.2.15.35.2.55zm-.2-.65zm-.2-.65c-.1-.2-.15-.4-.2-.6.05.2.1.4.2.6zm-.2-.6zm-.6-2.7c-.05-.25-.05-.45-.1-.65.05.2.05.4.1.65zm-.1-.75c-.05-.2-.05-.4-.1-.6.05.2.05.4.1.6zm-.1-.65c-.05-.25-.05-.45-.05-.65 0 .2 0 .4.05.65z" style="fill:#009834"/><path class="fil1" d="m52.7 61.15.6 1.85h1.9l-1.55 1.15.6 1.8-1.55-1.1-1.55 1.1.6-1.8-1.6-1.15h1.95l.6-1.85zm3.65-5.05.45 1.45h1.5l-1.2.85.45 1.45-1.2-.9-1.25.9.5-1.45-1.25-.85h1.5l.5-1.45zM61 52l.4 1.25h1.35l-1.1.75.45 1.25-1.1-.75-1.05.75.399-1.25-1.05-.75h1.3l.4-1.25zm10.9-4.5.25.75h.75l-.6.45.2.75-.6-.45-.65.45.25-.75-.6-.45h.75l.25-.75zm-5.45 1.749.35 1h1.05l-.85.65.3 1-.85-.65-.85.65.3-1-.85-.65h1.05l.35-1z"/></g></g></svg>