<svg xmlns="http://www.w3.org/2000/svg" xml:space="preserve" style="shape-rendering:geometricPrecision;text-rendering:geometricPrecision;image-rendering:optimizeQuality;fill-rule:evenodd;clip-rule:evenodd" viewBox="0 59.867 200 80.267" width="200" height="80.267"><path d="M0 59.867h200v80.266H0Z" style="fill:#f60"/><path d="M0 59.867h200v80.267H0V59.867zM2.867 62.6H76.8v74.733H2.867V62.6zm76.867 0h117.333v74.733H79.733V62.6zm13.2 26.2v7.467h-7.467l-.8-.067V72h12c1.533 0 3.067.067 4.533.333 1.4.267 2.733.667 3.933 1.333s2.067 1.6 2.733 2.6c.8 1.267 1 2.733 1 4.067 0 1.4-.2 2.8-.933 4a7.12 7.12 0 0 1-2.6 2.667c-1.133.733-2.4 1.133-3.8 1.4-1.533.267-3.067.4-4.6.4h-4zm0-6.133h3.6c.533 0 1 0 1.533-.067.467-.133.867-.2 1.2-.4s.6-.4.8-.733c.267-.333.333-.733.333-1.133s-.133-.8-.4-1.133-.6-.533-1.067-.667c-.467-.2-1-.333-1.533-.4-.667 0-1.267-.067-1.867-.067h-2.6v4.6zm44.667-4.2c.4-.333.8-.6 1.267-.867.267-.2.6-.333.933-.467l.133-.067h5.8v5.667h-3.8c-.667 0-1.6.133-2.2.4-.533.2-1 .467-1.333.933s-.533 1-.6 1.533c-.133.8-.2 1.533-.2 2.267v8.333h-8V77.066h8v1.4zm11.533 4.267h-4.067v-5.667h4.067v-5.133h8v5.133h4.467l4.667 5.667h-9.133v5.133c0 .4.067.8.067 1.2.067.267.133.533.333.733.067.2.267.333.533.4.333.133.867.2 1.267.2.2 0 .467 0 .667-.067h.4c.467 2.333.867 3.467 3 5.067-.533.133-1.4.333-1.933.467s-1.133.267-1.667.267c-.733.067-1.533.133-2.333.133-1.067 0-2.133-.067-3.133-.333-1-.2-1.867-.533-2.667-1s-1.4-1.133-1.867-1.867a5.708 5.708 0 0 1-.667-2.733v-7.6zm26.133 11.933c-.533.333-1.133.667-1.8.867-1.267.467-2.667.667-4 .667-1.067 0-2.067-.133-3.067-.333-.933-.267-1.8-.667-2.6-1.133-.8-.533-1.4-1.2-1.867-1.933-.467-.8-.667-1.733-.667-2.667s.2-1.933.733-2.8a6.58 6.58 0 0 1 2.067-2c.867-.467 1.8-.867 2.8-1.133s2.067-.467 3.133-.6 2.133-.2 3.2-.2c.6 0 1.267 0 1.933-.067-.133-.4-.4-.733-.8-1-.667-.467-1.467-.733-2.333-.733s-1.733.2-2.533.533c-.333.133-.667.333-1 .533l-.667.4-.467-.533-2.8-3.2-.533-.6.8-.4c.8-.4 1.6-.733 2.533-1 1.667-.467 3.4-.733 5.133-.733 1.667 0 3.4.133 4.933.667 1.267.4 2.4 1 3.2 1.933.867.867 1.4 1.933 1.667 3.067.333 1.333.467 2.667.467 4v9.933h-7.467v-1.533zm0-6.467h-2.533c-.667.067-1.267.133-1.867.333a2.66 2.66 0 0 0-1.4.6c-.333.2-.467.533-.467.867 0 .4.2.6.6.8.467.267 1 .4 1.6.4.533 0 1.067-.067 1.6-.2.467-.133.933-.267 1.333-.533.333-.2.6-.467.8-.733.2-.333.333-.733.333-1.133v-.4zm-53.933 6.467c-.533.4-1.133.667-1.8.933-1.267.4-2.6.667-4 .667a10.86 10.86 0 0 1-3-.4c-1-.267-1.867-.6-2.667-1.133s-1.4-1.133-1.8-1.933c-.533-.8-.733-1.667-.733-2.6 0-1 .2-2 .8-2.867a5.073 5.073 0 0 1 2-1.933c.867-.533 1.8-.933 2.8-1.2s2.067-.467 3.133-.533c1.067-.133 2.133-.2 3.2-.267h1.933c-.133-.4-.333-.8-.8-1.067-.667-.467-1.467-.667-2.333-.667s-1.733.133-2.467.467c-.4.133-.733.333-1.067.533l-.667.467-.467-.6c-.933-1.067-1.867-2.133-2.733-3.2l-.533-.6.733-.4c.8-.4 1.667-.733 2.533-1a19.2 19.2 0 0 1 5.2-.733c1.6 0 3.333.2 4.867.667 1.267.4 2.4 1.067 3.267 1.933.8.933 1.333 2 1.667 3.133.333 1.267.4 2.6.4 3.933v10h-7.467v-1.6zm0-6.467h-.733c-.6 0-1.2 0-1.8.067-.6 0-1.267.133-1.867.267-.533.133-1 .333-1.4.6-.333.2-.4.533-.4.867 0 .4.133.667.533.867.533.2 1.067.333 1.667.333.533 0 1-.067 1.533-.2.467-.067.933-.267 1.333-.467.333-.2.6-.467.8-.8.267-.333.333-.733.333-1.067V88.2zm-16.867 25.2c.067 0 .133.067.2.067.867.4 1.6.867 2.267 1.467a6.225 6.225 0 0 1 1.467 2c.333.8.467 1.6.467 2.467 0 1.267-.267 2.467-1.133 3.533-.667 1-1.6 1.733-2.733 2.333-1.2.6-2.4.933-3.733 1.2-1.333.2-2.6.333-3.933.333H84.803v-25.333H96.27c1.267 0 2.533.067 3.8.2 1.267.2 2.533.467 3.667 1 1.133.467 2.067 1.2 2.733 2.133.867 1 1.067 2.333 1.067 3.533 0 1.467-.4 2.8-1.533 3.867-.467.467-1 .867-1.533 1.2zm18 12.533c-.133.133-.333.2-.467.333-.6.267-1.267.533-1.867.667-.733.2-1.533.267-2.333.267-1.333 0-2.867-.133-4.067-.667-1.067-.467-2-1.067-2.6-1.933-.667-.867-1-1.8-1.2-2.733-.2-1.067-.267-2.133-.267-3.2v-9.8h8v8.8c0 .467.067.933.067 1.4.067.4.133.733.267 1.133.133.267.333.467.6.667.267.133.8.2 1.133.2.4 0 .933-.067 1.333-.267.267-.133.533-.333.667-.533.2-.333.333-.667.4-1.067.067-.467.133-.933.133-1.4v-8.933h8V126.8h-7.8v-.867zm17.933-16.067c.2-.2.4-.333.667-.467 1.133-.667 2.533-.933 3.867-.933.4 0 .733 0 1.133.067.4 0 .733.067 1.133.133l.733.2v6.4l-1.333-.333c-.333-.133-.733-.2-1.067-.267-.4 0-.733-.067-1.133-.067-.733 0-1.6.067-2.267.333-.4.2-.8.467-1.067.8-.333.4-.467.867-.533 1.333-.133.733-.133 1.4-.133 2.133v7.6h-8.067v-17.933h8.067v1zm20.867 16.067c-.2.133-.333.2-.533.333-.533.267-1.2.533-1.867.667-.733.2-1.467.267-2.267.267-1.4 0-2.867-.133-4.133-.667-1.067-.467-1.933-1.067-2.6-1.933-.6-.867-.933-1.8-1.133-2.733-.2-1.067-.267-2.133-.267-3.2v-9.8h8v8.8c0 .467 0 .933.067 1.4 0 .4.133.733.267 1.133.133.267.333.467.6.667.267.133.8.2 1.133.2.4 0 .933-.067 1.333-.267.267-.133.533-.333.667-.533.2-.333.333-.667.4-1.067.067-.467.067-.933.067-1.4v-8.933h8.067V126.8h-7.8v-.867zm17.867-16.333c.133-.067.2-.133.333-.133.533-.333 1.2-.533 1.8-.733.733-.2 1.533-.267 2.333-.267 1.333 0 2.8.133 4.067.667 1.067.467 1.933 1.067 2.6 1.933.6.867 1 1.8 1.133 2.733.267 1.067.333 2.133.333 3.2v9.8h-8V118c0-.467-.067-.933-.067-1.4a6.937 6.937 0 0 0-.267-1.133 1.302 1.302 0 0 0-.6-.6c-.267-.2-.8-.267-1.133-.267-.4 0-.933.067-1.333.267-.267.133-.533.333-.667.6-.2.267-.333.667-.4 1-.067.467-.133.933-.133 1.4v8.933h-8v-25.333h8v8.133zm-86.067 1.267h3.4c.4 0 .8 0 1.2-.067.333-.067.6-.2.933-.333.2-.133.4-.267.533-.467.133-.267.2-.533.2-.8 0-.2-.067-.533-.2-.733-.2-.2-.4-.333-.6-.467-.333-.133-.667-.2-1.067-.267s-.8-.133-1.267-.133h-3.133v3.267zm0 9.8h4.467c.4 0 .867-.067 1.267-.133.333-.067.667-.133.933-.333.267-.133.467-.333.667-.6.2-.2.2-.533.2-.8 0-.333 0-.6-.267-.8-.2-.267-.467-.4-.8-.533-.467-.2-.933-.267-1.4-.333s-.933-.067-1.467-.067h-3.6v3.6zm90.6-43.6h8.067v19.2h-8.067v-19.2zm0-5.133h8.067v4.133L183.667 76v-4.067zM20.467 81.2v.067h.067l.067.067c.667.867 1.2 1.667 1.867 2.6l1.2 1.867c.4.667.733 1.267 1.133 1.933.8 1.467 1.8 3.733 2.4 5.267 2.533 6 4.133 13.067 4.933 19.667.2 1.467.533 4.133.6 5.533h1.8c.2-1.333.467-2.733.733-4 1.133-5.933 2.8-12.733 5.467-18a32.01 32.01 0 0 1 1.733-3c.2-.267 1.2-1.6 1.6-1.933l.533-.6c-.467.133-1.067.6-1.467.867l-.133.133-.333.333c-.467.467-.667.733-1.133 1.267-1 1.333-2 3.267-2.667 4.8-1.8 4.2-3.067 8.067-4.333 12.6 0-.267.067-.667.067-.933.067-1 .067-2 .067-2.933 0-2.533-.067-5.333.133-7.867.333-4.6 1.933-9.733 4.133-13.667.4-.733 1.067-1.8 1.533-2.467.2-.2.267-.333.467-.533.267-.4 1.267-1.667 1.533-1.933.267-.333.6-.667.933-1.067a.932.932 0 0 0 .267-.2l.933-.867c0-.067.067-.067.067-.133.8-.667 1.867-1.6 2.8-2.2l1.133-.8c.4-.267.867-.467 1.267-.733 2.6-1.467 5.333-2.6 8.133-3.533h.2v-.067l-.8.267c-2.533.667-5.733 1.867-8 3.067-1 .533-1.6.933-2.533 1.533l-1.2.8c-1.2.933-2.133 1.667-3.267 2.8l-1.467 1.533c-.067.067-.133.2-.2.267a.523.523 0 0 1-.267.267c-.667.867-1.067 1.467-1.667 2.333-.4.6-1.133 1.867-1.467 2.533-.467.933-.867 1.8-1.267 2.8-.8 1.933-1.4 4.133-1.8 6.267-.333 1.6-.6 3.867-.533 5.467 0 .333 0 .667-.067 1v1c0 1.333.067 2.667 0 4 0 1.067-.067 2.867-.133 3.867l-.8-8.533c0-.2-.067-.133-.133-.267-.133-.067-.133-.133-.2-.2-.267-.267-.533-.533-.733-.933-.333-.4-.533-.933-.6-1.067l.2 2.133c-.133-.467-.267-1.067-.4-1.533-.133-.533-.267-1-.467-1.533-1.067-3.933-2.4-7.733-4.333-11.267-.6-1.133-1.667-2.8-2.6-3.733a.932.932 0 0 0-.2-.267l-.267-.267-.733-.733c-.467-.333-1.267-.933-1.8-1.133zm14.467 21.267c.067.133.2.267.333.333.933.467 2-1.667 2.267-2.267-.333 0-.533.133-.867.267-.467.267-.867.667-1.2 1.067-.2.2-.333.4-.533.6zm2.867-4.267c-.8-.133-1.6.667-1.867 1.067-.333.4-.6.867-.867 1.333-.067.2-.133.267.067.467.867.867 2.267-2 2.667-2.733.067-.133 0-.133 0-.133zm6.533-17.467c.6 0 1.467-.333 1.933-.533.4-.133 1.333-.6 1.667-.8-.2-.133-.933-.2-1.267-.2-.933 0-1.8.267-2.6.667-.2.067-.667.267-.733.333.067.4.533.533 1 .533zM55.467 72c.333.667 1 .933 1.733 1 1.067.2 1.6.133 2.6.067-.067-.2-.467-.6-.667-.733-.667-.467-1.6-.533-2.4-.533-.2.067-1 .133-1.2.2h-.067zM65.8 70.467V70.4c-.2 0-.4-.133-.533-.2-1-.333-2.533-.8-3.467-.067l-.333.333c.2.067.333.133.533.2.533.2 1.133.333 1.667.4.467.067.867.067 1.267-.067.6-.2.667-.4.867-.533zm-27.8 25c-.267 0-.867.333-1.133.4-.733.467-1.267 1.4-1.533 2.267-.133.267-.133.333.067.533.933.867 2.267-2.4 2.6-3.2zM33.333 96.8c-.267-.733-1.2-1.6-2.133-1.733 0 .267.267.933.333 1.133.133.333.267.667.467 1 .267.467.933 1.333 1.333 1.6.067-.2.133-.4.133-.667.067-.4 0-.867-.133-1.333zM33 99.467c-.467-.533-1.267-.933-2-1 .067.533.6 1.533.867 2 .333.467 1 1.267 1.467 1.533.2-1 .2-1.867-.333-2.533zm25.533-28.133c.067.067 0 .067.067.133.2.267.4.4.667.533 1 .467 2.733.533 3.8.4l-.2-.2C62 71.467 61 70.8 59.734 70.933a6.4 6.4 0 0 0-1.2.4zm-5.4.667c1-.067 1.8-.467 2.333-.933.467-.533.933-1.4 1-2.333-.2.067-.867.533-1.067.6a1.994 1.994 0 0 1-.467.333c-.667.533-1.667 1.533-1.8 2.333zm10-4.333h-.067l-1.133.467c-.6.267-1.333.667-1.8 1.133-.333.267-.733.733-.867 1.2 1.067 0 1.933-.267 2.533-.8.533-.467 1.133-1.333 1.333-2zM45.2 78.268c.133.467.533.667 1.067.667.8 0 1.867-.333 2.667-.6.133-.067 1-.4 1.133-.533-.2-.133-.867-.267-1.2-.333-.867-.133-1.8.067-2.6.333-.133.067-.333.2-.533.267-.133.067-.4.2-.533.2zm10.733-7.133c1.4-.067 2.733-.533 3.467-1.733.133-.267.4-.867.4-1.2-.333.067-.8.4-1.133.533-.4.2-.733.4-1.067.667-.333.2-.733.533-.933.733s-.667.733-.733 1zm-4.467 2.933c-.533 0-1.133.333-1.467.667l-.333.333c.267.133 1.067.267 1.4.333.8.133 1.667.267 2.467.067.2-.067.667-.2.733-.333-.267-.2-.8-.467-1.133-.667-.6-.267-1-.4-1.667-.4zm-9.733 7.867c.2.867 1.733.533 2.333.4.4-.067 2.2-.6 2.4-.733-.467-.6-1.533-.733-2.467-.533l-1.2.4c-.4.133-.867.4-1.067.467zm1.467-3.867c.467-.2 1.067-.733 1.267-1.133.6-1 .533-2 .267-3.067 0-.067 0-.2-.067-.267-.133.067-.267.333-.333.467-.533.8-.933 1.6-1.133 2.6-.067.333-.133 1.133 0 1.4zm-4.867 15c-.6 0-1.267.2-1.667.667-.267.2-.467.467-.733.867-.067.133-.133.333-.2.533-.133.333-.2.4-.067.533.6.6 1.667-.533 1.933-.8.4-.4 1.267-1.4 1.467-1.733l-.733-.067zm2.867-12.8c.533-.4 1.133-1.333 1.333-1.933.267-1.067.067-1.867-.267-2.8l-.333.533c-.4.8-.933 1.933-1 2.867 0 .333 0 .933.2 1.267l.067.067zm-8.333 12.4c-.2-.133-.8-.533-1-.6 0 .733.2 1.733.467 2.333.133.4.333.667.533.933.133.133.6.533.8.6.133-.4.267-.667.333-1.267 0-.867-.467-1.533-1.133-2zm5.867-5.8c.133.133.2.2.533.267.6.133 1.4-.133 1.933-.4a19.009 19.009 0 0 0 2-1.067l.133-.067c-.667-.267-.8-.333-1.533-.333-1 0-1.867.533-2.533 1.067-.067.067-.533.467-.533.533zm13.667-13.533c.4.733 1.267.867 2.067.867.933.067 1.8-.133 2.667-.267 0 0-.133-.2-.2-.2-.133-.2-.333-.4-.6-.533-.8-.467-1.867-.4-2.733-.2-.2 0-1.067.2-1.2.333zm-12.733 8.6c.2-.133.467-.467.6-.733.467-.867.267-1.867-.067-2.733-.133-.267-.533-1.067-.667-1.2-.067.067-1.133 4.4.133 4.667zm8.133-7.333c1.667-.533 2.267-1.667 2.267-3.333 0-.267 0-.533-.067-.867-.067.067-.333.267-.4.4-.2.133-.267.267-.4.4-.533.467-.933 1.333-1.133 2.067-.067.267-.267 1.133-.267 1.333zm-11.4 12.267c.133-.067.333-.333.4-.467.467-.6.6-1.333.467-2.067-.067-.467-.267-.867-.467-1.2-.267-.333-.333-.467-.6-.733-.067-.133-.133-.133-.133-.267-.067.067-.067.067-.067.133l-.067.467c-.067.933-.333 3.667.467 4.133zm9.133-10.667c.467-.2 1.2-.733 1.4-1.067.4-.533.667-1.067.667-1.8 0-.667-.067-.8-.2-1.4-.067.067-.533.6-.667.733-.533.667-1.333 1.933-1.333 2.867 0 .2 0 .467.133.667zm1.533.467c.067.133.267.267.467.333.6.267 1.333.2 1.933.133.467-.067 2-.4 2.333-.6-.067-.133-.267-.333-.4-.467-.867-.8-2.267-.4-3.267.067-.2.067-.867.4-1.067.533zm-9.2 7.533c.267-.133.667-.667.8-.933.533-1.2-.2-2.933-.867-3.867-.067.133-.133.467-.2.667-.2 1-.4 2.4-.133 3.4.133.333.267.467.4.733zm-.467 5.6c.4.267.933.2 1.4.067.733-.267 1.333-.8 1.933-1.333.267-.2.667-.667.8-.8-.067-.133-.467-.2-.6-.2-.733-.133-1.4.133-1.933.533-.333.267-.6.533-.867.8-.133.133-.667.8-.733.933zm3.6-4.733c.667 0 1.533-.467 2.067-.733.267-.133.6-.267.867-.467l.8-.467h.067c-.133-.067-.2-.133-.333-.2-.933-.4-1.933-.267-2.867.267-.2.067-1.267.733-1.267.867v.067c0 .4.267.667.667.667zm-4.533 7.533c.267.467.867.333 1.267.067.667-.4 1.4-1.133 1.933-1.733 0 0 .067-.067.133-.067l.667-.933c-.067-.067-.6 0-.733 0-.267 0-.467.067-.733.133-.8.267-1.4.867-1.867 1.467-.2.2-.6.8-.667 1.067zM50.2 73.269c1.067-.133 1.8-.6 2.267-1.2.4-.533.8-1.667.733-2.6-.267.133-.867.467-1.067.667-.333.267-.6.533-.867.8-.4.533-.933 1.6-1.067 2.333zm-15.867 14.4c0 .933.2 2.2 1.067 2.333.133-.133.267-.733.333-1 .2-1.067.267-2.2-.467-3.067-.2-.2-.533-.6-.8-.667-.133.933-.133 1.533-.133 2.4zM33 89.802c0 .667.133 1.4.267 1.933.133.4.6 1.267.933 1.4.333-.733.533-1.133.533-2.067 0-.867-.467-1.667-1.067-2.133-.2-.133-.4-.333-.667-.467v1.333zm-3.067-7.667c-.733-3.533-1.467-6.933-2.6-10.333l-.467-1.333.6 3.333c.667 3.4 1.133 6.8 1.667 10.267s.933 7 1.333 10.533l.333 2.667c0 .2.067.733.133.867.4.067.733.133 1.067.267.133.067.267.133.333.2v-.333c0-.133-.067-.2-.133-.267-.667-.867-1.2-2.133-1.4-3.267.2 0 .467.067.6.067.2.067.4.133.533.2-.067-.533-.133-1.133-.2-1.667-.467-3.6-1.133-7.733-1.8-11.2zM8.6 122.468h1.733l2.467 4v-4h1.267v5.733H12.4l-2.467-4.067h-.067v4.067H8.599v-5.733zm10 5.067c-.2.267-.467.467-.733.6-.333.133-.6.2-.933.2s-.6-.067-.867-.133c-.267-.133-.533-.267-.733-.467-.2-.133-.333-.4-.467-.667a2.851 2.851 0 0 1-.133-.8c0-.333.067-.6.133-.867.133-.267.267-.467.467-.667s.467-.333.733-.4c.267-.133.533-.2.867-.2.267 0 .533.067.733.2.267.067.467.2.6.4.2.2.267.4.4.667.067.267.133.533.133.867v.333h-2.867c.067.267.133.467.333.6.133.133.333.2.6.2.2 0 .333-.067.533-.133.133-.067.2-.2.333-.333l.867.6zm-1.067-1.733c0-.2-.067-.4-.2-.533s-.333-.2-.533-.2c-.133 0-.267 0-.333.067-.133 0-.2.067-.267.133s-.133.133-.2.267c-.067.067-.067.133-.067.267h1.6zm5.867 2.067c0 .8-.2 1.333-.533 1.733-.4.4-1 .6-1.733.6-.4 0-.733-.067-1.067-.133s-.667-.2-.933-.467l.667-1 .6.4c.2.067.4.133.667.133.4 0 .667-.133.867-.267.133-.2.267-.467.267-.733v-.4h-.067c-.133.2-.267.333-.533.4-.2.133-.4.133-.533.133-.333 0-.6-.067-.8-.133a2.385 2.385 0 0 1-.667-.467c-.133-.133-.267-.4-.4-.6-.067-.267-.133-.533-.133-.867 0-.267.067-.467.133-.733s.2-.467.4-.667c.133-.2.333-.333.533-.467s.467-.2.8-.2c.133 0 .333.067.467.067.133.067.267.133.4.133.067.067.2.133.267.2s.133.2.2.267v-.533h1.133v3.6zm-3.067-1.667c0 .133 0 .267.067.4s.133.2.2.267c.067.133.2.2.333.267.067.067.2.067.333.067s.267 0 .4-.067.267-.133.333-.267c.067-.067.133-.133.2-.267s.067-.267.067-.4 0-.267-.067-.333c-.067-.133-.133-.267-.2-.333s-.2-.133-.333-.2-.267-.067-.4-.067-.267 0-.333.067c-.133.067-.267.133-.333.2s-.133.2-.2.333c-.067.067-.067.2-.067.333zm6.267 1.533c-.133.2-.333.333-.6.467-.2.067-.467.133-.667.133s-.4-.067-.533-.067c-.2-.067-.333-.133-.467-.267a.682.682 0 0 1-.333-.4c-.067-.133-.067-.333-.067-.533s0-.4.067-.533c.133-.2.2-.333.4-.4.133-.133.267-.2.467-.267s.4-.067.6-.133H26.6c0-.267-.067-.4-.267-.533-.133-.133-.333-.2-.533-.2s-.4 0-.533.133c-.2.067-.333.2-.467.333l-.667-.667c.267-.2.533-.4.8-.467.333-.133.667-.2 1-.2s.6.067.867.133c.2.133.4.267.533.4.133.2.267.4.333.667 0 .267.067.533.067.867v2H26.6v-.467zm-.333-1.267h-.333c-.133.067-.267.067-.4.067-.133.067-.2.133-.333.2-.067.067-.133.2-.133.333s.067.267.2.333.267.067.4.067h.333c.133-.067.2-.133.333-.133a.918.918 0 0 0 .2-.267c0-.067.067-.2.067-.333v-.267h-.333zm1.933-2.2h1.2v.6h.067c.133-.2.267-.4.467-.533.133-.133.4-.2.667-.2h.2c.067.067.133.067.2.067v1.133c-.067-.067-.2-.067-.267-.067h-.267c-.267 0-.4 0-.533.067s-.267.133-.333.267-.133.267-.133.4c-.067.2-.067.4-.067.533v1.667h-1.2v-3.933zm5.533 3.467c-.133.2-.333.333-.6.467-.2.067-.4.133-.667.133-.2 0-.4-.067-.533-.067-.2-.067-.333-.133-.467-.267a.682.682 0 0 1-.333-.4c-.067-.133-.067-.333-.067-.533s0-.4.067-.533c.133-.2.2-.333.4-.4.133-.133.267-.2.467-.267s.4-.067.6-.133h1.133c0-.267-.067-.4-.267-.533-.133-.133-.333-.2-.533-.2s-.4 0-.533.133c-.2.067-.333.2-.467.333l-.667-.667c.267-.2.533-.4.8-.467.333-.133.667-.2 1-.2s.6.067.867.133c.2.133.4.267.533.4.133.2.267.4.333.667 0 .267.067.533.067.867v2h-1.133v-.467zm-.333-1.267h-.333c-.133.067-.267.067-.4.067-.133.067-.2.133-.333.2-.067.067-.133.2-.133.333s.067.267.2.333.267.067.4.067h.333c.133-.067.2-.133.333-.133a.918.918 0 0 0 .2-.267c0-.067.067-.2.067-.333v-.267h-.333zm7.667-2.6c-.133-.133-.267-.267-.4-.333-.2-.067-.4-.067-.533-.067-.067 0-.2 0-.267.067-.133 0-.2 0-.267.067a.932.932 0 0 0-.267.2c0 .067-.067.133-.067.267 0 .2.067.333.2.4s.333.2.467.267c.2.067.467.133.667.133.267.067.467.2.667.333.2.067.333.267.467.467s.2.467.2.8-.067.6-.2.867c-.067.2-.267.4-.467.6-.2.133-.467.267-.733.333s-.533.133-.8.133c-.4 0-.733-.067-1.067-.2s-.6-.267-.933-.533l.933-1c.133.133.333.267.467.4.2.067.467.133.667.133.067 0 .2 0 .267-.067.133 0 .2-.067.333-.067l.2-.2c.067-.067.067-.2.067-.267 0-.2-.067-.333-.2-.4-.133-.133-.333-.2-.533-.267l-.6-.2c-.267-.067-.467-.2-.667-.333-.2-.067-.4-.267-.533-.467s-.2-.467-.2-.733c0-.333.067-.6.2-.867.133-.2.267-.4.467-.6.2-.133.467-.267.733-.333s.533-.133.8-.133c.333 0 .667.067 1 .133.267.133.533.267.8.467l-.867 1zm5.133 3.667c-.2.267-.467.467-.733.6-.333.133-.6.2-.933.2s-.6-.067-.867-.133c-.267-.133-.533-.267-.733-.467-.2-.133-.333-.4-.467-.667a2.851 2.851 0 0 1-.133-.8c0-.333.067-.6.133-.867.133-.267.267-.467.467-.667s.467-.333.733-.4c.267-.133.533-.2.867-.2.267 0 .533.067.8.2.2.067.4.2.533.4.2.2.333.4.4.667s.133.533.133.867v.333h-2.867c.067.267.2.467.333.6s.333.2.6.2c.2 0 .4-.067.533-.133s.267-.2.333-.333l.867.6zm-1.067-1.733c.067-.2 0-.4-.2-.533-.133-.133-.267-.2-.533-.2-.133 0-.267 0-.333.067-.133 0-.2.067-.267.133s-.133.133-.2.267c0 .067-.067.133-.067.267h1.6zm2.933 2.733c0 .267 0 .467-.067.667s-.133.4-.2.533c-.133.133-.267.267-.467.333s-.467.133-.733.133h-.267c-.133 0-.2-.067-.267-.067l.067-1.067c.067 0 .2.067.267.067.133 0 .2-.067.267-.133.067 0 .133-.067.133-.2.067-.067.067-.133.067-.267v-4.267h1.2v4.267zm3.133-.8h-.067a1.24 1.24 0 0 1-.533.467c-.2.067-.467.133-.733.133-.133 0-.333-.067-.533-.067-.133-.067-.267-.133-.4-.267a.682.682 0 0 1-.333-.4c-.067-.133-.133-.333-.133-.533s.067-.4.133-.533c.067-.2.2-.333.333-.4.2-.133.333-.2.533-.267s.333-.067.533-.133h1.2c0-.267-.133-.4-.267-.533s-.333-.2-.533-.2-.4 0-.533.133c-.2.067-.333.2-.467.333l-.667-.667c.267-.2.533-.4.8-.467.333-.133.6-.2.933-.2.4 0 .667.067.933.133.2.133.4.267.533.4.133.2.267.4.267.667.067.267.133.533.133.867v2h-1.133v-.467zm-.333-1.267h-.333c-.133.067-.267.067-.4.067-.133.067-.267.133-.333.2s-.133.2-.133.333.067.267.2.333.267.067.4.067h.333c.133-.067.2-.133.267-.133.133-.067.2-.133.2-.267a.508.508 0 0 0 .133-.333v-.267h-.333zm3.133-4.4v2.733c.067-.067.067-.133.133-.267.067-.067.2-.133.267-.2.067 0 .2-.067.333-.133.133 0 .267-.067.4-.067.333 0 .533.067.733.133.2.133.333.267.467.4.133.2.2.4.2.6.067.267.067.533.067.8v2.133h-1.2v-2.267c-.067-.133-.067-.267-.133-.333 0-.133-.067-.2-.133-.267-.133-.067-.2-.067-.4-.067-.133 0-.267 0-.4.067l-.2.2c-.067.133-.067.2-.133.333v2.333h-1.2v-6.133H54zm5.867 3.2h-1.067v1.6c.067.067.067.133.133.2 0 .067.067.133.133.2h.6c.067 0 .2-.067.2-.067v1c-.133.067-.267.067-.4.133h-.467c-.2 0-.4 0-.533-.067a3.29 3.29 0 0 1-.467-.2c-.133-.133-.2-.267-.333-.4-.067-.133-.067-.333-.067-.533v-1.867h-.8v-1h.8v-1.2h1.2v1.2h1.067v1zm4.133 2.267c-.2.267-.467.467-.733.6-.333.133-.667.2-.933.2-.333 0-.6-.067-.867-.133-.267-.133-.533-.267-.733-.467-.2-.133-.333-.4-.467-.667-.133-.2-.2-.533-.2-.8 0-.333.067-.6.2-.867s.267-.467.467-.667.467-.333.733-.4c.267-.133.533-.2.867-.2.267 0 .533.067.733.2.267.067.467.2.6.4s.267.4.4.667c.067.267.133.533.133.867v.333h-2.867c.067.267.133.467.333.6.133.133.333.2.6.2.2 0 .333-.067.467-.133s.267-.2.4-.333l.867.6zm-1.067-1.733c0-.2-.067-.4-.2-.533s-.333-.2-.533-.2c-.133 0-.267 0-.4.067-.067 0-.133.067-.267.133-.067.067-.067.133-.133.267-.067.067-.067.133-.067.267h1.6zm1.667-1.533h1.267v.6c.133-.2.267-.4.467-.533s.4-.2.667-.2h.2c.067.067.133.067.2.067v1.133c-.067-.067-.133-.067-.267-.067h-.267c-.2 0-.4 0-.533.067s-.267.133-.333.267-.067.267-.133.4v2.2H64.6v-3.933zm5.533 3.467c-.133.2-.333.333-.533.467-.2.067-.467.133-.733.133-.2 0-.333-.067-.533-.067-.133-.067-.333-.133-.467-.267-.133-.067-.2-.2-.267-.4-.067-.133-.133-.333-.133-.533s.067-.4.133-.533c.067-.2.2-.333.333-.4.133-.133.333-.2.467-.267.2-.067.4-.067.6-.133h1.133c0-.267-.067-.4-.2-.533-.2-.133-.333-.2-.533-.2-.267 0-.4 0-.6.133-.133.067-.267.2-.4.333l-.667-.667c.2-.2.467-.4.8-.467.267-.133.6-.2.933-.2s.667.067.867.133c.267.133.467.267.6.4.133.2.2.4.267.667s.067.533.067.867v2h-1.133v-.467zm-.267-1.267h-.333c-.2.067-.333.067-.4.067-.133.067-.267.133-.333.2-.133.067-.133.2-.133.333s.067.267.133.333c.133.067.267.067.4.067h.4a.503.503 0 0 1 .267-.133.918.918 0 0 0 .2-.267c.067-.067.067-.2.067-.333v-.267h-.267zm-23-3.4h1.2v.867h-1.2v-.867z" style="fill:#fff"/></svg>